<ttFont>
    <TTGlyph name="A" xMin="-190" yMin="-183" xMax="712" yMax="670">
      <contour>
        <pt x="419" y="156" on="1"/>
        <pt x="445" y="157" on="1"/>
        <pt x="450" y="157" on="1"/>
        <pt x="457" y="157" on="0"/>
        <pt x="457" y="154" on="1"/>
        <pt x="457" y="144" on="0"/>
        <pt x="439" y="143" on="1"/>
        <pt x="295" y="133" on="0"/>
        <pt x="269" y="129" on="1"/>
        <pt x="149" y="-21" on="0"/>
        <pt x="36" y="-105" on="1"/>
        <pt x="63" y="-118" on="0"/>
        <pt x="125" y="-129" on="1"/>
        <pt x="134" y="-130" on="0"/>
        <pt x="134" y="-140" on="0"/>
        <pt x="124" y="-140" on="1"/>
        <pt x="84" y="-140" on="0"/>
        <pt x="26" y="-113" on="1"/>
        <pt x="-72" y="-183" on="0"/>
        <pt x="-144" y="-183" on="1"/>
        <pt x="-190" y="-183" on="0"/>
        <pt x="-190" y="-154" on="1"/>
        <pt x="-190" y="-133" on="0"/>
        <pt x="-178" y="-124" on="1"/>
        <pt x="-181" y="-133" on="0"/>
        <pt x="-181" y="-143" on="1"/>
        <pt x="-181" y="-170" on="0"/>
        <pt x="-143" y="-170" on="1"/>
        <pt x="-77" y="-170" on="0"/>
        <pt x="9" y="-105" on="1"/>
        <pt x="-1" y="-100" on="0"/>
        <pt x="-22" y="-86" on="1"/>
        <pt x="-90" y="-135" on="0"/>
        <pt x="-130" y="-135" on="1"/>
        <pt x="-137" y="-135" on="0"/>
        <pt x="-137" y="-131" on="1"/>
        <pt x="-137" y="-124" on="0"/>
        <pt x="-127" y="-123" on="1"/>
        <pt x="-77" y="-106" on="0"/>
        <pt x="-34" y="-75" on="1"/>
        <pt x="-64" y="-46" on="0"/>
        <pt x="-64" y="-15" on="1"/>
        <pt x="-64" y="42" on="0"/>
        <pt x="27" y="88" on="1"/>
        <pt x="87" y="119" on="0"/>
        <pt x="168" y="135" on="1"/>
        <pt x="307" y="318" on="0"/>
        <pt x="381" y="511" on="1"/>
        <pt x="385" y="520" on="0"/>
        <pt x="415" y="619" on="1"/>
        <pt x="416" y="626" on="0"/>
        <pt x="423" y="626" on="1"/>
        <pt x="424" y="625" on="0"/>
        <pt x="424" y="624" on="1"/>
        <pt x="424" y="544" on="0"/>
        <pt x="334" y="373" on="1"/>
        <pt x="268" y="246" on="0"/>
        <pt x="191" y="139" on="1"/>
        <pt x="239" y="144" on="1"/>
        <pt x="305" y="234" on="0"/>
        <pt x="464" y="532" on="0"/>
        <pt x="464" y="606" on="1"/>
        <pt x="464" y="652" on="0"/>
        <pt x="423" y="658" on="1"/>
        <pt x="414" y="660" on="0"/>
        <pt x="414" y="670" on="0"/>
        <pt x="425" y="670" on="1"/>
        <pt x="461" y="670" on="0"/>
        <pt x="482" y="647" on="1"/>
        <pt x="502" y="622" on="0"/>
        <pt x="502" y="586" on="1"/>
        <pt x="502" y="505" on="0"/>
        <pt x="423" y="359" on="1"/>
        <pt x="367" y="258" on="0"/>
        <pt x="284" y="148" on="1"/>
        <pt x="372" y="156" on="0"/>
      </contour>
      <contour>
        <pt x="712" y="-26" on="1"/>
        <pt x="712" y="-42" on="0"/>
        <pt x="668" y="-101" on="0"/>
        <pt x="630" y="-122" on="0"/>
        <pt x="574" y="-122" on="0"/>
        <pt x="498" y="-61" on="0"/>
        <pt x="461" y="20" on="0"/>
        <pt x="461" y="171" on="0"/>
        <pt x="491" y="426" on="0"/>
        <pt x="495" y="487" on="0"/>
        <pt x="501" y="487" on="1"/>
        <pt x="510" y="487" on="0"/>
        <pt x="511" y="466" on="1"/>
        <pt x="511" y="307" on="1"/>
        <pt x="511" y="43" on="0"/>
        <pt x="554" y="-53" on="1"/>
        <pt x="580" y="-112" on="0"/>
        <pt x="614" y="-112" on="1"/>
        <pt x="659" y="-112" on="0"/>
      </contour>
      <contour>
        <pt x="222" y="122" on="1"/>
        <pt x="199" y="117" on="0"/>
        <pt x="168" y="108" on="1"/>
        <pt x="81" y="-4" on="0"/>
        <pt x="-7" y="-74" on="1"/>
        <pt x="2" y="-86" on="0"/>
        <pt x="20" y="-97" on="1"/>
        <pt x="112" y="-24" on="0"/>
      </contour>
      <contour>
        <pt x="142" y="100" on="1"/>
        <pt x="-20" y="36" on="0"/>
        <pt x="-20" y="-36" on="1"/>
        <pt x="-20" y="-48" on="0"/>
        <pt x="-15" y="-61" on="1"/>
        <pt x="61" y="0" on="0"/>
      </contour>
    </TTGlyph>
    <TTGlyph name="AE" xMin="-190" yMin="-183" xMax="909" yMax="670">
      <contour>
        <pt x="615" y="586" on="1"/>
        <pt x="615" y="582" on="0"/>
        <pt x="606" y="556" on="1"/>
        <pt x="740" y="553" on="0"/>
        <pt x="866" y="519" on="1"/>
        <pt x="882" y="513" on="1"/>
        <pt x="892" y="537" on="0"/>
        <pt x="897" y="573" on="0"/>
        <pt x="899" y="579" on="1"/>
        <pt x="900" y="585" on="0"/>
        <pt x="906" y="585" on="1"/>
        <pt x="909" y="585" on="0"/>
        <pt x="909" y="546" on="0"/>
        <pt x="901" y="498" on="1"/>
        <pt x="902" y="497" on="0"/>
        <pt x="902" y="493" on="0"/>
        <pt x="900" y="489" on="1"/>
        <pt x="888" y="435" on="0"/>
        <pt x="860" y="397" on="0"/>
        <pt x="838" y="397" on="1"/>
        <pt x="831" y="397" on="0"/>
        <pt x="815" y="405" on="1"/>
        <pt x="801" y="413" on="0"/>
        <pt x="801" y="420" on="1"/>
        <pt x="801" y="422" on="0"/>
        <pt x="818" y="425" on="1"/>
        <pt x="848" y="430" on="0"/>
        <pt x="870" y="482" on="1"/>
        <pt x="854" y="482" on="0"/>
        <pt x="832" y="488" on="1"/>
        <pt x="729" y="519" on="0"/>
        <pt x="597" y="525" on="1"/>
        <pt x="584" y="478" on="0"/>
        <pt x="572" y="398" on="1"/>
        <pt x="554" y="268" on="0"/>
        <pt x="545" y="224" on="1"/>
        <pt x="560" y="227" on="1"/>
        <pt x="723" y="254" on="0"/>
        <pt x="787" y="254" on="1"/>
        <pt x="789" y="254" on="0"/>
        <pt x="789" y="252" on="1"/>
        <pt x="789" y="242" on="0"/>
        <pt x="772" y="234" on="1"/>
        <pt x="727" y="214" on="0"/>
        <pt x="537" y="187" on="1"/>
        <pt x="502" y="31" on="0"/>
        <pt x="418" y="-21" on="1"/>
        <pt x="424" y="-21" on="1"/>
        <pt x="522" y="-26" on="0"/>
        <pt x="556" y="-26" on="1"/>
        <pt x="706" y="-26" on="0"/>
        <pt x="845" y="29" on="0"/>
        <pt x="845" y="71" on="1"/>
        <pt x="845" y="90" on="0"/>
        <pt x="812" y="141" on="0"/>
        <pt x="812" y="144" on="1"/>
        <pt x="812" y="151" on="0"/>
        <pt x="819" y="151" on="1"/>
        <pt x="838" y="151" on="0"/>
        <pt x="850" y="118" on="1"/>
        <pt x="862" y="91" on="0"/>
        <pt x="862" y="68" on="1"/>
        <pt x="862" y="-10" on="0"/>
        <pt x="772" y="-46" on="1"/>
        <pt x="730" y="-63" on="0"/>
        <pt x="585" y="-63" on="0"/>
        <pt x="485" y="-50" on="1"/>
        <pt x="382" y="-37" on="1"/>
        <pt x="355" y="-46" on="0"/>
        <pt x="289" y="-46" on="0"/>
        <pt x="289" y="-32" on="1"/>
        <pt x="289" y="-30" on="0"/>
        <pt x="290" y="-29" on="1"/>
        <pt x="287" y="-29" on="1"/>
        <pt x="278" y="-29" on="0"/>
        <pt x="278" y="-22" on="1"/>
        <pt x="278" y="-17" on="0"/>
        <pt x="330" y="-17" on="0"/>
        <pt x="357" y="-18" on="1"/>
        <pt x="428" y="5" on="0"/>
        <pt x="465" y="100" on="1"/>
        <pt x="475" y="123" on="0"/>
        <pt x="488" y="181" on="1"/>
        <pt x="374" y="168" on="0"/>
        <pt x="347" y="168" on="1"/>
        <pt x="320" y="168" on="0"/>
        <pt x="299" y="169" on="1"/>
        <pt x="151" y="-18" on="0"/>
        <pt x="36" y="-105" on="1"/>
        <pt x="63" y="-118" on="0"/>
        <pt x="125" y="-129" on="1"/>
        <pt x="134" y="-130" on="0"/>
        <pt x="134" y="-140" on="0"/>
        <pt x="124" y="-140" on="1"/>
        <pt x="84" y="-140" on="0"/>
        <pt x="26" y="-113" on="1"/>
        <pt x="-72" y="-183" on="0"/>
        <pt x="-144" y="-183" on="1"/>
        <pt x="-190" y="-183" on="0"/>
        <pt x="-190" y="-154" on="1"/>
        <pt x="-190" y="-133" on="0"/>
        <pt x="-178" y="-124" on="1"/>
        <pt x="-181" y="-133" on="0"/>
        <pt x="-181" y="-143" on="1"/>
        <pt x="-181" y="-170" on="0"/>
        <pt x="-143" y="-170" on="1"/>
        <pt x="-77" y="-170" on="0"/>
        <pt x="9" y="-105" on="1"/>
        <pt x="-1" y="-100" on="0"/>
        <pt x="-22" y="-86" on="1"/>
        <pt x="-90" y="-135" on="0"/>
        <pt x="-130" y="-135" on="1"/>
        <pt x="-137" y="-135" on="0"/>
        <pt x="-137" y="-131" on="1"/>
        <pt x="-137" y="-124" on="0"/>
        <pt x="-127" y="-123" on="1"/>
        <pt x="-77" y="-106" on="0"/>
        <pt x="-34" y="-75" on="1"/>
        <pt x="-55" y="-54" on="0"/>
        <pt x="-55" y="-22" on="1"/>
        <pt x="-55" y="30" on="0"/>
        <pt x="-6" y="82" on="1"/>
        <pt x="37" y="124" on="0"/>
        <pt x="139" y="168" on="0"/>
        <pt x="202" y="180" on="1"/>
        <pt x="324" y="342" on="0"/>
        <pt x="384" y="513" on="1"/>
        <pt x="377" y="516" on="0"/>
        <pt x="377" y="527" on="0"/>
        <pt x="390" y="531" on="1"/>
        <pt x="403" y="572" on="0"/>
        <pt x="415" y="619" on="1"/>
        <pt x="416" y="626" on="0"/>
        <pt x="423" y="626" on="1"/>
        <pt x="426" y="623" on="0"/>
        <pt x="424" y="621" on="1"/>
        <pt x="418" y="580" on="0"/>
        <pt x="406" y="536" on="1"/>
        <pt x="432" y="544" on="0"/>
        <pt x="460" y="548" on="1"/>
        <pt x="468" y="580" on="0"/>
        <pt x="468" y="601" on="1"/>
        <pt x="468" y="650" on="0"/>
        <pt x="423" y="658" on="1"/>
        <pt x="414" y="660" on="0"/>
        <pt x="414" y="670" on="0"/>
        <pt x="438" y="670" on="0"/>
        <pt x="455" y="664" on="1"/>
        <pt x="509" y="648" on="0"/>
        <pt x="509" y="583" on="1"/>
        <pt x="509" y="570" on="0"/>
        <pt x="506" y="553" on="1"/>
        <pt x="562" y="556" on="1"/>
        <pt x="569" y="574" on="0"/>
        <pt x="587" y="601" on="0"/>
        <pt x="615" y="601" on="0"/>
      </contour>
      <contour>
        <pt x="549" y="526" on="1"/>
        <pt x="532" y="526" on="0"/>
        <pt x="500" y="524" on="1"/>
        <pt x="482" y="459" on="0"/>
        <pt x="386" y="281" on="0"/>
        <pt x="317" y="194" on="1"/>
        <pt x="369" y="197" on="0"/>
        <pt x="496" y="216" on="1"/>
        <pt x="508" y="287" on="0"/>
        <pt x="532" y="464" on="0"/>
        <pt x="552" y="526" on="1"/>
      </contour>
      <contour>
        <pt x="406" y="511" on="1"/>
        <pt x="399" y="511" on="1"/>
        <pt x="351" y="355" on="0"/>
        <pt x="224" y="183" on="1"/>
        <pt x="248" y="188" on="0"/>
        <pt x="273" y="189" on="1"/>
        <pt x="336" y="278" on="0"/>
        <pt x="436" y="470" on="0"/>
        <pt x="452" y="519" on="1"/>
        <pt x="415" y="511" on="0"/>
      </contour>
      <contour>
        <pt x="256" y="166" on="1"/>
        <pt x="222" y="159" on="0"/>
        <pt x="202" y="153" on="1"/>
        <pt x="77" y="-9" on="0"/>
        <pt x="-7" y="-74" on="1"/>
        <pt x="2" y="-86" on="0"/>
        <pt x="20" y="-97" on="1"/>
        <pt x="118" y="-19" on="0"/>
      </contour>
      <contour>
        <pt x="-18" y="-46" on="1"/>
        <pt x="-18" y="-54" on="0"/>
        <pt x="-15" y="-61" on="1"/>
        <pt x="53" y="-6" on="0"/>
        <pt x="176" y="144" on="1"/>
        <pt x="70" y="109" on="0"/>
        <pt x="15" y="34" on="1"/>
        <pt x="-18" y="-12" on="0"/>
      </contour>
    </TTGlyph>
    <TTGlyph name="Aacute" xMin="-190" yMin="-183" xMax="712" yMax="800">
      <contour>
        <pt x="419" y="156" on="1"/>
        <pt x="445" y="157" on="1"/>
        <pt x="450" y="157" on="1"/>
        <pt x="457" y="157" on="0"/>
        <pt x="457" y="154" on="1"/>
        <pt x="457" y="144" on="0"/>
        <pt x="439" y="143" on="1"/>
        <pt x="295" y="133" on="0"/>
        <pt x="269" y="129" on="1"/>
        <pt x="149" y="-21" on="0"/>
        <pt x="36" y="-105" on="1"/>
        <pt x="63" y="-118" on="0"/>
        <pt x="125" y="-129" on="1"/>
        <pt x="134" y="-130" on="0"/>
        <pt x="134" y="-140" on="0"/>
        <pt x="124" y="-140" on="1"/>
        <pt x="84" y="-140" on="0"/>
        <pt x="26" y="-113" on="1"/>
        <pt x="-72" y="-183" on="0"/>
        <pt x="-144" y="-183" on="1"/>
        <pt x="-190" y="-183" on="0"/>
        <pt x="-190" y="-154" on="1"/>
        <pt x="-190" y="-133" on="0"/>
        <pt x="-178" y="-124" on="1"/>
        <pt x="-181" y="-133" on="0"/>
        <pt x="-181" y="-143" on="1"/>
        <pt x="-181" y="-170" on="0"/>
        <pt x="-143" y="-170" on="1"/>
        <pt x="-77" y="-170" on="0"/>
        <pt x="9" y="-105" on="1"/>
        <pt x="-1" y="-100" on="0"/>
        <pt x="-22" y="-86" on="1"/>
        <pt x="-90" y="-135" on="0"/>
        <pt x="-130" y="-135" on="1"/>
        <pt x="-137" y="-135" on="0"/>
        <pt x="-137" y="-131" on="1"/>
        <pt x="-137" y="-124" on="0"/>
        <pt x="-127" y="-123" on="1"/>
        <pt x="-77" y="-106" on="0"/>
        <pt x="-34" y="-75" on="1"/>
        <pt x="-64" y="-46" on="0"/>
        <pt x="-64" y="-15" on="1"/>
        <pt x="-64" y="42" on="0"/>
        <pt x="27" y="88" on="1"/>
        <pt x="87" y="119" on="0"/>
        <pt x="168" y="135" on="1"/>
        <pt x="307" y="318" on="0"/>
        <pt x="381" y="511" on="1"/>
        <pt x="385" y="520" on="0"/>
        <pt x="415" y="619" on="1"/>
        <pt x="416" y="626" on="0"/>
        <pt x="423" y="626" on="1"/>
        <pt x="424" y="625" on="0"/>
        <pt x="424" y="624" on="1"/>
        <pt x="424" y="544" on="0"/>
        <pt x="334" y="373" on="1"/>
        <pt x="268" y="246" on="0"/>
        <pt x="191" y="139" on="1"/>
        <pt x="239" y="144" on="1"/>
        <pt x="305" y="234" on="0"/>
        <pt x="464" y="532" on="0"/>
        <pt x="464" y="606" on="1"/>
        <pt x="464" y="652" on="0"/>
        <pt x="423" y="658" on="1"/>
        <pt x="414" y="660" on="0"/>
        <pt x="414" y="670" on="0"/>
        <pt x="425" y="670" on="1"/>
        <pt x="461" y="670" on="0"/>
        <pt x="482" y="647" on="1"/>
        <pt x="502" y="622" on="0"/>
        <pt x="502" y="586" on="1"/>
        <pt x="502" y="505" on="0"/>
        <pt x="423" y="359" on="1"/>
        <pt x="367" y="258" on="0"/>
        <pt x="284" y="148" on="1"/>
        <pt x="372" y="156" on="0"/>
      </contour>
      <contour>
        <pt x="712" y="-26" on="1"/>
        <pt x="712" y="-42" on="0"/>
        <pt x="668" y="-101" on="0"/>
        <pt x="630" y="-122" on="0"/>
        <pt x="574" y="-122" on="0"/>
        <pt x="498" y="-61" on="0"/>
        <pt x="461" y="20" on="0"/>
        <pt x="461" y="171" on="0"/>
        <pt x="491" y="426" on="0"/>
        <pt x="495" y="487" on="0"/>
        <pt x="501" y="487" on="1"/>
        <pt x="510" y="487" on="0"/>
        <pt x="511" y="466" on="1"/>
        <pt x="511" y="307" on="1"/>
        <pt x="511" y="43" on="0"/>
        <pt x="554" y="-53" on="1"/>
        <pt x="580" y="-112" on="0"/>
        <pt x="614" y="-112" on="1"/>
        <pt x="659" y="-112" on="0"/>
      </contour>
      <contour>
        <pt x="222" y="122" on="1"/>
        <pt x="199" y="117" on="0"/>
        <pt x="168" y="108" on="1"/>
        <pt x="81" y="-4" on="0"/>
        <pt x="-7" y="-74" on="1"/>
        <pt x="2" y="-86" on="0"/>
        <pt x="20" y="-97" on="1"/>
        <pt x="112" y="-24" on="0"/>
      </contour>
      <contour>
        <pt x="142" y="100" on="1"/>
        <pt x="-20" y="36" on="0"/>
        <pt x="-20" y="-36" on="1"/>
        <pt x="-20" y="-48" on="0"/>
        <pt x="-15" y="-61" on="1"/>
        <pt x="61" y="0" on="0"/>
      </contour>
      <contour>
        <pt x="619" y="800" on="0"/>
        <pt x="639" y="786" on="0"/>
        <pt x="639" y="776" on="1"/>
        <pt x="639" y="762" on="0"/>
        <pt x="592" y="738" on="1"/>
        <pt x="492" y="674" on="0"/>
        <pt x="483" y="674" on="1"/>
        <pt x="481" y="676" on="1"/>
        <pt x="481" y="684" on="0"/>
        <pt x="495" y="695" on="1"/>
        <pt x="542" y="730" on="0"/>
        <pt x="546" y="734" on="1"/>
        <pt x="574" y="758" on="0"/>
        <pt x="582" y="784" on="1"/>
        <pt x="586" y="800" on="0"/>
        <pt x="609" y="800" on="1"/>
      </contour>
    </TTGlyph>
    <TTGlyph name="Acircumflex" xMin="-190" yMin="-183" xMax="712" yMax="798">
      <contour>
        <pt x="419" y="156" on="1"/>
        <pt x="445" y="157" on="1"/>
        <pt x="450" y="157" on="1"/>
        <pt x="457" y="157" on="0"/>
        <pt x="457" y="154" on="1"/>
        <pt x="457" y="144" on="0"/>
        <pt x="439" y="143" on="1"/>
        <pt x="295" y="133" on="0"/>
        <pt x="269" y="129" on="1"/>
        <pt x="149" y="-21" on="0"/>
        <pt x="36" y="-105" on="1"/>
        <pt x="63" y="-118" on="0"/>
        <pt x="125" y="-129" on="1"/>
        <pt x="134" y="-130" on="0"/>
        <pt x="134" y="-140" on="0"/>
        <pt x="124" y="-140" on="1"/>
        <pt x="84" y="-140" on="0"/>
        <pt x="26" y="-113" on="1"/>
        <pt x="-72" y="-183" on="0"/>
        <pt x="-144" y="-183" on="1"/>
        <pt x="-190" y="-183" on="0"/>
        <pt x="-190" y="-154" on="1"/>
        <pt x="-190" y="-133" on="0"/>
        <pt x="-178" y="-124" on="1"/>
        <pt x="-181" y="-133" on="0"/>
        <pt x="-181" y="-143" on="1"/>
        <pt x="-181" y="-170" on="0"/>
        <pt x="-143" y="-170" on="1"/>
        <pt x="-77" y="-170" on="0"/>
        <pt x="9" y="-105" on="1"/>
        <pt x="-1" y="-100" on="0"/>
        <pt x="-22" y="-86" on="1"/>
        <pt x="-90" y="-135" on="0"/>
        <pt x="-130" y="-135" on="1"/>
        <pt x="-137" y="-135" on="0"/>
        <pt x="-137" y="-131" on="1"/>
        <pt x="-137" y="-124" on="0"/>
        <pt x="-127" y="-123" on="1"/>
        <pt x="-77" y="-106" on="0"/>
        <pt x="-34" y="-75" on="1"/>
        <pt x="-64" y="-46" on="0"/>
        <pt x="-64" y="-15" on="1"/>
        <pt x="-64" y="42" on="0"/>
        <pt x="27" y="88" on="1"/>
        <pt x="87" y="119" on="0"/>
        <pt x="168" y="135" on="1"/>
        <pt x="307" y="318" on="0"/>
        <pt x="381" y="511" on="1"/>
        <pt x="385" y="520" on="0"/>
        <pt x="415" y="619" on="1"/>
        <pt x="416" y="626" on="0"/>
        <pt x="423" y="626" on="1"/>
        <pt x="424" y="625" on="0"/>
        <pt x="424" y="624" on="1"/>
        <pt x="424" y="544" on="0"/>
        <pt x="334" y="373" on="1"/>
        <pt x="268" y="246" on="0"/>
        <pt x="191" y="139" on="1"/>
        <pt x="239" y="144" on="1"/>
        <pt x="305" y="234" on="0"/>
        <pt x="464" y="532" on="0"/>
        <pt x="464" y="606" on="1"/>
        <pt x="464" y="652" on="0"/>
        <pt x="423" y="658" on="1"/>
        <pt x="414" y="660" on="0"/>
        <pt x="414" y="670" on="0"/>
        <pt x="425" y="670" on="1"/>
        <pt x="461" y="670" on="0"/>
        <pt x="482" y="647" on="1"/>
        <pt x="502" y="622" on="0"/>
        <pt x="502" y="586" on="1"/>
        <pt x="502" y="505" on="0"/>
        <pt x="423" y="359" on="1"/>
        <pt x="367" y="258" on="0"/>
        <pt x="284" y="148" on="1"/>
        <pt x="372" y="156" on="0"/>
      </contour>
      <contour>
        <pt x="712" y="-26" on="1"/>
        <pt x="712" y="-42" on="0"/>
        <pt x="668" y="-101" on="0"/>
        <pt x="630" y="-122" on="0"/>
        <pt x="574" y="-122" on="0"/>
        <pt x="498" y="-61" on="0"/>
        <pt x="461" y="20" on="0"/>
        <pt x="461" y="171" on="0"/>
        <pt x="491" y="426" on="0"/>
        <pt x="495" y="487" on="0"/>
        <pt x="501" y="487" on="1"/>
        <pt x="510" y="487" on="0"/>
        <pt x="511" y="466" on="1"/>
        <pt x="511" y="307" on="1"/>
        <pt x="511" y="43" on="0"/>
        <pt x="554" y="-53" on="1"/>
        <pt x="580" y="-112" on="0"/>
        <pt x="614" y="-112" on="1"/>
        <pt x="659" y="-112" on="0"/>
      </contour>
      <contour>
        <pt x="630" y="673" on="0"/>
        <pt x="602" y="673" on="0"/>
        <pt x="539" y="719" on="0"/>
        <pt x="514" y="741" on="0"/>
        <pt x="497" y="759" on="0"/>
        <pt x="495" y="761" on="1"/>
        <pt x="374" y="677" on="0"/>
        <pt x="361" y="677" on="1"/>
        <pt x="354" y="677" on="0"/>
        <pt x="357" y="687" on="1"/>
        <pt x="359" y="698" on="0"/>
        <pt x="483" y="784" on="0"/>
        <pt x="508" y="797" on="0"/>
        <pt x="521" y="797" on="0"/>
        <pt x="528" y="788" on="1"/>
        <pt x="563" y="743" on="0"/>
        <pt x="623" y="690" on="1"/>
        <pt x="630" y="685" on="0"/>
      </contour>
      <contour>
        <pt x="222" y="122" on="1"/>
        <pt x="199" y="117" on="0"/>
        <pt x="168" y="108" on="1"/>
        <pt x="81" y="-4" on="0"/>
        <pt x="-7" y="-74" on="1"/>
        <pt x="2" y="-86" on="0"/>
        <pt x="20" y="-97" on="1"/>
        <pt x="112" y="-24" on="0"/>
      </contour>
      <contour>
        <pt x="142" y="100" on="1"/>
        <pt x="-20" y="36" on="0"/>
        <pt x="-20" y="-36" on="1"/>
        <pt x="-20" y="-48" on="0"/>
        <pt x="-15" y="-61" on="1"/>
        <pt x="61" y="0" on="0"/>
      </contour>
    </TTGlyph>
    <TTGlyph name="Adieresis" xMin="-190" yMin="-183" xMax="712" yMax="800">
      <contour>
        <pt x="419" y="156" on="1"/>
        <pt x="445" y="157" on="1"/>
        <pt x="450" y="157" on="1"/>
        <pt x="457" y="157" on="0"/>
        <pt x="457" y="154" on="1"/>
        <pt x="457" y="144" on="0"/>
        <pt x="439" y="143" on="1"/>
        <pt x="295" y="133" on="0"/>
        <pt x="269" y="129" on="1"/>
        <pt x="149" y="-21" on="0"/>
        <pt x="36" y="-105" on="1"/>
        <pt x="63" y="-118" on="0"/>
        <pt x="125" y="-129" on="1"/>
        <pt x="134" y="-130" on="0"/>
        <pt x="134" y="-140" on="0"/>
        <pt x="124" y="-140" on="1"/>
        <pt x="84" y="-140" on="0"/>
        <pt x="26" y="-113" on="1"/>
        <pt x="-72" y="-183" on="0"/>
        <pt x="-144" y="-183" on="1"/>
        <pt x="-190" y="-183" on="0"/>
        <pt x="-190" y="-154" on="1"/>
        <pt x="-190" y="-133" on="0"/>
        <pt x="-178" y="-124" on="1"/>
        <pt x="-181" y="-133" on="0"/>
        <pt x="-181" y="-143" on="1"/>
        <pt x="-181" y="-170" on="0"/>
        <pt x="-143" y="-170" on="1"/>
        <pt x="-77" y="-170" on="0"/>
        <pt x="9" y="-105" on="1"/>
        <pt x="-1" y="-100" on="0"/>
        <pt x="-22" y="-86" on="1"/>
        <pt x="-90" y="-135" on="0"/>
        <pt x="-130" y="-135" on="1"/>
        <pt x="-137" y="-135" on="0"/>
        <pt x="-137" y="-131" on="1"/>
        <pt x="-137" y="-124" on="0"/>
        <pt x="-127" y="-123" on="1"/>
        <pt x="-77" y="-106" on="0"/>
        <pt x="-34" y="-75" on="1"/>
        <pt x="-64" y="-46" on="0"/>
        <pt x="-64" y="-15" on="1"/>
        <pt x="-64" y="42" on="0"/>
        <pt x="27" y="88" on="1"/>
        <pt x="87" y="119" on="0"/>
        <pt x="168" y="135" on="1"/>
        <pt x="307" y="318" on="0"/>
        <pt x="381" y="511" on="1"/>
        <pt x="385" y="520" on="0"/>
        <pt x="415" y="619" on="1"/>
        <pt x="416" y="626" on="0"/>
        <pt x="423" y="626" on="1"/>
        <pt x="424" y="625" on="0"/>
        <pt x="424" y="624" on="1"/>
        <pt x="424" y="544" on="0"/>
        <pt x="334" y="373" on="1"/>
        <pt x="268" y="246" on="0"/>
        <pt x="191" y="139" on="1"/>
        <pt x="239" y="144" on="1"/>
        <pt x="305" y="234" on="0"/>
        <pt x="464" y="532" on="0"/>
        <pt x="464" y="606" on="1"/>
        <pt x="464" y="652" on="0"/>
        <pt x="423" y="658" on="1"/>
        <pt x="414" y="660" on="0"/>
        <pt x="414" y="670" on="0"/>
        <pt x="425" y="670" on="1"/>
        <pt x="461" y="670" on="0"/>
        <pt x="482" y="647" on="1"/>
        <pt x="502" y="622" on="0"/>
        <pt x="502" y="586" on="1"/>
        <pt x="502" y="505" on="0"/>
        <pt x="423" y="359" on="1"/>
        <pt x="367" y="258" on="0"/>
        <pt x="284" y="148" on="1"/>
        <pt x="372" y="156" on="0"/>
      </contour>
      <contour>
        <pt x="712" y="-26" on="1"/>
        <pt x="712" y="-42" on="0"/>
        <pt x="668" y="-101" on="0"/>
        <pt x="630" y="-122" on="0"/>
        <pt x="574" y="-122" on="0"/>
        <pt x="498" y="-61" on="0"/>
        <pt x="461" y="20" on="0"/>
        <pt x="461" y="171" on="0"/>
        <pt x="491" y="426" on="0"/>
        <pt x="495" y="487" on="0"/>
        <pt x="501" y="487" on="1"/>
        <pt x="510" y="487" on="0"/>
        <pt x="511" y="466" on="1"/>
        <pt x="511" y="307" on="1"/>
        <pt x="511" y="43" on="0"/>
        <pt x="554" y="-53" on="1"/>
        <pt x="580" y="-112" on="0"/>
        <pt x="614" y="-112" on="1"/>
        <pt x="659" y="-112" on="0"/>
      </contour>
      <contour>
        <pt x="222" y="122" on="1"/>
        <pt x="199" y="117" on="0"/>
        <pt x="168" y="108" on="1"/>
        <pt x="81" y="-4" on="0"/>
        <pt x="-7" y="-74" on="1"/>
        <pt x="2" y="-86" on="0"/>
        <pt x="20" y="-97" on="1"/>
        <pt x="112" y="-24" on="0"/>
      </contour>
      <contour>
        <pt x="142" y="100" on="1"/>
        <pt x="-20" y="36" on="0"/>
        <pt x="-20" y="-36" on="1"/>
        <pt x="-20" y="-48" on="0"/>
        <pt x="-15" y="-61" on="1"/>
        <pt x="61" y="0" on="0"/>
      </contour>
      <contour>
        <pt x="601" y="798" on="1"/>
        <pt x="601" y="797" on="0"/>
        <pt x="586" y="780" on="1"/>
        <pt x="578" y="767" on="0"/>
        <pt x="572" y="747" on="1"/>
        <pt x="562" y="714" on="0"/>
        <pt x="542" y="714" on="1"/>
        <pt x="536" y="714" on="0"/>
        <pt x="528" y="725" on="1"/>
        <pt x="521" y="736" on="0"/>
        <pt x="521" y="762" on="0"/>
        <pt x="539" y="770" on="1"/>
        <pt x="546" y="777" on="0"/>
        <pt x="590" y="800" on="0"/>
        <pt x="600" y="800" on="0"/>
        <pt x="601" y="799" on="1"/>
      </contour>
      <contour>
        <pt x="467" y="798" on="1"/>
        <pt x="467" y="797" on="0"/>
        <pt x="452" y="780" on="1"/>
        <pt x="444" y="767" on="0"/>
        <pt x="438" y="747" on="1"/>
        <pt x="428" y="714" on="0"/>
        <pt x="408" y="714" on="1"/>
        <pt x="402" y="714" on="0"/>
        <pt x="394" y="725" on="1"/>
        <pt x="387" y="736" on="0"/>
        <pt x="387" y="762" on="0"/>
        <pt x="405" y="770" on="1"/>
        <pt x="412" y="777" on="0"/>
        <pt x="456" y="800" on="0"/>
        <pt x="466" y="800" on="0"/>
        <pt x="467" y="799" on="1"/>
      </contour>
    </TTGlyph>
    <TTGlyph name="Agrave" xMin="-190" yMin="-183" xMax="712" yMax="800">
      <contour>
        <pt x="419" y="156" on="1"/>
        <pt x="445" y="157" on="1"/>
        <pt x="450" y="157" on="1"/>
        <pt x="457" y="157" on="0"/>
        <pt x="457" y="154" on="1"/>
        <pt x="457" y="144" on="0"/>
        <pt x="439" y="143" on="1"/>
        <pt x="295" y="133" on="0"/>
        <pt x="269" y="129" on="1"/>
        <pt x="149" y="-21" on="0"/>
        <pt x="36" y="-105" on="1"/>
        <pt x="63" y="-118" on="0"/>
        <pt x="125" y="-129" on="1"/>
        <pt x="134" y="-130" on="0"/>
        <pt x="134" y="-140" on="0"/>
        <pt x="124" y="-140" on="1"/>
        <pt x="84" y="-140" on="0"/>
        <pt x="26" y="-113" on="1"/>
        <pt x="-72" y="-183" on="0"/>
        <pt x="-144" y="-183" on="1"/>
        <pt x="-190" y="-183" on="0"/>
        <pt x="-190" y="-154" on="1"/>
        <pt x="-190" y="-133" on="0"/>
        <pt x="-178" y="-124" on="1"/>
        <pt x="-181" y="-133" on="0"/>
        <pt x="-181" y="-143" on="1"/>
        <pt x="-181" y="-170" on="0"/>
        <pt x="-143" y="-170" on="1"/>
        <pt x="-77" y="-170" on="0"/>
        <pt x="9" y="-105" on="1"/>
        <pt x="-1" y="-100" on="0"/>
        <pt x="-22" y="-86" on="1"/>
        <pt x="-90" y="-135" on="0"/>
        <pt x="-130" y="-135" on="1"/>
        <pt x="-137" y="-135" on="0"/>
        <pt x="-137" y="-131" on="1"/>
        <pt x="-137" y="-124" on="0"/>
        <pt x="-127" y="-123" on="1"/>
        <pt x="-77" y="-106" on="0"/>
        <pt x="-34" y="-75" on="1"/>
        <pt x="-64" y="-46" on="0"/>
        <pt x="-64" y="-15" on="1"/>
        <pt x="-64" y="42" on="0"/>
        <pt x="27" y="88" on="1"/>
        <pt x="87" y="119" on="0"/>
        <pt x="168" y="135" on="1"/>
        <pt x="307" y="318" on="0"/>
        <pt x="381" y="511" on="1"/>
        <pt x="385" y="520" on="0"/>
        <pt x="415" y="619" on="1"/>
        <pt x="416" y="626" on="0"/>
        <pt x="423" y="626" on="1"/>
        <pt x="424" y="625" on="0"/>
        <pt x="424" y="624" on="1"/>
        <pt x="424" y="544" on="0"/>
        <pt x="334" y="373" on="1"/>
        <pt x="268" y="246" on="0"/>
        <pt x="191" y="139" on="1"/>
        <pt x="239" y="144" on="1"/>
        <pt x="305" y="234" on="0"/>
        <pt x="464" y="532" on="0"/>
        <pt x="464" y="606" on="1"/>
        <pt x="464" y="652" on="0"/>
        <pt x="423" y="658" on="1"/>
        <pt x="414" y="660" on="0"/>
        <pt x="414" y="670" on="0"/>
        <pt x="425" y="670" on="1"/>
        <pt x="461" y="670" on="0"/>
        <pt x="482" y="647" on="1"/>
        <pt x="502" y="622" on="0"/>
        <pt x="502" y="586" on="1"/>
        <pt x="502" y="505" on="0"/>
        <pt x="423" y="359" on="1"/>
        <pt x="367" y="258" on="0"/>
        <pt x="284" y="148" on="1"/>
        <pt x="372" y="156" on="0"/>
      </contour>
      <contour>
        <pt x="712" y="-26" on="1"/>
        <pt x="712" y="-42" on="0"/>
        <pt x="668" y="-101" on="0"/>
        <pt x="630" y="-122" on="0"/>
        <pt x="574" y="-122" on="0"/>
        <pt x="498" y="-61" on="0"/>
        <pt x="461" y="20" on="0"/>
        <pt x="461" y="171" on="0"/>
        <pt x="491" y="426" on="0"/>
        <pt x="495" y="487" on="0"/>
        <pt x="501" y="487" on="1"/>
        <pt x="510" y="487" on="0"/>
        <pt x="511" y="466" on="1"/>
        <pt x="511" y="307" on="1"/>
        <pt x="511" y="43" on="0"/>
        <pt x="554" y="-53" on="1"/>
        <pt x="580" y="-112" on="0"/>
        <pt x="614" y="-112" on="1"/>
        <pt x="659" y="-112" on="0"/>
      </contour>
      <contour>
        <pt x="222" y="122" on="1"/>
        <pt x="199" y="117" on="0"/>
        <pt x="168" y="108" on="1"/>
        <pt x="81" y="-4" on="0"/>
        <pt x="-7" y="-74" on="1"/>
        <pt x="2" y="-86" on="0"/>
        <pt x="20" y="-97" on="1"/>
        <pt x="112" y="-24" on="0"/>
      </contour>
      <contour>
        <pt x="142" y="100" on="1"/>
        <pt x="-20" y="36" on="0"/>
        <pt x="-20" y="-36" on="1"/>
        <pt x="-20" y="-48" on="0"/>
        <pt x="-15" y="-61" on="1"/>
        <pt x="61" y="0" on="0"/>
      </contour>
      <contour>
        <pt x="563" y="694" on="1"/>
        <pt x="577" y="683" on="0"/>
        <pt x="577" y="674" on="0"/>
        <pt x="575" y="674" on="1"/>
        <pt x="565" y="674" on="0"/>
        <pt x="521" y="702" on="1"/>
        <pt x="463" y="739" on="0"/>
        <pt x="453" y="744" on="1"/>
        <pt x="419" y="763" on="0"/>
        <pt x="419" y="776" on="1"/>
        <pt x="419" y="785" on="0"/>
        <pt x="440" y="800" on="0"/>
        <pt x="448" y="800" on="1"/>
        <pt x="472" y="800" on="0"/>
        <pt x="476" y="784" on="1"/>
        <pt x="484" y="758" on="0"/>
        <pt x="512" y="733" on="1"/>
        <pt x="516" y="728" on="0"/>
      </contour>
    </TTGlyph>
    <TTGlyph name="Aring" xMin="-190" yMin="-183" xMax="712" yMax="796">
      <contour>
        <pt x="419" y="156" on="1"/>
        <pt x="445" y="157" on="1"/>
        <pt x="450" y="157" on="1"/>
        <pt x="457" y="157" on="0"/>
        <pt x="457" y="154" on="1"/>
        <pt x="457" y="144" on="0"/>
        <pt x="439" y="143" on="1"/>
        <pt x="295" y="133" on="0"/>
        <pt x="269" y="129" on="1"/>
        <pt x="149" y="-21" on="0"/>
        <pt x="36" y="-105" on="1"/>
        <pt x="63" y="-118" on="0"/>
        <pt x="125" y="-129" on="1"/>
        <pt x="134" y="-130" on="0"/>
        <pt x="134" y="-140" on="0"/>
        <pt x="124" y="-140" on="1"/>
        <pt x="84" y="-140" on="0"/>
        <pt x="26" y="-113" on="1"/>
        <pt x="-72" y="-183" on="0"/>
        <pt x="-144" y="-183" on="1"/>
        <pt x="-190" y="-183" on="0"/>
        <pt x="-190" y="-154" on="1"/>
        <pt x="-190" y="-133" on="0"/>
        <pt x="-178" y="-124" on="1"/>
        <pt x="-181" y="-133" on="0"/>
        <pt x="-181" y="-143" on="1"/>
        <pt x="-181" y="-170" on="0"/>
        <pt x="-143" y="-170" on="1"/>
        <pt x="-77" y="-170" on="0"/>
        <pt x="9" y="-105" on="1"/>
        <pt x="-1" y="-100" on="0"/>
        <pt x="-22" y="-86" on="1"/>
        <pt x="-90" y="-135" on="0"/>
        <pt x="-130" y="-135" on="1"/>
        <pt x="-137" y="-135" on="0"/>
        <pt x="-137" y="-131" on="1"/>
        <pt x="-137" y="-124" on="0"/>
        <pt x="-127" y="-123" on="1"/>
        <pt x="-77" y="-106" on="0"/>
        <pt x="-34" y="-75" on="1"/>
        <pt x="-64" y="-46" on="0"/>
        <pt x="-64" y="-15" on="1"/>
        <pt x="-64" y="42" on="0"/>
        <pt x="27" y="88" on="1"/>
        <pt x="87" y="119" on="0"/>
        <pt x="168" y="135" on="1"/>
        <pt x="307" y="318" on="0"/>
        <pt x="381" y="511" on="1"/>
        <pt x="385" y="520" on="0"/>
        <pt x="415" y="619" on="1"/>
        <pt x="416" y="626" on="0"/>
        <pt x="423" y="626" on="1"/>
        <pt x="424" y="625" on="0"/>
        <pt x="424" y="624" on="1"/>
        <pt x="424" y="544" on="0"/>
        <pt x="334" y="373" on="1"/>
        <pt x="268" y="246" on="0"/>
        <pt x="191" y="139" on="1"/>
        <pt x="239" y="144" on="1"/>
        <pt x="305" y="234" on="0"/>
        <pt x="464" y="532" on="0"/>
        <pt x="464" y="606" on="1"/>
        <pt x="464" y="652" on="0"/>
        <pt x="423" y="658" on="1"/>
        <pt x="414" y="660" on="0"/>
        <pt x="414" y="670" on="0"/>
        <pt x="445" y="670" on="0"/>
        <pt x="459" y="663" on="1"/>
        <pt x="453" y="672" on="0"/>
        <pt x="453" y="710" on="0"/>
        <pt x="475" y="758" on="0"/>
        <pt x="492" y="763" on="1"/>
        <pt x="508" y="796" on="0"/>
        <pt x="543" y="796" on="1"/>
        <pt x="562" y="796" on="0"/>
        <pt x="586" y="764" on="0"/>
        <pt x="586" y="744" on="1"/>
        <pt x="586" y="707" on="0"/>
        <pt x="530" y="649" on="0"/>
        <pt x="494" y="649" on="1"/>
        <pt x="483" y="649" on="0"/>
        <pt x="479" y="650" on="1"/>
        <pt x="502" y="627" on="0"/>
        <pt x="502" y="586" on="1"/>
        <pt x="502" y="505" on="0"/>
        <pt x="423" y="359" on="1"/>
        <pt x="367" y="258" on="0"/>
        <pt x="284" y="148" on="1"/>
        <pt x="372" y="156" on="0"/>
      </contour>
      <contour>
        <pt x="712" y="-26" on="1"/>
        <pt x="712" y="-42" on="0"/>
        <pt x="668" y="-101" on="0"/>
        <pt x="630" y="-122" on="0"/>
        <pt x="574" y="-122" on="0"/>
        <pt x="498" y="-61" on="0"/>
        <pt x="461" y="20" on="0"/>
        <pt x="461" y="171" on="0"/>
        <pt x="491" y="426" on="0"/>
        <pt x="495" y="487" on="0"/>
        <pt x="501" y="487" on="1"/>
        <pt x="510" y="487" on="0"/>
        <pt x="511" y="466" on="1"/>
        <pt x="511" y="307" on="1"/>
        <pt x="511" y="43" on="0"/>
        <pt x="554" y="-53" on="1"/>
        <pt x="580" y="-112" on="0"/>
        <pt x="614" y="-112" on="1"/>
        <pt x="659" y="-112" on="0"/>
      </contour>
      <contour>
        <pt x="222" y="122" on="1"/>
        <pt x="199" y="117" on="0"/>
        <pt x="168" y="108" on="1"/>
        <pt x="81" y="-4" on="0"/>
        <pt x="-7" y="-74" on="1"/>
        <pt x="2" y="-86" on="0"/>
        <pt x="20" y="-97" on="1"/>
        <pt x="112" y="-24" on="0"/>
      </contour>
      <contour>
        <pt x="142" y="100" on="1"/>
        <pt x="-20" y="36" on="0"/>
        <pt x="-20" y="-36" on="1"/>
        <pt x="-20" y="-48" on="0"/>
        <pt x="-15" y="-61" on="1"/>
        <pt x="61" y="0" on="0"/>
      </contour>
      <contour>
        <pt x="505" y="668" on="1"/>
        <pt x="528" y="668" on="0"/>
        <pt x="562" y="718" on="0"/>
        <pt x="562" y="777" on="0"/>
        <pt x="540" y="777" on="1"/>
        <pt x="528" y="777" on="0"/>
        <pt x="511" y="764" on="1"/>
        <pt x="522" y="759" on="1"/>
        <pt x="520" y="754" on="0"/>
        <pt x="490" y="708" on="0"/>
        <pt x="490" y="668" on="0"/>
      </contour>
    </TTGlyph>
    <TTGlyph name="Atilde" xMin="-190" yMin="-183" xMax="712" yMax="800">
      <contour>
        <pt x="419" y="156" on="1"/>
        <pt x="445" y="157" on="1"/>
        <pt x="450" y="157" on="1"/>
        <pt x="457" y="157" on="0"/>
        <pt x="457" y="154" on="1"/>
        <pt x="457" y="144" on="0"/>
        <pt x="439" y="143" on="1"/>
        <pt x="295" y="133" on="0"/>
        <pt x="269" y="129" on="1"/>
        <pt x="149" y="-21" on="0"/>
        <pt x="36" y="-105" on="1"/>
        <pt x="63" y="-118" on="0"/>
        <pt x="125" y="-129" on="1"/>
        <pt x="134" y="-130" on="0"/>
        <pt x="134" y="-140" on="0"/>
        <pt x="124" y="-140" on="1"/>
        <pt x="84" y="-140" on="0"/>
        <pt x="26" y="-113" on="1"/>
        <pt x="-72" y="-183" on="0"/>
        <pt x="-144" y="-183" on="1"/>
        <pt x="-190" y="-183" on="0"/>
        <pt x="-190" y="-154" on="1"/>
        <pt x="-190" y="-133" on="0"/>
        <pt x="-178" y="-124" on="1"/>
        <pt x="-181" y="-133" on="0"/>
        <pt x="-181" y="-143" on="1"/>
        <pt x="-181" y="-170" on="0"/>
        <pt x="-143" y="-170" on="1"/>
        <pt x="-77" y="-170" on="0"/>
        <pt x="9" y="-105" on="1"/>
        <pt x="-1" y="-100" on="0"/>
        <pt x="-22" y="-86" on="1"/>
        <pt x="-90" y="-135" on="0"/>
        <pt x="-130" y="-135" on="1"/>
        <pt x="-137" y="-135" on="0"/>
        <pt x="-137" y="-131" on="1"/>
        <pt x="-137" y="-124" on="0"/>
        <pt x="-127" y="-123" on="1"/>
        <pt x="-77" y="-106" on="0"/>
        <pt x="-34" y="-75" on="1"/>
        <pt x="-64" y="-46" on="0"/>
        <pt x="-64" y="-15" on="1"/>
        <pt x="-64" y="42" on="0"/>
        <pt x="27" y="88" on="1"/>
        <pt x="87" y="119" on="0"/>
        <pt x="168" y="135" on="1"/>
        <pt x="307" y="318" on="0"/>
        <pt x="381" y="511" on="1"/>
        <pt x="385" y="520" on="0"/>
        <pt x="415" y="619" on="1"/>
        <pt x="416" y="626" on="0"/>
        <pt x="423" y="626" on="1"/>
        <pt x="424" y="625" on="0"/>
        <pt x="424" y="624" on="1"/>
        <pt x="424" y="544" on="0"/>
        <pt x="334" y="373" on="1"/>
        <pt x="268" y="246" on="0"/>
        <pt x="191" y="139" on="1"/>
        <pt x="239" y="144" on="1"/>
        <pt x="305" y="234" on="0"/>
        <pt x="464" y="532" on="0"/>
        <pt x="464" y="606" on="1"/>
        <pt x="464" y="652" on="0"/>
        <pt x="423" y="658" on="1"/>
        <pt x="414" y="660" on="0"/>
        <pt x="414" y="670" on="0"/>
        <pt x="425" y="670" on="1"/>
        <pt x="461" y="670" on="0"/>
        <pt x="482" y="647" on="1"/>
        <pt x="502" y="622" on="0"/>
        <pt x="502" y="586" on="1"/>
        <pt x="502" y="505" on="0"/>
        <pt x="423" y="359" on="1"/>
        <pt x="367" y="258" on="0"/>
        <pt x="284" y="148" on="1"/>
        <pt x="372" y="156" on="0"/>
      </contour>
      <contour>
        <pt x="712" y="-26" on="1"/>
        <pt x="712" y="-42" on="0"/>
        <pt x="668" y="-101" on="0"/>
        <pt x="630" y="-122" on="0"/>
        <pt x="574" y="-122" on="0"/>
        <pt x="498" y="-61" on="0"/>
        <pt x="461" y="20" on="0"/>
        <pt x="461" y="171" on="0"/>
        <pt x="491" y="426" on="0"/>
        <pt x="495" y="487" on="0"/>
        <pt x="501" y="487" on="1"/>
        <pt x="510" y="487" on="0"/>
        <pt x="511" y="466" on="1"/>
        <pt x="511" y="307" on="1"/>
        <pt x="511" y="43" on="0"/>
        <pt x="554" y="-53" on="1"/>
        <pt x="580" y="-112" on="0"/>
        <pt x="614" y="-112" on="1"/>
        <pt x="659" y="-112" on="0"/>
      </contour>
      <contour>
        <pt x="222" y="122" on="1"/>
        <pt x="199" y="117" on="0"/>
        <pt x="168" y="108" on="1"/>
        <pt x="81" y="-4" on="0"/>
        <pt x="-7" y="-74" on="1"/>
        <pt x="2" y="-86" on="0"/>
        <pt x="20" y="-97" on="1"/>
        <pt x="112" y="-24" on="0"/>
      </contour>
      <contour>
        <pt x="615" y="785" on="1"/>
        <pt x="615" y="768" on="0"/>
        <pt x="574" y="734" on="0"/>
        <pt x="517" y="734" on="0"/>
        <pt x="475" y="752" on="0"/>
        <pt x="457" y="760" on="1"/>
        <pt x="424" y="776" on="0"/>
        <pt x="414" y="776" on="1"/>
        <pt x="382" y="776" on="0"/>
        <pt x="364" y="749" on="1"/>
        <pt x="360" y="744" on="0"/>
        <pt x="354" y="749" on="0"/>
        <pt x="354" y="753" on="1"/>
        <pt x="354" y="774" on="0"/>
        <pt x="390" y="800" on="0"/>
        <pt x="448" y="800" on="0"/>
        <pt x="492" y="782" on="0"/>
        <pt x="519" y="770" on="0"/>
        <pt x="525" y="768" on="1"/>
        <pt x="543" y="760" on="0"/>
        <pt x="556" y="760" on="1"/>
        <pt x="581" y="760" on="0"/>
        <pt x="608" y="787" on="1"/>
        <pt x="610" y="790" on="0"/>
        <pt x="615" y="787" on="0"/>
      </contour>
      <contour>
        <pt x="142" y="100" on="1"/>
        <pt x="-20" y="36" on="0"/>
        <pt x="-20" y="-36" on="1"/>
        <pt x="-20" y="-48" on="0"/>
        <pt x="-15" y="-61" on="1"/>
        <pt x="61" y="0" on="0"/>
      </contour>
    </TTGlyph>
    <TTGlyph name="B" xMin="1" yMin="-111" xMax="823" yMax="687">
      <contour>
        <pt x="445" y="625" on="1"/>
        <pt x="443" y="680" on="1"/>
        <pt x="443" y="687" on="0"/>
        <pt x="447" y="687" on="1"/>
        <pt x="448" y="687" on="0"/>
        <pt x="450" y="682" on="1"/>
        <pt x="456" y="647" on="0"/>
        <pt x="456" y="585" on="0"/>
        <pt x="456" y="572" on="1"/>
        <pt x="488" y="574" on="0"/>
        <pt x="496" y="574" on="1"/>
        <pt x="548" y="574" on="0"/>
        <pt x="622" y="558" on="1"/>
        <pt x="678" y="611" on="0"/>
        <pt x="740" y="611" on="1"/>
        <pt x="774" y="611" on="0"/>
        <pt x="823" y="562" on="0"/>
        <pt x="823" y="526" on="1"/>
        <pt x="823" y="513" on="0"/>
        <pt x="818" y="513" on="1"/>
        <pt x="816" y="513" on="0"/>
        <pt x="811" y="540" on="1"/>
        <pt x="805" y="582" on="0"/>
        <pt x="750" y="582" on="1"/>
        <pt x="710" y="582" on="0"/>
        <pt x="667" y="546" on="1"/>
        <pt x="725" y="528" on="0"/>
        <pt x="768" y="495" on="1"/>
        <pt x="820" y="453" on="0"/>
        <pt x="820" y="401" on="1"/>
        <pt x="820" y="337" on="0"/>
        <pt x="746" y="299" on="1"/>
        <pt x="690" y="270" on="0"/>
        <pt x="617" y="266" on="1"/>
        <pt x="813" y="175" on="0"/>
        <pt x="813" y="50" on="1"/>
        <pt x="813" y="-9" on="0"/>
        <pt x="715" y="-88" on="0"/>
        <pt x="655" y="-88" on="1"/>
        <pt x="562" y="-88" on="0"/>
        <pt x="493" y="-66" on="1"/>
        <pt x="343" y="-4" on="1"/>
        <pt x="290" y="-68" on="0"/>
        <pt x="242" y="-88" on="1"/>
        <pt x="195" y="-111" on="0"/>
        <pt x="110" y="-111" on="1"/>
        <pt x="73" y="-111" on="0"/>
        <pt x="39" y="-86" on="1"/>
        <pt x="1" y="-60" on="0"/>
        <pt x="1" y="20" on="0"/>
        <pt x="83" y="62" on="0"/>
        <pt x="189" y="62" on="0"/>
        <pt x="258" y="41" on="1"/>
        <pt x="334" y="128" on="0"/>
        <pt x="387" y="284" on="1"/>
        <pt x="431" y="419" on="0"/>
        <pt x="442" y="556" on="1"/>
        <pt x="262" y="543" on="0"/>
        <pt x="165" y="443" on="1"/>
        <pt x="127" y="402" on="0"/>
        <pt x="127" y="356" on="1"/>
        <pt x="127" y="280" on="0"/>
        <pt x="211" y="245" on="1"/>
        <pt x="222" y="239" on="0"/>
        <pt x="256" y="232" on="0"/>
        <pt x="256" y="229" on="1"/>
        <pt x="256" y="224" on="0"/>
        <pt x="250" y="224" on="1"/>
        <pt x="247" y="225" on="1"/>
        <pt x="189" y="229" on="0"/>
        <pt x="81" y="321" on="0"/>
        <pt x="81" y="378" on="1"/>
        <pt x="81" y="421" on="0"/>
        <pt x="116" y="456" on="1"/>
        <pt x="220" y="563" on="0"/>
        <pt x="443" y="572" on="1"/>
        <pt x="445" y="608" on="0"/>
      </contour>
      <contour>
        <pt x="776" y="19" on="1"/>
        <pt x="776" y="137" on="0"/>
        <pt x="617" y="213" on="1"/>
        <pt x="560" y="237" on="1"/>
        <pt x="558" y="239" on="0"/>
        <pt x="558" y="247" on="1"/>
        <pt x="558" y="273" on="0"/>
        <pt x="585" y="279" on="1"/>
        <pt x="604" y="279" on="1"/>
        <pt x="617" y="279" on="0"/>
        <pt x="637" y="283" on="1"/>
        <pt x="693" y="294" on="0"/>
        <pt x="729" y="321" on="1"/>
        <pt x="772" y="356" on="0"/>
        <pt x="772" y="452" on="0"/>
        <pt x="705" y="518" on="0"/>
        <pt x="655" y="535" on="1"/>
        <pt x="595" y="481" on="0"/>
        <pt x="545" y="376" on="1"/>
        <pt x="515" y="312" on="0"/>
        <pt x="405" y="67" on="0"/>
        <pt x="354" y="9" on="1"/>
        <pt x="445" y="-25" on="0"/>
        <pt x="577" y="-68" on="0"/>
        <pt x="648" y="-68" on="1"/>
        <pt x="776" y="-68" on="0"/>
      </contour>
      <contour>
        <pt x="611" y="546" on="1"/>
        <pt x="551" y="558" on="0"/>
        <pt x="466" y="558" on="0"/>
        <pt x="455" y="557" on="1"/>
        <pt x="447" y="418" on="0"/>
        <pt x="404" y="282" on="1"/>
        <pt x="352" y="124" on="0"/>
        <pt x="276" y="35" on="1"/>
        <pt x="314" y="22" on="1"/>
        <pt x="353" y="64" on="0"/>
        <pt x="443" y="257" on="0"/>
        <pt x="495" y="367" on="1"/>
        <pt x="553" y="485" on="0"/>
      </contour>
      <contour>
        <pt x="121" y="-52" on="1"/>
        <pt x="102" y="-52" on="0"/>
        <pt x="102" y="-45" on="1"/>
        <pt x="102" y="-40" on="0"/>
        <pt x="119" y="-40" on="1"/>
        <pt x="185" y="-40" on="0"/>
        <pt x="251" y="31" on="1"/>
        <pt x="188" y="53" on="0"/>
        <pt x="90" y="53" on="0"/>
        <pt x="18" y="22" on="0"/>
        <pt x="18" y="-48" on="0"/>
        <pt x="51" y="-69" on="1"/>
        <pt x="80" y="-89" on="0"/>
        <pt x="167" y="-89" on="0"/>
        <pt x="280" y="-30" on="0"/>
        <pt x="306" y="9" on="1"/>
        <pt x="268" y="26" on="1"/>
        <pt x="199" y="-52" on="0"/>
      </contour>
    </TTGlyph>
    <TTGlyph name="C" xMin="10" yMin="-208" xMax="713" yMax="708">
      <contour>
        <pt x="430" y="642" on="1"/>
        <pt x="428" y="700" on="1"/>
        <pt x="428" y="708" on="0"/>
        <pt x="433" y="708" on="1"/>
        <pt x="435" y="708" on="0"/>
        <pt x="445" y="674" on="0"/>
        <pt x="445" y="600" on="0"/>
        <pt x="444" y="586" on="1"/>
        <pt x="484" y="594" on="0"/>
        <pt x="516" y="594" on="1"/>
        <pt x="606" y="594" on="0"/>
        <pt x="656" y="547" on="1"/>
        <pt x="712" y="497" on="0"/>
        <pt x="712" y="412" on="1"/>
        <pt x="712" y="408" on="1"/>
        <pt x="712" y="391" on="0"/>
        <pt x="698" y="391" on="1"/>
        <pt x="690" y="391" on="0"/>
        <pt x="680" y="397" on="1"/>
        <pt x="612" y="438" on="0"/>
        <pt x="498" y="499" on="0"/>
        <pt x="438" y="518" on="1"/>
        <pt x="422" y="379" on="0"/>
        <pt x="384" y="226" on="1"/>
        <pt x="338" y="53" on="0"/>
        <pt x="287" y="-54" on="1"/>
        <pt x="295" y="-55" on="0"/>
        <pt x="313" y="-55" on="1"/>
        <pt x="422" y="-55" on="0"/>
        <pt x="646" y="58" on="0"/>
        <pt x="703" y="147" on="1"/>
        <pt x="712" y="159" on="1"/>
        <pt x="713" y="158" on="0"/>
        <pt x="713" y="148" on="0"/>
        <pt x="710" y="142" on="1"/>
        <pt x="652" y="42" on="0"/>
        <pt x="518" y="-27" on="1"/>
        <pt x="391" y="-90" on="0"/>
        <pt x="268" y="-92" on="1"/>
        <pt x="203" y="-208" on="0"/>
        <pt x="147" y="-208" on="1"/>
        <pt x="138" y="-208" on="0"/>
        <pt x="138" y="-196" on="0"/>
        <pt x="144" y="-195" on="1"/>
        <pt x="163" y="-191" on="1"/>
        <pt x="209" y="-175" on="0"/>
        <pt x="257" y="-92" on="1"/>
        <pt x="154" y="-89" on="0"/>
        <pt x="34" y="19" on="0"/>
        <pt x="34" y="240" on="0"/>
        <pt x="206" y="485" on="0"/>
        <pt x="320" y="543" on="1"/>
        <pt x="293" y="546" on="0"/>
        <pt x="238" y="546" on="0"/>
        <pt x="141" y="523" on="0"/>
        <pt x="102" y="500" on="1"/>
        <pt x="44" y="466" on="0"/>
        <pt x="44" y="424" on="1"/>
        <pt x="44" y="419" on="0"/>
        <pt x="45" y="416" on="1"/>
        <pt x="45" y="408" on="1"/>
        <pt x="45" y="395" on="0"/>
        <pt x="36" y="395" on="1"/>
        <pt x="24" y="395" on="0"/>
        <pt x="18" y="411" on="1"/>
        <pt x="10" y="429" on="0"/>
        <pt x="10" y="441" on="1"/>
        <pt x="10" y="500" on="0"/>
        <pt x="116" y="532" on="1"/>
        <pt x="194" y="555" on="0"/>
        <pt x="271" y="555" on="1"/>
        <pt x="292" y="555" on="0"/>
        <pt x="334" y="550" on="1"/>
        <pt x="390" y="574" on="0"/>
        <pt x="429" y="583" on="1"/>
        <pt x="430" y="604" on="0"/>
      </contour>
      <contour>
        <pt x="89" y="150" on="1"/>
        <pt x="89" y="60" on="0"/>
        <pt x="139" y="9" on="1"/>
        <pt x="189" y="-46" on="0"/>
        <pt x="277" y="-53" on="1"/>
        <pt x="332" y="59" on="0"/>
        <pt x="410" y="375" on="0"/>
        <pt x="425" y="522" on="1"/>
        <pt x="386" y="533" on="0"/>
        <pt x="339" y="541" on="1"/>
        <pt x="230" y="489" on="0"/>
        <pt x="161" y="380" on="1"/>
        <pt x="89" y="269" on="0"/>
      </contour>
      <contour>
        <pt x="673" y="446" on="1"/>
        <pt x="680" y="446" on="0"/>
        <pt x="680" y="466" on="0"/>
        <pt x="674" y="480" on="1"/>
        <pt x="648" y="525" on="0"/>
        <pt x="536" y="569" on="0"/>
        <pt x="478" y="569" on="1"/>
        <pt x="466" y="569" on="0"/>
        <pt x="442" y="567" on="1"/>
        <pt x="439" y="533" on="1"/>
        <pt x="555" y="509" on="0"/>
        <pt x="660" y="451" on="1"/>
        <pt x="670" y="446" on="0"/>
      </contour>
      <contour>
        <pt x="427" y="566" on="1"/>
        <pt x="385" y="559" on="0"/>
        <pt x="355" y="547" on="1"/>
        <pt x="424" y="536" on="0"/>
        <pt x="426" y="536" on="1"/>
        <pt x="427" y="546" on="0"/>
      </contour>
    </TTGlyph>
    <TTGlyph name="Ccedilla" xMin="10" yMin="-365" xMax="713" yMax="708">
      <contour>
        <pt x="430" y="642" on="1"/>
        <pt x="428" y="700" on="1"/>
        <pt x="428" y="708" on="0"/>
        <pt x="433" y="708" on="1"/>
        <pt x="435" y="708" on="0"/>
        <pt x="445" y="674" on="0"/>
        <pt x="445" y="600" on="0"/>
        <pt x="444" y="586" on="1"/>
        <pt x="484" y="594" on="0"/>
        <pt x="516" y="594" on="1"/>
        <pt x="606" y="594" on="0"/>
        <pt x="656" y="547" on="1"/>
        <pt x="712" y="497" on="0"/>
        <pt x="712" y="412" on="1"/>
        <pt x="712" y="408" on="1"/>
        <pt x="712" y="391" on="0"/>
        <pt x="698" y="391" on="1"/>
        <pt x="690" y="391" on="0"/>
        <pt x="680" y="397" on="1"/>
        <pt x="612" y="438" on="0"/>
        <pt x="498" y="499" on="0"/>
        <pt x="438" y="518" on="1"/>
        <pt x="422" y="379" on="0"/>
        <pt x="384" y="226" on="1"/>
        <pt x="338" y="53" on="0"/>
        <pt x="287" y="-54" on="1"/>
        <pt x="295" y="-55" on="0"/>
        <pt x="313" y="-55" on="1"/>
        <pt x="422" y="-55" on="0"/>
        <pt x="646" y="58" on="0"/>
        <pt x="703" y="147" on="1"/>
        <pt x="712" y="159" on="1"/>
        <pt x="713" y="158" on="0"/>
        <pt x="713" y="148" on="0"/>
        <pt x="710" y="142" on="1"/>
        <pt x="652" y="42" on="0"/>
        <pt x="518" y="-27" on="1"/>
        <pt x="399" y="-85" on="0"/>
        <pt x="287" y="-91" on="1"/>
        <pt x="247" y="-104" on="0"/>
        <pt x="247" y="-153" on="1"/>
        <pt x="247" y="-164" on="0"/>
        <pt x="305" y="-239" on="0"/>
        <pt x="305" y="-266" on="1"/>
        <pt x="305" y="-313" on="0"/>
        <pt x="208" y="-365" on="0"/>
        <pt x="156" y="-365" on="1"/>
        <pt x="147" y="-365" on="0"/>
        <pt x="147" y="-354" on="1"/>
        <pt x="147" y="-349" on="0"/>
        <pt x="156" y="-346" on="1"/>
        <pt x="204" y="-338" on="0"/>
        <pt x="228" y="-335" on="1"/>
        <pt x="263" y="-324" on="0"/>
        <pt x="263" y="-277" on="1"/>
        <pt x="263" y="-264" on="0"/>
        <pt x="212" y="-192" on="0"/>
        <pt x="211" y="-173" on="1"/>
        <pt x="178" y="-208" on="0"/>
        <pt x="147" y="-208" on="1"/>
        <pt x="138" y="-208" on="0"/>
        <pt x="138" y="-196" on="0"/>
        <pt x="144" y="-195" on="1"/>
        <pt x="163" y="-191" on="1"/>
        <pt x="186" y="-182" on="0"/>
        <pt x="211" y="-156" on="1"/>
        <pt x="214" y="-129" on="0"/>
        <pt x="230" y="-110" on="1"/>
        <pt x="238" y="-98" on="0"/>
        <pt x="248" y="-92" on="1"/>
        <pt x="153" y="-88" on="0"/>
        <pt x="34" y="19" on="0"/>
        <pt x="34" y="240" on="0"/>
        <pt x="206" y="485" on="0"/>
        <pt x="320" y="543" on="1"/>
        <pt x="293" y="546" on="0"/>
        <pt x="238" y="546" on="0"/>
        <pt x="141" y="523" on="0"/>
        <pt x="102" y="500" on="1"/>
        <pt x="44" y="466" on="0"/>
        <pt x="44" y="424" on="1"/>
        <pt x="44" y="419" on="0"/>
        <pt x="45" y="416" on="1"/>
        <pt x="45" y="408" on="1"/>
        <pt x="45" y="395" on="0"/>
        <pt x="36" y="395" on="1"/>
        <pt x="24" y="395" on="0"/>
        <pt x="18" y="411" on="1"/>
        <pt x="10" y="429" on="0"/>
        <pt x="10" y="441" on="1"/>
        <pt x="10" y="500" on="0"/>
        <pt x="116" y="532" on="1"/>
        <pt x="194" y="555" on="0"/>
        <pt x="271" y="555" on="1"/>
        <pt x="292" y="555" on="0"/>
        <pt x="334" y="550" on="1"/>
        <pt x="390" y="574" on="0"/>
        <pt x="429" y="583" on="1"/>
        <pt x="430" y="604" on="0"/>
      </contour>
      <contour>
        <pt x="89" y="150" on="1"/>
        <pt x="89" y="60" on="0"/>
        <pt x="139" y="9" on="1"/>
        <pt x="189" y="-46" on="0"/>
        <pt x="277" y="-53" on="1"/>
        <pt x="332" y="59" on="0"/>
        <pt x="410" y="375" on="0"/>
        <pt x="425" y="522" on="1"/>
        <pt x="386" y="533" on="0"/>
        <pt x="339" y="541" on="1"/>
        <pt x="230" y="489" on="0"/>
        <pt x="161" y="380" on="1"/>
        <pt x="89" y="269" on="0"/>
      </contour>
      <contour>
        <pt x="673" y="446" on="1"/>
        <pt x="680" y="446" on="0"/>
        <pt x="680" y="466" on="0"/>
        <pt x="674" y="480" on="1"/>
        <pt x="648" y="525" on="0"/>
        <pt x="536" y="569" on="0"/>
        <pt x="478" y="569" on="1"/>
        <pt x="466" y="569" on="0"/>
        <pt x="442" y="567" on="1"/>
        <pt x="439" y="533" on="1"/>
        <pt x="555" y="509" on="0"/>
        <pt x="660" y="451" on="1"/>
        <pt x="670" y="446" on="0"/>
      </contour>
      <contour>
        <pt x="427" y="566" on="1"/>
        <pt x="385" y="559" on="0"/>
        <pt x="355" y="547" on="1"/>
        <pt x="424" y="536" on="0"/>
        <pt x="426" y="536" on="1"/>
        <pt x="427" y="546" on="0"/>
      </contour>
    </TTGlyph>
    <TTGlyph name="D" xMin="2" yMin="-89" xMax="921" yMax="687">
      <contour>
        <pt x="445" y="625" on="1"/>
        <pt x="443" y="680" on="1"/>
        <pt x="443" y="687" on="0"/>
        <pt x="447" y="687" on="1"/>
        <pt x="448" y="687" on="0"/>
        <pt x="450" y="682" on="1"/>
        <pt x="456" y="644" on="0"/>
        <pt x="456" y="580" on="0"/>
        <pt x="456" y="572" on="1"/>
        <pt x="461" y="572" on="0"/>
        <pt x="465" y="572" on="1"/>
        <pt x="536" y="572" on="0"/>
        <pt x="603" y="558" on="1"/>
        <pt x="674" y="650" on="0"/>
        <pt x="748" y="650" on="1"/>
        <pt x="777" y="650" on="0"/>
        <pt x="806" y="634" on="1"/>
        <pt x="832" y="618" on="0"/>
        <pt x="847" y="576" on="0"/>
        <pt x="847" y="561" on="0"/>
        <pt x="845" y="561" on="1"/>
        <pt x="840" y="561" on="0"/>
        <pt x="831" y="595" on="0"/>
        <pt x="778" y="623" on="0"/>
        <pt x="755" y="623" on="1"/>
        <pt x="693" y="623" on="0"/>
        <pt x="640" y="553" on="1"/>
        <pt x="752" y="535" on="0"/>
        <pt x="833" y="464" on="1"/>
        <pt x="921" y="385" on="0"/>
        <pt x="921" y="275" on="1"/>
        <pt x="921" y="204" on="0"/>
        <pt x="891" y="139" on="1"/>
        <pt x="847" y="46" on="0"/>
        <pt x="763" y="-4" on="1"/>
        <pt x="677" y="-54" on="0"/>
        <pt x="466" y="-54" on="0"/>
        <pt x="343" y="-4" on="1"/>
        <pt x="276" y="-89" on="0"/>
        <pt x="152" y="-89" on="1"/>
        <pt x="137" y="-89" on="0"/>
        <pt x="79" y="-84" on="0"/>
        <pt x="2" y="-22" on="0"/>
        <pt x="2" y="52" on="0"/>
        <pt x="38" y="71" on="1"/>
        <pt x="66" y="87" on="0"/>
        <pt x="163" y="87" on="0"/>
        <pt x="263" y="46" on="1"/>
        <pt x="336" y="132" on="0"/>
        <pt x="432" y="423" on="0"/>
        <pt x="442" y="556" on="1"/>
        <pt x="249" y="546" on="0"/>
        <pt x="152" y="443" on="1"/>
        <pt x="116" y="404" on="0"/>
        <pt x="116" y="360" on="1"/>
        <pt x="116" y="284" on="0"/>
        <pt x="197" y="247" on="1"/>
        <pt x="213" y="239" on="0"/>
        <pt x="244" y="233" on="1"/>
        <pt x="249" y="231" on="0"/>
        <pt x="249" y="229" on="1"/>
        <pt x="249" y="224" on="0"/>
        <pt x="242" y="224" on="1"/>
        <pt x="240" y="225" on="1"/>
        <pt x="181" y="230" on="0"/>
        <pt x="82" y="316" on="0"/>
        <pt x="82" y="417" on="0"/>
        <pt x="117" y="453" on="1"/>
        <pt x="223" y="565" on="0"/>
        <pt x="443" y="572" on="1"/>
        <pt x="445" y="608" on="0"/>
      </contour>
      <contour>
        <pt x="864" y="265" on="1"/>
        <pt x="864" y="364" on="0"/>
        <pt x="730" y="522" on="0"/>
        <pt x="632" y="540" on="1"/>
        <pt x="597" y="485" on="0"/>
        <pt x="489" y="243" on="0"/>
        <pt x="400" y="62" on="0"/>
        <pt x="353" y="9" on="1"/>
        <pt x="463" y="-38" on="0"/>
        <pt x="562" y="-38" on="1"/>
        <pt x="694" y="-38" on="0"/>
        <pt x="864" y="133" on="0"/>
      </contour>
      <contour>
        <pt x="476" y="557" on="1"/>
        <pt x="455" y="557" on="1"/>
        <pt x="448" y="424" on="0"/>
        <pt x="354" y="129" on="0"/>
        <pt x="279" y="39" on="1"/>
        <pt x="313" y="26" on="1"/>
        <pt x="350" y="65" on="0"/>
        <pt x="392" y="156" on="1"/>
        <pt x="412" y="196" on="0"/>
        <pt x="480" y="351" on="0"/>
        <pt x="485" y="361" on="1"/>
        <pt x="549" y="500" on="0"/>
        <pt x="594" y="546" on="1"/>
        <pt x="534" y="557" on="0"/>
      </contour>
      <contour>
        <pt x="121" y="-52" on="1"/>
        <pt x="102" y="-52" on="0"/>
        <pt x="102" y="-45" on="1"/>
        <pt x="102" y="-40" on="0"/>
        <pt x="119" y="-40" on="1"/>
        <pt x="188" y="-40" on="0"/>
        <pt x="256" y="36" on="1"/>
        <pt x="163" y="78" on="0"/>
        <pt x="101" y="78" on="1"/>
        <pt x="73" y="78" on="0"/>
        <pt x="18" y="51" on="0"/>
        <pt x="18" y="-16" on="0"/>
        <pt x="94" y="-67" on="0"/>
        <pt x="181" y="-67" on="0"/>
        <pt x="283" y="-21" on="0"/>
        <pt x="305" y="12" on="1"/>
        <pt x="271" y="29" on="1"/>
        <pt x="199" y="-52" on="0"/>
      </contour>
    </TTGlyph>
    <TTGlyph name="Delta" xMin="25" yMin="-2" xMax="428" yMax="535">
      <contour>
        <pt x="428" y="-2" on="1"/>
        <pt x="334" y="0" on="0"/>
        <pt x="89" y="0" on="0"/>
        <pt x="25" y="-2" on="1"/>
        <pt x="83" y="103" on="0"/>
        <pt x="165" y="236" on="1"/>
        <pt x="306" y="466" on="0"/>
        <pt x="325" y="500" on="0"/>
        <pt x="332" y="511" on="1"/>
        <pt x="346" y="535" on="0"/>
        <pt x="353" y="535" on="1"/>
        <pt x="357" y="535" on="0"/>
        <pt x="357" y="528" on="1"/>
        <pt x="364" y="414" on="0"/>
        <pt x="405" y="98" on="0"/>
      </contour>
      <contour>
        <pt x="230" y="30" on="1"/>
        <pt x="384" y="33" on="1"/>
        <pt x="378" y="98" on="0"/>
        <pt x="333" y="475" on="0"/>
        <pt x="326" y="475" on="0"/>
        <pt x="324" y="470" on="1"/>
        <pt x="87" y="88" on="0"/>
        <pt x="70" y="37" on="1"/>
        <pt x="70" y="30" on="0"/>
      </contour>
    </TTGlyph>
    <TTGlyph name="E" xMin="8" yMin="-135" xMax="1035" yMax="687">
      <contour>
        <pt x="445" y="625" on="1"/>
        <pt x="443" y="680" on="1"/>
        <pt x="443" y="687" on="0"/>
        <pt x="447" y="687" on="1"/>
        <pt x="448" y="687" on="0"/>
        <pt x="450" y="682" on="1"/>
        <pt x="456" y="647" on="0"/>
        <pt x="456" y="586" on="0"/>
        <pt x="456" y="573" on="1"/>
        <pt x="541" y="561" on="0"/>
        <pt x="624" y="543" on="1"/>
        <pt x="705" y="648" on="0"/>
        <pt x="862" y="648" on="0"/>
        <pt x="862" y="587" on="1"/>
        <pt x="862" y="576" on="0"/>
        <pt x="853" y="576" on="0"/>
        <pt x="853" y="585" on="1"/>
        <pt x="853" y="609" on="0"/>
        <pt x="834" y="619" on="1"/>
        <pt x="818" y="629" on="0"/>
        <pt x="794" y="629" on="1"/>
        <pt x="730" y="629" on="0"/>
        <pt x="666" y="536" on="1"/>
        <pt x="841" y="501" on="0"/>
        <pt x="898" y="501" on="1"/>
        <pt x="1021" y="501" on="0"/>
        <pt x="1021" y="554" on="1"/>
        <pt x="1021" y="563" on="0"/>
        <pt x="1017" y="568" on="1"/>
        <pt x="1014" y="576" on="0"/>
        <pt x="1014" y="579" on="0"/>
        <pt x="1016" y="579" on="1"/>
        <pt x="1025" y="579" on="0"/>
        <pt x="1035" y="546" on="0"/>
        <pt x="1035" y="537" on="1"/>
        <pt x="1035" y="468" on="0"/>
        <pt x="924" y="468" on="1"/>
        <pt x="861" y="468" on="0"/>
        <pt x="652" y="514" on="1"/>
        <pt x="618" y="457" on="0"/>
        <pt x="528" y="271" on="1"/>
        <pt x="569" y="284" on="0"/>
        <pt x="759" y="284" on="0"/>
        <pt x="826" y="261" on="1"/>
        <pt x="831" y="259" on="0"/>
        <pt x="831" y="254" on="0"/>
        <pt x="826" y="254" on="1"/>
        <pt x="754" y="259" on="1"/>
        <pt x="669" y="259" on="0"/>
        <pt x="609" y="247" on="1"/>
        <pt x="500" y="228" on="0"/>
        <pt x="500" y="180" on="1"/>
        <pt x="500" y="174" on="0"/>
        <pt x="505" y="161" on="1"/>
        <pt x="505" y="160" on="1"/>
        <pt x="494" y="160" on="0"/>
        <pt x="484" y="184" on="1"/>
        <pt x="426" y="75" on="0"/>
        <pt x="369" y="9" on="1"/>
        <pt x="482" y="-25" on="0"/>
        <pt x="691" y="-85" on="0"/>
        <pt x="826" y="-85" on="0"/>
        <pt x="863" y="-68" on="1"/>
        <pt x="914" y="-46" on="0"/>
        <pt x="914" y="0" on="1"/>
        <pt x="914" y="34" on="0"/>
        <pt x="884" y="83" on="1"/>
        <pt x="855" y="131" on="1"/>
        <pt x="855" y="132" on="0"/>
        <pt x="860" y="132" on="0"/>
        <pt x="867" y="125" on="1"/>
        <pt x="929" y="74" on="0"/>
        <pt x="929" y="-60" on="0"/>
        <pt x="836" y="-135" on="0"/>
        <pt x="700" y="-135" on="0"/>
        <pt x="427" y="-30" on="0"/>
        <pt x="357" y="-4" on="1"/>
        <pt x="257" y="-113" on="0"/>
        <pt x="134" y="-113" on="1"/>
        <pt x="94" y="-113" on="0"/>
        <pt x="8" y="-66" on="0"/>
        <pt x="8" y="20" on="0"/>
        <pt x="94" y="62" on="0"/>
        <pt x="189" y="62" on="0"/>
        <pt x="258" y="41" on="1"/>
        <pt x="333" y="126" on="0"/>
        <pt x="432" y="421" on="0"/>
        <pt x="442" y="555" on="1"/>
        <pt x="373" y="563" on="0"/>
        <pt x="331" y="563" on="1"/>
        <pt x="150" y="563" on="0"/>
        <pt x="150" y="439" on="1"/>
        <pt x="150" y="357" on="0"/>
        <pt x="244" y="291" on="1"/>
        <pt x="249" y="289" on="0"/>
        <pt x="249" y="283" on="0"/>
        <pt x="243" y="283" on="0"/>
        <pt x="239" y="285" on="1"/>
        <pt x="113" y="357" on="0"/>
        <pt x="113" y="457" on="1"/>
        <pt x="113" y="513" on="0"/>
        <pt x="160" y="547" on="1"/>
        <pt x="210" y="585" on="0"/>
        <pt x="313" y="585" on="1"/>
        <pt x="358" y="585" on="0"/>
        <pt x="443" y="575" on="1"/>
        <pt x="445" y="609" on="0"/>
      </contour>
      <contour>
        <pt x="609" y="523" on="1"/>
        <pt x="542" y="538" on="0"/>
        <pt x="455" y="553" on="1"/>
        <pt x="448" y="422" on="0"/>
        <pt x="354" y="127" on="0"/>
        <pt x="276" y="35" on="1"/>
        <pt x="319" y="22" on="1"/>
        <pt x="365" y="68" on="0"/>
        <pt x="436" y="210" on="1"/>
        <pt x="446" y="230" on="0"/>
        <pt x="473" y="285" on="1"/>
        <pt x="553" y="448" on="0"/>
      </contour>
      <contour>
        <pt x="121" y="-52" on="1"/>
        <pt x="102" y="-52" on="0"/>
        <pt x="102" y="-45" on="1"/>
        <pt x="102" y="-40" on="0"/>
        <pt x="119" y="-40" on="1"/>
        <pt x="184" y="-40" on="0"/>
        <pt x="249" y="30" on="1"/>
        <pt x="195" y="47" on="0"/>
        <pt x="104" y="47" on="0"/>
        <pt x="73" y="33" on="1"/>
        <pt x="31" y="14" on="0"/>
        <pt x="31" y="-58" on="0"/>
        <pt x="63" y="-76" on="1"/>
        <pt x="91" y="-93" on="0"/>
        <pt x="173" y="-93" on="0"/>
        <pt x="283" y="-29" on="0"/>
        <pt x="313" y="10" on="1"/>
        <pt x="267" y="25" on="1"/>
        <pt x="197" y="-52" on="0"/>
      </contour>
    </TTGlyph>
    <TTGlyph name="Eacute" xMin="8" yMin="-135" xMax="1035" yMax="800">
      <contour>
        <pt x="445" y="625" on="1"/>
        <pt x="443" y="680" on="1"/>
        <pt x="443" y="687" on="0"/>
        <pt x="447" y="687" on="1"/>
        <pt x="448" y="687" on="0"/>
        <pt x="450" y="682" on="1"/>
        <pt x="456" y="647" on="0"/>
        <pt x="456" y="586" on="0"/>
        <pt x="456" y="573" on="1"/>
        <pt x="541" y="561" on="0"/>
        <pt x="624" y="543" on="1"/>
        <pt x="705" y="648" on="0"/>
        <pt x="862" y="648" on="0"/>
        <pt x="862" y="587" on="1"/>
        <pt x="862" y="576" on="0"/>
        <pt x="853" y="576" on="0"/>
        <pt x="853" y="585" on="1"/>
        <pt x="853" y="609" on="0"/>
        <pt x="834" y="619" on="1"/>
        <pt x="818" y="629" on="0"/>
        <pt x="794" y="629" on="1"/>
        <pt x="730" y="629" on="0"/>
        <pt x="666" y="536" on="1"/>
        <pt x="841" y="501" on="0"/>
        <pt x="898" y="501" on="1"/>
        <pt x="1021" y="501" on="0"/>
        <pt x="1021" y="554" on="1"/>
        <pt x="1021" y="563" on="0"/>
        <pt x="1017" y="568" on="1"/>
        <pt x="1014" y="576" on="0"/>
        <pt x="1014" y="579" on="0"/>
        <pt x="1016" y="579" on="1"/>
        <pt x="1025" y="579" on="0"/>
        <pt x="1035" y="546" on="0"/>
        <pt x="1035" y="537" on="1"/>
        <pt x="1035" y="468" on="0"/>
        <pt x="924" y="468" on="1"/>
        <pt x="861" y="468" on="0"/>
        <pt x="652" y="514" on="1"/>
        <pt x="618" y="457" on="0"/>
        <pt x="528" y="271" on="1"/>
        <pt x="569" y="284" on="0"/>
        <pt x="759" y="284" on="0"/>
        <pt x="826" y="261" on="1"/>
        <pt x="831" y="259" on="0"/>
        <pt x="831" y="254" on="0"/>
        <pt x="826" y="254" on="1"/>
        <pt x="754" y="259" on="1"/>
        <pt x="669" y="259" on="0"/>
        <pt x="609" y="247" on="1"/>
        <pt x="500" y="228" on="0"/>
        <pt x="500" y="180" on="1"/>
        <pt x="500" y="174" on="0"/>
        <pt x="505" y="161" on="1"/>
        <pt x="505" y="160" on="1"/>
        <pt x="494" y="160" on="0"/>
        <pt x="484" y="184" on="1"/>
        <pt x="426" y="75" on="0"/>
        <pt x="369" y="9" on="1"/>
        <pt x="482" y="-25" on="0"/>
        <pt x="691" y="-85" on="0"/>
        <pt x="826" y="-85" on="0"/>
        <pt x="863" y="-68" on="1"/>
        <pt x="914" y="-46" on="0"/>
        <pt x="914" y="0" on="1"/>
        <pt x="914" y="34" on="0"/>
        <pt x="884" y="83" on="1"/>
        <pt x="855" y="131" on="1"/>
        <pt x="855" y="132" on="0"/>
        <pt x="860" y="132" on="0"/>
        <pt x="867" y="125" on="1"/>
        <pt x="929" y="74" on="0"/>
        <pt x="929" y="-60" on="0"/>
        <pt x="836" y="-135" on="0"/>
        <pt x="700" y="-135" on="0"/>
        <pt x="427" y="-30" on="0"/>
        <pt x="357" y="-4" on="1"/>
        <pt x="257" y="-113" on="0"/>
        <pt x="134" y="-113" on="1"/>
        <pt x="94" y="-113" on="0"/>
        <pt x="8" y="-66" on="0"/>
        <pt x="8" y="20" on="0"/>
        <pt x="94" y="62" on="0"/>
        <pt x="189" y="62" on="0"/>
        <pt x="258" y="41" on="1"/>
        <pt x="333" y="126" on="0"/>
        <pt x="432" y="421" on="0"/>
        <pt x="442" y="555" on="1"/>
        <pt x="373" y="563" on="0"/>
        <pt x="331" y="563" on="1"/>
        <pt x="150" y="563" on="0"/>
        <pt x="150" y="439" on="1"/>
        <pt x="150" y="357" on="0"/>
        <pt x="244" y="291" on="1"/>
        <pt x="249" y="289" on="0"/>
        <pt x="249" y="283" on="0"/>
        <pt x="243" y="283" on="0"/>
        <pt x="239" y="285" on="1"/>
        <pt x="113" y="357" on="0"/>
        <pt x="113" y="457" on="1"/>
        <pt x="113" y="513" on="0"/>
        <pt x="160" y="547" on="1"/>
        <pt x="210" y="585" on="0"/>
        <pt x="313" y="585" on="1"/>
        <pt x="358" y="585" on="0"/>
        <pt x="443" y="575" on="1"/>
        <pt x="445" y="609" on="0"/>
      </contour>
      <contour>
        <pt x="609" y="523" on="1"/>
        <pt x="542" y="538" on="0"/>
        <pt x="455" y="553" on="1"/>
        <pt x="448" y="422" on="0"/>
        <pt x="354" y="127" on="0"/>
        <pt x="276" y="35" on="1"/>
        <pt x="319" y="22" on="1"/>
        <pt x="365" y="68" on="0"/>
        <pt x="436" y="210" on="1"/>
        <pt x="446" y="230" on="0"/>
        <pt x="473" y="285" on="1"/>
        <pt x="553" y="448" on="0"/>
      </contour>
      <contour>
        <pt x="121" y="-52" on="1"/>
        <pt x="102" y="-52" on="0"/>
        <pt x="102" y="-45" on="1"/>
        <pt x="102" y="-40" on="0"/>
        <pt x="119" y="-40" on="1"/>
        <pt x="184" y="-40" on="0"/>
        <pt x="249" y="30" on="1"/>
        <pt x="195" y="47" on="0"/>
        <pt x="104" y="47" on="0"/>
        <pt x="73" y="33" on="1"/>
        <pt x="31" y="14" on="0"/>
        <pt x="31" y="-58" on="0"/>
        <pt x="63" y="-76" on="1"/>
        <pt x="91" y="-93" on="0"/>
        <pt x="173" y="-93" on="0"/>
        <pt x="283" y="-29" on="0"/>
        <pt x="313" y="10" on="1"/>
        <pt x="267" y="25" on="1"/>
        <pt x="197" y="-52" on="0"/>
      </contour>
      <contour>
        <pt x="859" y="800" on="0"/>
        <pt x="879" y="786" on="0"/>
        <pt x="879" y="776" on="1"/>
        <pt x="879" y="762" on="0"/>
        <pt x="832" y="738" on="1"/>
        <pt x="732" y="674" on="0"/>
        <pt x="723" y="674" on="1"/>
        <pt x="721" y="676" on="1"/>
        <pt x="721" y="684" on="0"/>
        <pt x="735" y="695" on="1"/>
        <pt x="782" y="730" on="0"/>
        <pt x="786" y="734" on="1"/>
        <pt x="814" y="758" on="0"/>
        <pt x="822" y="784" on="1"/>
        <pt x="826" y="800" on="0"/>
        <pt x="849" y="800" on="1"/>
      </contour>
    </TTGlyph>
    <TTGlyph name="Ecircumflex" xMin="8" yMin="-135" xMax="1035" yMax="796">
      <contour>
        <pt x="445" y="625" on="1"/>
        <pt x="443" y="680" on="1"/>
        <pt x="443" y="687" on="0"/>
        <pt x="447" y="687" on="1"/>
        <pt x="448" y="687" on="0"/>
        <pt x="450" y="682" on="1"/>
        <pt x="456" y="647" on="0"/>
        <pt x="456" y="586" on="0"/>
        <pt x="456" y="573" on="1"/>
        <pt x="541" y="561" on="0"/>
        <pt x="624" y="543" on="1"/>
        <pt x="705" y="648" on="0"/>
        <pt x="862" y="648" on="0"/>
        <pt x="862" y="587" on="1"/>
        <pt x="862" y="576" on="0"/>
        <pt x="853" y="576" on="0"/>
        <pt x="853" y="585" on="1"/>
        <pt x="853" y="609" on="0"/>
        <pt x="834" y="619" on="1"/>
        <pt x="818" y="629" on="0"/>
        <pt x="794" y="629" on="1"/>
        <pt x="730" y="629" on="0"/>
        <pt x="666" y="536" on="1"/>
        <pt x="841" y="501" on="0"/>
        <pt x="898" y="501" on="1"/>
        <pt x="1021" y="501" on="0"/>
        <pt x="1021" y="554" on="1"/>
        <pt x="1021" y="563" on="0"/>
        <pt x="1017" y="568" on="1"/>
        <pt x="1014" y="576" on="0"/>
        <pt x="1014" y="579" on="0"/>
        <pt x="1016" y="579" on="1"/>
        <pt x="1025" y="579" on="0"/>
        <pt x="1035" y="546" on="0"/>
        <pt x="1035" y="537" on="1"/>
        <pt x="1035" y="468" on="0"/>
        <pt x="924" y="468" on="1"/>
        <pt x="861" y="468" on="0"/>
        <pt x="652" y="514" on="1"/>
        <pt x="618" y="457" on="0"/>
        <pt x="528" y="271" on="1"/>
        <pt x="569" y="284" on="0"/>
        <pt x="759" y="284" on="0"/>
        <pt x="826" y="261" on="1"/>
        <pt x="831" y="259" on="0"/>
        <pt x="831" y="254" on="0"/>
        <pt x="826" y="254" on="1"/>
        <pt x="754" y="259" on="1"/>
        <pt x="669" y="259" on="0"/>
        <pt x="609" y="247" on="1"/>
        <pt x="500" y="228" on="0"/>
        <pt x="500" y="180" on="1"/>
        <pt x="500" y="174" on="0"/>
        <pt x="505" y="161" on="1"/>
        <pt x="505" y="160" on="1"/>
        <pt x="494" y="160" on="0"/>
        <pt x="484" y="184" on="1"/>
        <pt x="426" y="75" on="0"/>
        <pt x="369" y="9" on="1"/>
        <pt x="482" y="-25" on="0"/>
        <pt x="691" y="-85" on="0"/>
        <pt x="826" y="-85" on="0"/>
        <pt x="863" y="-68" on="1"/>
        <pt x="914" y="-46" on="0"/>
        <pt x="914" y="0" on="1"/>
        <pt x="914" y="34" on="0"/>
        <pt x="884" y="83" on="1"/>
        <pt x="855" y="131" on="1"/>
        <pt x="855" y="132" on="0"/>
        <pt x="860" y="132" on="0"/>
        <pt x="867" y="125" on="1"/>
        <pt x="929" y="74" on="0"/>
        <pt x="929" y="-60" on="0"/>
        <pt x="836" y="-135" on="0"/>
        <pt x="700" y="-135" on="0"/>
        <pt x="427" y="-30" on="0"/>
        <pt x="357" y="-4" on="1"/>
        <pt x="257" y="-113" on="0"/>
        <pt x="134" y="-113" on="1"/>
        <pt x="94" y="-113" on="0"/>
        <pt x="8" y="-66" on="0"/>
        <pt x="8" y="20" on="0"/>
        <pt x="94" y="62" on="0"/>
        <pt x="189" y="62" on="0"/>
        <pt x="258" y="41" on="1"/>
        <pt x="333" y="126" on="0"/>
        <pt x="432" y="421" on="0"/>
        <pt x="442" y="555" on="1"/>
        <pt x="373" y="563" on="0"/>
        <pt x="331" y="563" on="1"/>
        <pt x="150" y="563" on="0"/>
        <pt x="150" y="439" on="1"/>
        <pt x="150" y="357" on="0"/>
        <pt x="244" y="291" on="1"/>
        <pt x="249" y="289" on="0"/>
        <pt x="249" y="283" on="0"/>
        <pt x="243" y="283" on="0"/>
        <pt x="239" y="285" on="1"/>
        <pt x="113" y="357" on="0"/>
        <pt x="113" y="457" on="1"/>
        <pt x="113" y="513" on="0"/>
        <pt x="160" y="547" on="1"/>
        <pt x="210" y="585" on="0"/>
        <pt x="313" y="585" on="1"/>
        <pt x="358" y="585" on="0"/>
        <pt x="443" y="575" on="1"/>
        <pt x="445" y="609" on="0"/>
      </contour>
      <contour>
        <pt x="609" y="523" on="1"/>
        <pt x="542" y="538" on="0"/>
        <pt x="455" y="553" on="1"/>
        <pt x="448" y="422" on="0"/>
        <pt x="354" y="127" on="0"/>
        <pt x="276" y="35" on="1"/>
        <pt x="319" y="22" on="1"/>
        <pt x="365" y="68" on="0"/>
        <pt x="436" y="210" on="1"/>
        <pt x="446" y="230" on="0"/>
        <pt x="473" y="285" on="1"/>
        <pt x="553" y="448" on="0"/>
      </contour>
      <contour>
        <pt x="121" y="-52" on="1"/>
        <pt x="102" y="-52" on="0"/>
        <pt x="102" y="-45" on="1"/>
        <pt x="102" y="-40" on="0"/>
        <pt x="119" y="-40" on="1"/>
        <pt x="184" y="-40" on="0"/>
        <pt x="249" y="30" on="1"/>
        <pt x="195" y="47" on="0"/>
        <pt x="104" y="47" on="0"/>
        <pt x="73" y="33" on="1"/>
        <pt x="31" y="14" on="0"/>
        <pt x="31" y="-58" on="0"/>
        <pt x="63" y="-76" on="1"/>
        <pt x="91" y="-93" on="0"/>
        <pt x="173" y="-93" on="0"/>
        <pt x="283" y="-29" on="0"/>
        <pt x="313" y="10" on="1"/>
        <pt x="267" y="25" on="1"/>
        <pt x="197" y="-52" on="0"/>
      </contour>
      <contour>
        <pt x="953" y="671" on="0"/>
        <pt x="925" y="671" on="0"/>
        <pt x="862" y="717" on="0"/>
        <pt x="837" y="739" on="0"/>
        <pt x="820" y="757" on="0"/>
        <pt x="818" y="759" on="1"/>
        <pt x="696" y="675" on="0"/>
        <pt x="684" y="675" on="1"/>
        <pt x="679" y="675" on="0"/>
        <pt x="679" y="682" on="0"/>
        <pt x="680" y="685" on="1"/>
        <pt x="682" y="696" on="0"/>
        <pt x="806" y="782" on="0"/>
        <pt x="831" y="795" on="0"/>
        <pt x="844" y="795" on="0"/>
        <pt x="851" y="786" on="1"/>
        <pt x="886" y="741" on="0"/>
        <pt x="946" y="688" on="1"/>
        <pt x="953" y="683" on="0"/>
      </contour>
    </TTGlyph>
    <TTGlyph name="Edieresis" xMin="8" yMin="-135" xMax="1035" yMax="800">
      <contour>
        <pt x="445" y="625" on="1"/>
        <pt x="443" y="680" on="1"/>
        <pt x="443" y="687" on="0"/>
        <pt x="447" y="687" on="1"/>
        <pt x="448" y="687" on="0"/>
        <pt x="450" y="682" on="1"/>
        <pt x="456" y="647" on="0"/>
        <pt x="456" y="586" on="0"/>
        <pt x="456" y="573" on="1"/>
        <pt x="541" y="561" on="0"/>
        <pt x="624" y="543" on="1"/>
        <pt x="705" y="648" on="0"/>
        <pt x="862" y="648" on="0"/>
        <pt x="862" y="587" on="1"/>
        <pt x="862" y="576" on="0"/>
        <pt x="853" y="576" on="0"/>
        <pt x="853" y="585" on="1"/>
        <pt x="853" y="609" on="0"/>
        <pt x="834" y="619" on="1"/>
        <pt x="818" y="629" on="0"/>
        <pt x="794" y="629" on="1"/>
        <pt x="730" y="629" on="0"/>
        <pt x="666" y="536" on="1"/>
        <pt x="841" y="501" on="0"/>
        <pt x="898" y="501" on="1"/>
        <pt x="1021" y="501" on="0"/>
        <pt x="1021" y="554" on="1"/>
        <pt x="1021" y="563" on="0"/>
        <pt x="1017" y="568" on="1"/>
        <pt x="1014" y="576" on="0"/>
        <pt x="1014" y="579" on="0"/>
        <pt x="1016" y="579" on="1"/>
        <pt x="1025" y="579" on="0"/>
        <pt x="1035" y="546" on="0"/>
        <pt x="1035" y="537" on="1"/>
        <pt x="1035" y="468" on="0"/>
        <pt x="924" y="468" on="1"/>
        <pt x="861" y="468" on="0"/>
        <pt x="652" y="514" on="1"/>
        <pt x="618" y="457" on="0"/>
        <pt x="528" y="271" on="1"/>
        <pt x="569" y="284" on="0"/>
        <pt x="759" y="284" on="0"/>
        <pt x="826" y="261" on="1"/>
        <pt x="831" y="259" on="0"/>
        <pt x="831" y="254" on="0"/>
        <pt x="826" y="254" on="1"/>
        <pt x="754" y="259" on="1"/>
        <pt x="669" y="259" on="0"/>
        <pt x="609" y="247" on="1"/>
        <pt x="500" y="228" on="0"/>
        <pt x="500" y="180" on="1"/>
        <pt x="500" y="174" on="0"/>
        <pt x="505" y="161" on="1"/>
        <pt x="505" y="160" on="1"/>
        <pt x="494" y="160" on="0"/>
        <pt x="484" y="184" on="1"/>
        <pt x="426" y="75" on="0"/>
        <pt x="369" y="9" on="1"/>
        <pt x="482" y="-25" on="0"/>
        <pt x="691" y="-85" on="0"/>
        <pt x="826" y="-85" on="0"/>
        <pt x="863" y="-68" on="1"/>
        <pt x="914" y="-46" on="0"/>
        <pt x="914" y="0" on="1"/>
        <pt x="914" y="34" on="0"/>
        <pt x="884" y="83" on="1"/>
        <pt x="855" y="131" on="1"/>
        <pt x="855" y="132" on="0"/>
        <pt x="860" y="132" on="0"/>
        <pt x="867" y="125" on="1"/>
        <pt x="929" y="74" on="0"/>
        <pt x="929" y="-60" on="0"/>
        <pt x="836" y="-135" on="0"/>
        <pt x="700" y="-135" on="0"/>
        <pt x="427" y="-30" on="0"/>
        <pt x="357" y="-4" on="1"/>
        <pt x="257" y="-113" on="0"/>
        <pt x="134" y="-113" on="1"/>
        <pt x="94" y="-113" on="0"/>
        <pt x="8" y="-66" on="0"/>
        <pt x="8" y="20" on="0"/>
        <pt x="94" y="62" on="0"/>
        <pt x="189" y="62" on="0"/>
        <pt x="258" y="41" on="1"/>
        <pt x="333" y="126" on="0"/>
        <pt x="432" y="421" on="0"/>
        <pt x="442" y="555" on="1"/>
        <pt x="373" y="563" on="0"/>
        <pt x="331" y="563" on="1"/>
        <pt x="150" y="563" on="0"/>
        <pt x="150" y="439" on="1"/>
        <pt x="150" y="357" on="0"/>
        <pt x="244" y="291" on="1"/>
        <pt x="249" y="289" on="0"/>
        <pt x="249" y="283" on="0"/>
        <pt x="243" y="283" on="0"/>
        <pt x="239" y="285" on="1"/>
        <pt x="113" y="357" on="0"/>
        <pt x="113" y="457" on="1"/>
        <pt x="113" y="513" on="0"/>
        <pt x="160" y="547" on="1"/>
        <pt x="210" y="585" on="0"/>
        <pt x="313" y="585" on="1"/>
        <pt x="358" y="585" on="0"/>
        <pt x="443" y="575" on="1"/>
        <pt x="445" y="609" on="0"/>
      </contour>
      <contour>
        <pt x="609" y="523" on="1"/>
        <pt x="542" y="538" on="0"/>
        <pt x="455" y="553" on="1"/>
        <pt x="448" y="422" on="0"/>
        <pt x="354" y="127" on="0"/>
        <pt x="276" y="35" on="1"/>
        <pt x="319" y="22" on="1"/>
        <pt x="365" y="68" on="0"/>
        <pt x="436" y="210" on="1"/>
        <pt x="446" y="230" on="0"/>
        <pt x="473" y="285" on="1"/>
        <pt x="553" y="448" on="0"/>
      </contour>
      <contour>
        <pt x="121" y="-52" on="1"/>
        <pt x="102" y="-52" on="0"/>
        <pt x="102" y="-45" on="1"/>
        <pt x="102" y="-40" on="0"/>
        <pt x="119" y="-40" on="1"/>
        <pt x="184" y="-40" on="0"/>
        <pt x="249" y="30" on="1"/>
        <pt x="195" y="47" on="0"/>
        <pt x="104" y="47" on="0"/>
        <pt x="73" y="33" on="1"/>
        <pt x="31" y="14" on="0"/>
        <pt x="31" y="-58" on="0"/>
        <pt x="63" y="-76" on="1"/>
        <pt x="91" y="-93" on="0"/>
        <pt x="173" y="-93" on="0"/>
        <pt x="283" y="-29" on="0"/>
        <pt x="313" y="10" on="1"/>
        <pt x="267" y="25" on="1"/>
        <pt x="197" y="-52" on="0"/>
      </contour>
      <contour>
        <pt x="913" y="798" on="1"/>
        <pt x="913" y="797" on="0"/>
        <pt x="898" y="780" on="1"/>
        <pt x="890" y="767" on="0"/>
        <pt x="884" y="747" on="1"/>
        <pt x="874" y="714" on="0"/>
        <pt x="854" y="714" on="1"/>
        <pt x="848" y="714" on="0"/>
        <pt x="840" y="725" on="1"/>
        <pt x="833" y="736" on="0"/>
        <pt x="833" y="762" on="0"/>
        <pt x="851" y="770" on="1"/>
        <pt x="858" y="777" on="0"/>
        <pt x="902" y="800" on="0"/>
        <pt x="912" y="800" on="0"/>
        <pt x="913" y="799" on="1"/>
      </contour>
      <contour>
        <pt x="779" y="798" on="1"/>
        <pt x="779" y="797" on="0"/>
        <pt x="764" y="780" on="1"/>
        <pt x="756" y="767" on="0"/>
        <pt x="750" y="747" on="1"/>
        <pt x="740" y="714" on="0"/>
        <pt x="720" y="714" on="1"/>
        <pt x="714" y="714" on="0"/>
        <pt x="706" y="725" on="1"/>
        <pt x="699" y="736" on="0"/>
        <pt x="699" y="762" on="0"/>
        <pt x="717" y="770" on="1"/>
        <pt x="724" y="777" on="0"/>
        <pt x="768" y="800" on="0"/>
        <pt x="778" y="800" on="0"/>
        <pt x="779" y="799" on="1"/>
      </contour>
    </TTGlyph>
    <TTGlyph name="Egrave" xMin="8" yMin="-135" xMax="1035" yMax="800">
      <contour>
        <pt x="445" y="625" on="1"/>
        <pt x="443" y="680" on="1"/>
        <pt x="443" y="687" on="0"/>
        <pt x="447" y="687" on="1"/>
        <pt x="448" y="687" on="0"/>
        <pt x="450" y="682" on="1"/>
        <pt x="456" y="647" on="0"/>
        <pt x="456" y="586" on="0"/>
        <pt x="456" y="573" on="1"/>
        <pt x="541" y="561" on="0"/>
        <pt x="624" y="543" on="1"/>
        <pt x="705" y="648" on="0"/>
        <pt x="862" y="648" on="0"/>
        <pt x="862" y="587" on="1"/>
        <pt x="862" y="576" on="0"/>
        <pt x="853" y="576" on="0"/>
        <pt x="853" y="585" on="1"/>
        <pt x="853" y="609" on="0"/>
        <pt x="834" y="619" on="1"/>
        <pt x="818" y="629" on="0"/>
        <pt x="794" y="629" on="1"/>
        <pt x="730" y="629" on="0"/>
        <pt x="666" y="536" on="1"/>
        <pt x="841" y="501" on="0"/>
        <pt x="898" y="501" on="1"/>
        <pt x="1021" y="501" on="0"/>
        <pt x="1021" y="554" on="1"/>
        <pt x="1021" y="563" on="0"/>
        <pt x="1017" y="568" on="1"/>
        <pt x="1014" y="576" on="0"/>
        <pt x="1014" y="579" on="0"/>
        <pt x="1016" y="579" on="1"/>
        <pt x="1025" y="579" on="0"/>
        <pt x="1035" y="546" on="0"/>
        <pt x="1035" y="537" on="1"/>
        <pt x="1035" y="468" on="0"/>
        <pt x="924" y="468" on="1"/>
        <pt x="861" y="468" on="0"/>
        <pt x="652" y="514" on="1"/>
        <pt x="618" y="457" on="0"/>
        <pt x="528" y="271" on="1"/>
        <pt x="569" y="284" on="0"/>
        <pt x="759" y="284" on="0"/>
        <pt x="826" y="261" on="1"/>
        <pt x="831" y="259" on="0"/>
        <pt x="831" y="254" on="0"/>
        <pt x="826" y="254" on="1"/>
        <pt x="754" y="259" on="1"/>
        <pt x="669" y="259" on="0"/>
        <pt x="609" y="247" on="1"/>
        <pt x="500" y="228" on="0"/>
        <pt x="500" y="180" on="1"/>
        <pt x="500" y="174" on="0"/>
        <pt x="505" y="161" on="1"/>
        <pt x="505" y="160" on="1"/>
        <pt x="494" y="160" on="0"/>
        <pt x="484" y="184" on="1"/>
        <pt x="426" y="75" on="0"/>
        <pt x="369" y="9" on="1"/>
        <pt x="482" y="-25" on="0"/>
        <pt x="691" y="-85" on="0"/>
        <pt x="826" y="-85" on="0"/>
        <pt x="863" y="-68" on="1"/>
        <pt x="914" y="-46" on="0"/>
        <pt x="914" y="0" on="1"/>
        <pt x="914" y="34" on="0"/>
        <pt x="884" y="83" on="1"/>
        <pt x="855" y="131" on="1"/>
        <pt x="855" y="132" on="0"/>
        <pt x="860" y="132" on="0"/>
        <pt x="867" y="125" on="1"/>
        <pt x="929" y="74" on="0"/>
        <pt x="929" y="-60" on="0"/>
        <pt x="836" y="-135" on="0"/>
        <pt x="700" y="-135" on="0"/>
        <pt x="427" y="-30" on="0"/>
        <pt x="357" y="-4" on="1"/>
        <pt x="257" y="-113" on="0"/>
        <pt x="134" y="-113" on="1"/>
        <pt x="94" y="-113" on="0"/>
        <pt x="8" y="-66" on="0"/>
        <pt x="8" y="20" on="0"/>
        <pt x="94" y="62" on="0"/>
        <pt x="189" y="62" on="0"/>
        <pt x="258" y="41" on="1"/>
        <pt x="333" y="126" on="0"/>
        <pt x="432" y="421" on="0"/>
        <pt x="442" y="555" on="1"/>
        <pt x="373" y="563" on="0"/>
        <pt x="331" y="563" on="1"/>
        <pt x="150" y="563" on="0"/>
        <pt x="150" y="439" on="1"/>
        <pt x="150" y="357" on="0"/>
        <pt x="244" y="291" on="1"/>
        <pt x="249" y="289" on="0"/>
        <pt x="249" y="283" on="0"/>
        <pt x="243" y="283" on="0"/>
        <pt x="239" y="285" on="1"/>
        <pt x="113" y="357" on="0"/>
        <pt x="113" y="457" on="1"/>
        <pt x="113" y="513" on="0"/>
        <pt x="160" y="547" on="1"/>
        <pt x="210" y="585" on="0"/>
        <pt x="313" y="585" on="1"/>
        <pt x="358" y="585" on="0"/>
        <pt x="443" y="575" on="1"/>
        <pt x="445" y="609" on="0"/>
      </contour>
      <contour>
        <pt x="609" y="523" on="1"/>
        <pt x="542" y="538" on="0"/>
        <pt x="455" y="553" on="1"/>
        <pt x="448" y="422" on="0"/>
        <pt x="354" y="127" on="0"/>
        <pt x="276" y="35" on="1"/>
        <pt x="319" y="22" on="1"/>
        <pt x="365" y="68" on="0"/>
        <pt x="436" y="210" on="1"/>
        <pt x="446" y="230" on="0"/>
        <pt x="473" y="285" on="1"/>
        <pt x="553" y="448" on="0"/>
      </contour>
      <contour>
        <pt x="121" y="-52" on="1"/>
        <pt x="102" y="-52" on="0"/>
        <pt x="102" y="-45" on="1"/>
        <pt x="102" y="-40" on="0"/>
        <pt x="119" y="-40" on="1"/>
        <pt x="184" y="-40" on="0"/>
        <pt x="249" y="30" on="1"/>
        <pt x="195" y="47" on="0"/>
        <pt x="104" y="47" on="0"/>
        <pt x="73" y="33" on="1"/>
        <pt x="31" y="14" on="0"/>
        <pt x="31" y="-58" on="0"/>
        <pt x="63" y="-76" on="1"/>
        <pt x="91" y="-93" on="0"/>
        <pt x="173" y="-93" on="0"/>
        <pt x="283" y="-29" on="0"/>
        <pt x="313" y="10" on="1"/>
        <pt x="267" y="25" on="1"/>
        <pt x="197" y="-52" on="0"/>
      </contour>
      <contour>
        <pt x="896" y="694" on="1"/>
        <pt x="910" y="683" on="0"/>
        <pt x="910" y="674" on="0"/>
        <pt x="908" y="674" on="1"/>
        <pt x="898" y="674" on="0"/>
        <pt x="854" y="702" on="1"/>
        <pt x="796" y="739" on="0"/>
        <pt x="786" y="744" on="1"/>
        <pt x="752" y="763" on="0"/>
        <pt x="752" y="776" on="1"/>
        <pt x="752" y="785" on="0"/>
        <pt x="773" y="800" on="0"/>
        <pt x="781" y="800" on="1"/>
        <pt x="805" y="800" on="0"/>
        <pt x="809" y="784" on="1"/>
        <pt x="816" y="758" on="0"/>
        <pt x="845" y="733" on="1"/>
        <pt x="850" y="728" on="0"/>
      </contour>
    </TTGlyph>
    <TTGlyph name="Eth" xMin="2" yMin="-94" xMax="970" yMax="723">
      <contour>
        <pt x="468" y="658" on="1"/>
        <pt x="466" y="716" on="1"/>
        <pt x="466" y="723" on="0"/>
        <pt x="471" y="723" on="1"/>
        <pt x="472" y="723" on="0"/>
        <pt x="474" y="718" on="1"/>
        <pt x="480" y="678" on="0"/>
        <pt x="480" y="611" on="0"/>
        <pt x="480" y="602" on="1"/>
        <pt x="489" y="602" on="0"/>
        <pt x="497" y="602" on="1"/>
        <pt x="569" y="602" on="0"/>
        <pt x="635" y="587" on="1"/>
        <pt x="708" y="684" on="0"/>
        <pt x="787" y="684" on="1"/>
        <pt x="820" y="684" on="0"/>
        <pt x="849" y="667" on="1"/>
        <pt x="876" y="650" on="0"/>
        <pt x="892" y="602" on="0"/>
        <pt x="892" y="591" on="0"/>
        <pt x="889" y="591" on="1"/>
        <pt x="884" y="591" on="0"/>
        <pt x="881" y="604" on="1"/>
        <pt x="875" y="627" on="0"/>
        <pt x="820" y="656" on="0"/>
        <pt x="795" y="656" on="1"/>
        <pt x="730" y="656" on="0"/>
        <pt x="674" y="582" on="1"/>
        <pt x="793" y="563" on="0"/>
        <pt x="970" y="406" on="0"/>
        <pt x="970" y="290" on="1"/>
        <pt x="970" y="216" on="0"/>
        <pt x="938" y="146" on="1"/>
        <pt x="892" y="48" on="0"/>
        <pt x="712" y="-57" on="0"/>
        <pt x="490" y="-57" on="0"/>
        <pt x="361" y="-4" on="1"/>
        <pt x="290" y="-94" on="0"/>
        <pt x="160" y="-94" on="1"/>
        <pt x="147" y="-94" on="0"/>
        <pt x="81" y="-88" on="0"/>
        <pt x="2" y="-24" on="0"/>
        <pt x="2" y="54" on="0"/>
        <pt x="71" y="92" on="0"/>
        <pt x="171" y="92" on="0"/>
        <pt x="277" y="48" on="1"/>
        <pt x="328" y="110" on="0"/>
        <pt x="368" y="200" on="1"/>
        <pt x="226" y="137" on="0"/>
        <pt x="219" y="137" on="1"/>
        <pt x="207" y="137" on="0"/>
        <pt x="207" y="162" on="1"/>
        <pt x="207" y="171" on="0"/>
        <pt x="214" y="173" on="1"/>
        <pt x="230" y="178" on="0"/>
        <pt x="388" y="248" on="1"/>
        <pt x="451" y="408" on="0"/>
        <pt x="465" y="585" on="1"/>
        <pt x="263" y="575" on="0"/>
        <pt x="160" y="466" on="1"/>
        <pt x="122" y="425" on="0"/>
        <pt x="122" y="379" on="1"/>
        <pt x="122" y="298" on="0"/>
        <pt x="209" y="259" on="1"/>
        <pt x="221" y="254" on="0"/>
        <pt x="257" y="245" on="1"/>
        <pt x="262" y="243" on="0"/>
        <pt x="262" y="241" on="1"/>
        <pt x="262" y="236" on="0"/>
        <pt x="255" y="236" on="1"/>
        <pt x="253" y="237" on="1"/>
        <pt x="192" y="241" on="0"/>
        <pt x="86" y="333" on="0"/>
        <pt x="86" y="393" on="1"/>
        <pt x="86" y="439" on="0"/>
        <pt x="123" y="477" on="1"/>
        <pt x="235" y="594" on="0"/>
        <pt x="466" y="602" on="1"/>
        <pt x="468" y="640" on="0"/>
      </contour>
      <contour>
        <pt x="910" y="279" on="1"/>
        <pt x="910" y="383" on="0"/>
        <pt x="768" y="550" on="0"/>
        <pt x="665" y="568" on="1"/>
        <pt x="627" y="510" on="0"/>
        <pt x="606" y="464" on="1"/>
        <pt x="545" y="324" on="0"/>
        <pt x="534" y="300" on="1"/>
        <pt x="628" y="325" on="0"/>
        <pt x="681" y="325" on="1"/>
        <pt x="689" y="325" on="0"/>
        <pt x="689" y="311" on="0"/>
        <pt x="683" y="310" on="1"/>
        <pt x="606" y="297" on="0"/>
        <pt x="517" y="263" on="1"/>
        <pt x="438" y="86" on="0"/>
        <pt x="372" y="9" on="1"/>
        <pt x="489" y="-40" on="0"/>
        <pt x="592" y="-40" on="1"/>
        <pt x="730" y="-40" on="0"/>
        <pt x="820" y="50" on="1"/>
        <pt x="910" y="142" on="0"/>
      </contour>
      <contour>
        <pt x="127" y="-55" on="1"/>
        <pt x="107" y="-55" on="0"/>
        <pt x="107" y="-47" on="1"/>
        <pt x="107" y="-42" on="0"/>
        <pt x="125" y="-42" on="1"/>
        <pt x="198" y="-42" on="0"/>
        <pt x="269" y="38" on="1"/>
        <pt x="170" y="82" on="0"/>
        <pt x="106" y="82" on="1"/>
        <pt x="75" y="82" on="0"/>
        <pt x="19" y="54" on="0"/>
        <pt x="19" y="-16" on="0"/>
        <pt x="98" y="-70" on="0"/>
        <pt x="191" y="-70" on="0"/>
        <pt x="298" y="-24" on="0"/>
        <pt x="321" y="13" on="1"/>
        <pt x="285" y="31" on="1"/>
        <pt x="210" y="-55" on="0"/>
      </contour>
      <contour>
        <pt x="501" y="586" on="1"/>
        <pt x="479" y="586" on="1"/>
        <pt x="472" y="423" on="0"/>
        <pt x="411" y="258" on="1"/>
        <pt x="434" y="268" on="0"/>
        <pt x="466" y="279" on="1"/>
        <pt x="529" y="419" on="0"/>
        <pt x="537" y="434" on="1"/>
        <pt x="585" y="532" on="0"/>
        <pt x="625" y="575" on="1"/>
        <pt x="562" y="586" on="0"/>
      </contour>
      <contour>
        <pt x="446" y="234" on="1"/>
        <pt x="393" y="211" on="1"/>
        <pt x="350" y="110" on="0"/>
        <pt x="294" y="41" on="1"/>
        <pt x="329" y="27" on="1"/>
        <pt x="372" y="74" on="0"/>
      </contour>
    </TTGlyph>
    <TTGlyph name="Euro" xMin="25" yMin="-15" xMax="667" yMax="541">
      <contour>
        <pt x="625" y="415" on="1"/>
        <pt x="626" y="427" on="1"/>
        <pt x="626" y="444" on="0"/>
        <pt x="607" y="469" on="1"/>
        <pt x="567" y="521" on="0"/>
        <pt x="386" y="521" on="0"/>
        <pt x="232" y="426" on="0"/>
        <pt x="185" y="350" on="1"/>
        <pt x="246" y="350" on="1"/>
        <pt x="434" y="350" on="0"/>
        <pt x="483" y="339" on="1"/>
        <pt x="488" y="338" on="0"/>
        <pt x="488" y="336" on="1"/>
        <pt x="488" y="330" on="0"/>
        <pt x="477" y="330" on="1"/>
        <pt x="398" y="330" on="0"/>
        <pt x="168" y="320" on="1"/>
        <pt x="152" y="290" on="0"/>
        <pt x="142" y="247" on="1"/>
        <pt x="165" y="248" on="0"/>
        <pt x="222" y="248" on="1"/>
        <pt x="412" y="248" on="0"/>
        <pt x="457" y="236" on="1"/>
        <pt x="463" y="235" on="0"/>
        <pt x="463" y="233" on="1"/>
        <pt x="463" y="228" on="0"/>
        <pt x="453" y="228" on="1"/>
        <pt x="402" y="228" on="0"/>
        <pt x="136" y="217" on="1"/>
        <pt x="134" y="205" on="0"/>
        <pt x="134" y="183" on="1"/>
        <pt x="134" y="101" on="0"/>
        <pt x="249" y="17" on="0"/>
        <pt x="438" y="17" on="0"/>
        <pt x="610" y="107" on="0"/>
        <pt x="660" y="180" on="1"/>
        <pt x="663" y="186" on="0"/>
        <pt x="667" y="186" on="0"/>
        <pt x="667" y="177" on="0"/>
        <pt x="665" y="171" on="1"/>
        <pt x="615" y="90" on="0"/>
        <pt x="403" y="-15" on="0"/>
        <pt x="280" y="-15" on="1"/>
        <pt x="188" y="-15" on="0"/>
        <pt x="80" y="68" on="0"/>
        <pt x="80" y="159" on="1"/>
        <pt x="80" y="186" on="0"/>
        <pt x="86" y="216" on="1"/>
        <pt x="60" y="216" on="1"/>
        <pt x="55" y="216" on="0"/>
        <pt x="27" y="234" on="0"/>
        <pt x="25" y="239" on="1"/>
        <pt x="26" y="241" on="1"/>
        <pt x="48" y="245" on="0"/>
        <pt x="93" y="246" on="1"/>
        <pt x="107" y="288" on="0"/>
        <pt x="125" y="319" on="1"/>
        <pt x="106" y="319" on="0"/>
        <pt x="93" y="319" on="1"/>
        <pt x="72" y="319" on="0"/>
        <pt x="49" y="342" on="1"/>
        <pt x="58" y="348" on="0"/>
        <pt x="144" y="349" on="1"/>
        <pt x="148" y="355" on="0"/>
        <pt x="158" y="367" on="1"/>
        <pt x="223" y="449" on="0"/>
        <pt x="400" y="541" on="0"/>
        <pt x="502" y="541" on="1"/>
        <pt x="579" y="541" on="0"/>
        <pt x="667" y="462" on="0"/>
        <pt x="667" y="395" on="1"/>
        <pt x="667" y="391" on="1"/>
        <pt x="667" y="378" on="0"/>
        <pt x="656" y="378" on="1"/>
        <pt x="643" y="378" on="0"/>
        <pt x="636" y="386" on="1"/>
        <pt x="625" y="398" on="0"/>
      </contour>
    </TTGlyph>
    <TTGlyph name="F" xMin="21" yMin="-103" xMax="860" yMax="687">
      <contour>
        <pt x="445" y="625" on="1"/>
        <pt x="443" y="680" on="1"/>
        <pt x="443" y="687" on="0"/>
        <pt x="447" y="687" on="1"/>
        <pt x="448" y="687" on="0"/>
        <pt x="450" y="682" on="1"/>
        <pt x="456" y="649" on="0"/>
        <pt x="456" y="561" on="0"/>
        <pt x="451" y="508" on="1"/>
        <pt x="461" y="508" on="0"/>
        <pt x="547" y="490" on="1"/>
        <pt x="636" y="639" on="0"/>
        <pt x="743" y="639" on="1"/>
        <pt x="807" y="639" on="0"/>
        <pt x="807" y="585" on="1"/>
        <pt x="807" y="575" on="0"/>
        <pt x="800" y="575" on="0"/>
        <pt x="800" y="583" on="1"/>
        <pt x="800" y="622" on="0"/>
        <pt x="748" y="622" on="1"/>
        <pt x="676" y="622" on="0"/>
        <pt x="596" y="481" on="1"/>
        <pt x="697" y="462" on="0"/>
        <pt x="750" y="462" on="1"/>
        <pt x="848" y="462" on="0"/>
        <pt x="848" y="510" on="1"/>
        <pt x="848" y="519" on="0"/>
        <pt x="842" y="528" on="0"/>
        <pt x="842" y="533" on="0"/>
        <pt x="844" y="533" on="1"/>
        <pt x="850" y="533" on="0"/>
        <pt x="860" y="504" on="0"/>
        <pt x="860" y="494" on="1"/>
        <pt x="860" y="433" on="0"/>
        <pt x="762" y="433" on="1"/>
        <pt x="706" y="433" on="0"/>
        <pt x="583" y="460" on="1"/>
        <pt x="483" y="255" on="1"/>
        <pt x="512" y="271" on="0"/>
        <pt x="691" y="271" on="0"/>
        <pt x="753" y="252" on="1"/>
        <pt x="758" y="250" on="0"/>
        <pt x="758" y="245" on="0"/>
        <pt x="754" y="245" on="1"/>
        <pt x="692" y="250" on="1"/>
        <pt x="619" y="250" on="0"/>
        <pt x="565" y="239" on="1"/>
        <pt x="470" y="222" on="0"/>
        <pt x="470" y="181" on="1"/>
        <pt x="475" y="162" on="1"/>
        <pt x="467" y="162" on="0"/>
        <pt x="463" y="175" on="1"/>
        <pt x="455" y="187" on="0"/>
        <pt x="454" y="197" on="1"/>
        <pt x="386" y="65" on="0"/>
        <pt x="330" y="2" on="1"/>
        <pt x="236" y="-103" on="0"/>
        <pt x="135" y="-103" on="1"/>
        <pt x="93" y="-103" on="0"/>
        <pt x="62" y="-87" on="1"/>
        <pt x="21" y="-68" on="0"/>
        <pt x="21" y="12" on="0"/>
        <pt x="66" y="35" on="1"/>
        <pt x="100" y="53" on="0"/>
        <pt x="146" y="53" on="1"/>
        <pt x="155" y="53" on="0"/>
        <pt x="155" y="47" on="0"/>
        <pt x="146" y="47" on="1"/>
        <pt x="108" y="47" on="0"/>
        <pt x="80" y="31" on="1"/>
        <pt x="44" y="13" on="0"/>
        <pt x="44" y="-54" on="0"/>
        <pt x="95" y="-85" on="0"/>
        <pt x="126" y="-85" on="1"/>
        <pt x="212" y="-85" on="0"/>
        <pt x="282" y="-7" on="1"/>
        <pt x="333" y="51" on="0"/>
        <pt x="381" y="145" on="1"/>
        <pt x="420" y="226" on="0"/>
        <pt x="497" y="400" on="0"/>
        <pt x="536" y="470" on="1"/>
        <pt x="449" y="489" on="1"/>
        <pt x="437" y="389" on="0"/>
        <pt x="364" y="160" on="0"/>
        <pt x="307" y="76" on="1"/>
        <pt x="221" y="-52" on="0"/>
        <pt x="121" y="-52" on="1"/>
        <pt x="102" y="-52" on="0"/>
        <pt x="102" y="-45" on="1"/>
        <pt x="102" y="-40" on="0"/>
        <pt x="119" y="-40" on="1"/>
        <pt x="209" y="-40" on="0"/>
        <pt x="293" y="86" on="1"/>
        <pt x="352" y="176" on="0"/>
        <pt x="422" y="394" on="0"/>
        <pt x="435" y="492" on="1"/>
        <pt x="306" y="519" on="0"/>
        <pt x="232" y="519" on="1"/>
        <pt x="71" y="519" on="0"/>
        <pt x="71" y="408" on="1"/>
        <pt x="71" y="334" on="0"/>
        <pt x="156" y="275" on="1"/>
        <pt x="160" y="274" on="0"/>
        <pt x="160" y="268" on="0"/>
        <pt x="155" y="268" on="0"/>
        <pt x="151" y="270" on="1"/>
        <pt x="39" y="334" on="0"/>
        <pt x="39" y="423" on="1"/>
        <pt x="39" y="486" on="0"/>
        <pt x="100" y="516" on="1"/>
        <pt x="147" y="538" on="0"/>
        <pt x="296" y="538" on="0"/>
        <pt x="437" y="511" on="1"/>
        <pt x="445" y="573" on="0"/>
      </contour>
    </TTGlyph>
    <TTGlyph name="G" xMin="10" yMin="-305" xMax="712" yMax="652">
      <contour>
        <pt x="526" y="594" on="1"/>
        <pt x="524" y="644" on="1"/>
        <pt x="524" y="652" on="0"/>
        <pt x="529" y="652" on="1"/>
        <pt x="538" y="652" on="0"/>
        <pt x="540" y="593" on="1"/>
        <pt x="623" y="586" on="0"/>
        <pt x="712" y="494" on="0"/>
        <pt x="712" y="412" on="1"/>
        <pt x="712" y="408" on="1"/>
        <pt x="712" y="391" on="0"/>
        <pt x="698" y="391" on="1"/>
        <pt x="690" y="391" on="0"/>
        <pt x="631" y="427" on="0"/>
        <pt x="536" y="479" on="1"/>
        <pt x="525" y="370" on="0"/>
        <pt x="499" y="251" on="1"/>
        <pt x="526" y="286" on="0"/>
        <pt x="550" y="325" on="1"/>
        <pt x="558" y="336" on="0"/>
        <pt x="559" y="336" on="1"/>
        <pt x="560" y="335" on="0"/>
        <pt x="560" y="333" on="1"/>
        <pt x="560" y="312" on="0"/>
        <pt x="491" y="218" on="1"/>
        <pt x="459" y="80" on="0"/>
        <pt x="417" y="-29" on="1"/>
        <pt x="353" y="-195" on="0"/>
        <pt x="291" y="-244" on="1"/>
        <pt x="265" y="-264" on="0"/>
        <pt x="234" y="-264" on="0"/>
        <pt x="234" y="-257" on="1"/>
        <pt x="234" y="-253" on="0"/>
        <pt x="248" y="-250" on="1"/>
        <pt x="328" y="-233" on="0"/>
        <pt x="404" y="-38" on="1"/>
        <pt x="448" y="78" on="0"/>
        <pt x="475" y="197" on="1"/>
        <pt x="414" y="114" on="0"/>
        <pt x="328" y="47" on="1"/>
        <pt x="221" y="-36" on="0"/>
        <pt x="143" y="-36" on="1"/>
        <pt x="88" y="-36" on="0"/>
        <pt x="31" y="51" on="0"/>
        <pt x="31" y="110" on="1"/>
        <pt x="31" y="233" on="0"/>
        <pt x="204" y="484" on="0"/>
        <pt x="320" y="543" on="1"/>
        <pt x="293" y="546" on="0"/>
        <pt x="238" y="546" on="0"/>
        <pt x="141" y="523" on="0"/>
        <pt x="102" y="500" on="1"/>
        <pt x="44" y="466" on="0"/>
        <pt x="44" y="424" on="1"/>
        <pt x="44" y="419" on="0"/>
        <pt x="45" y="416" on="1"/>
        <pt x="45" y="408" on="1"/>
        <pt x="45" y="395" on="0"/>
        <pt x="26" y="395" on="0"/>
        <pt x="10" y="430" on="0"/>
        <pt x="10" y="441" on="1"/>
        <pt x="10" y="500" on="0"/>
        <pt x="116" y="532" on="1"/>
        <pt x="194" y="555" on="0"/>
        <pt x="271" y="555" on="1"/>
        <pt x="292" y="555" on="0"/>
        <pt x="334" y="550" on="1"/>
        <pt x="432" y="594" on="0"/>
        <pt x="513" y="594" on="1"/>
        <pt x="519" y="594" on="0"/>
      </contour>
      <contour>
        <pt x="72" y="143" on="1"/>
        <pt x="72" y="91" on="0"/>
        <pt x="120" y="10" on="0"/>
        <pt x="172" y="10" on="1"/>
        <pt x="240" y="10" on="0"/>
        <pt x="343" y="92" on="1"/>
        <pt x="424" y="158" on="0"/>
        <pt x="483" y="231" on="1"/>
        <pt x="513" y="364" on="0"/>
        <pt x="522" y="485" on="1"/>
        <pt x="430" y="528" on="0"/>
        <pt x="339" y="541" on="1"/>
        <pt x="228" y="489" on="0"/>
        <pt x="72" y="262" on="0"/>
      </contour>
      <contour>
        <pt x="332" y="-287" on="1"/>
        <pt x="299" y="-305" on="0"/>
        <pt x="207" y="-305" on="0"/>
        <pt x="98" y="-231" on="0"/>
        <pt x="98" y="-188" on="1"/>
        <pt x="98" y="-184" on="0"/>
        <pt x="104" y="-184" on="0"/>
        <pt x="105" y="-190" on="1"/>
        <pt x="146" y="-283" on="0"/>
        <pt x="233" y="-283" on="1"/>
        <pt x="274" y="-283" on="0"/>
        <pt x="312" y="-263" on="1"/>
        <pt x="395" y="-218" on="0"/>
        <pt x="456" y="-48" on="1"/>
        <pt x="496" y="87" on="0"/>
        <pt x="581" y="384" on="0"/>
        <pt x="622" y="384" on="1"/>
        <pt x="639" y="384" on="0"/>
        <pt x="652" y="373" on="1"/>
        <pt x="650" y="373" on="1"/>
        <pt x="636" y="369" on="0"/>
        <pt x="615" y="283" on="1"/>
        <pt x="561" y="63" on="0"/>
        <pt x="522" y="-33" on="1"/>
        <pt x="448" y="-225" on="0"/>
      </contour>
      <contour>
        <pt x="680" y="446" on="0"/>
        <pt x="680" y="468" on="0"/>
        <pt x="674" y="480" on="1"/>
        <pt x="636" y="543" on="0"/>
        <pt x="541" y="563" on="1"/>
        <pt x="538" y="506" on="1"/>
        <pt x="592" y="488" on="0"/>
        <pt x="660" y="451" on="1"/>
        <pt x="670" y="446" on="0"/>
        <pt x="673" y="446" on="1"/>
      </contour>
      <contour>
        <pt x="478" y="569" on="1"/>
        <pt x="413" y="569" on="0"/>
        <pt x="355" y="547" on="1"/>
        <pt x="446" y="535" on="0"/>
        <pt x="524" y="511" on="1"/>
        <pt x="526" y="549" on="0"/>
        <pt x="526" y="566" on="1"/>
        <pt x="504" y="569" on="0"/>
      </contour>
    </TTGlyph>
    <TTGlyph name="H" xMin="-147" yMin="-219" xMax="851" yMax="644">
      <contour>
        <pt x="353" y="204" on="1"/>
        <pt x="576" y="215" on="0"/>
        <pt x="596" y="215" on="0"/>
        <pt x="596" y="212" on="1"/>
        <pt x="596" y="204" on="0"/>
        <pt x="575" y="199" on="1"/>
        <pt x="442" y="199" on="0"/>
        <pt x="342" y="181" on="1"/>
        <pt x="269" y="46" on="0"/>
        <pt x="169" y="-61" on="1"/>
        <pt x="187" y="-66" on="0"/>
        <pt x="230" y="-74" on="0"/>
        <pt x="230" y="-77" on="1"/>
        <pt x="230" y="-82" on="0"/>
        <pt x="200" y="-82" on="0"/>
        <pt x="161" y="-69" on="1"/>
        <pt x="18" y="-219" on="0"/>
        <pt x="-97" y="-219" on="1"/>
        <pt x="-147" y="-219" on="0"/>
        <pt x="-147" y="-185" on="1"/>
        <pt x="-147" y="-165" on="0"/>
        <pt x="-139" y="-159" on="1"/>
        <pt x="-139" y="-169" on="1"/>
        <pt x="-139" y="-206" on="0"/>
        <pt x="-97" y="-206" on="1"/>
        <pt x="6" y="-206" on="0"/>
        <pt x="129" y="-58" on="1"/>
        <pt x="106" y="-48" on="0"/>
        <pt x="94" y="-40" on="1"/>
        <pt x="-1" y="-159" on="0"/>
        <pt x="-72" y="-159" on="1"/>
        <pt x="-81" y="-159" on="0"/>
        <pt x="-81" y="-148" on="0"/>
        <pt x="-70" y="-145" on="0"/>
        <pt x="-48" y="-141" on="1"/>
        <pt x="14" y="-122" on="0"/>
        <pt x="85" y="-34" on="1"/>
        <pt x="36" y="2" on="0"/>
        <pt x="36" y="92" on="0"/>
        <pt x="104" y="134" on="1"/>
        <pt x="153" y="165" on="0"/>
        <pt x="215" y="181" on="1"/>
        <pt x="314" y="398" on="0"/>
        <pt x="322" y="590" on="1"/>
        <pt x="307" y="596" on="0"/>
        <pt x="286" y="596" on="1"/>
        <pt x="214" y="596" on="0"/>
        <pt x="56" y="476" on="0"/>
        <pt x="56" y="347" on="0"/>
        <pt x="142" y="303" on="1"/>
        <pt x="145" y="302" on="0"/>
        <pt x="145" y="290" on="0"/>
        <pt x="138" y="290" on="1"/>
        <pt x="134" y="290" on="1"/>
        <pt x="90" y="308" on="0"/>
        <pt x="19" y="376" on="0"/>
        <pt x="19" y="417" on="1"/>
        <pt x="19" y="474" on="0"/>
        <pt x="82" y="525" on="1"/>
        <pt x="132" y="568" on="0"/>
        <pt x="243" y="604" on="0"/>
        <pt x="292" y="604" on="1"/>
        <pt x="304" y="604" on="0"/>
        <pt x="322" y="602" on="1"/>
        <pt x="322" y="636" on="1"/>
        <pt x="322" y="644" on="0"/>
        <pt x="328" y="644" on="1"/>
        <pt x="332" y="644" on="0"/>
        <pt x="333" y="600" on="1"/>
        <pt x="435" y="579" on="0"/>
        <pt x="435" y="462" on="1"/>
        <pt x="435" y="364" on="0"/>
      </contour>
      <contour>
        <pt x="664" y="-172" on="1"/>
        <pt x="551" y="-172" on="0"/>
        <pt x="551" y="-43" on="1"/>
        <pt x="551" y="42" on="0"/>
        <pt x="602" y="186" on="1"/>
        <pt x="722" y="477" on="1"/>
        <pt x="763" y="580" on="1"/>
        <pt x="772" y="603" on="0"/>
        <pt x="785" y="603" on="0"/>
        <pt x="785" y="594" on="1"/>
        <pt x="785" y="577" on="0"/>
        <pt x="682" y="279" on="0"/>
        <pt x="657" y="195" on="1"/>
        <pt x="615" y="45" on="0"/>
        <pt x="615" y="-41" on="1"/>
        <pt x="615" y="-158" on="0"/>
        <pt x="686" y="-158" on="1"/>
        <pt x="715" y="-158" on="0"/>
        <pt x="747" y="-136" on="1"/>
        <pt x="776" y="-115" on="0"/>
        <pt x="849" y="-47" on="1"/>
        <pt x="851" y="-48" on="1"/>
        <pt x="851" y="-50" on="0"/>
        <pt x="848" y="-55" on="1"/>
        <pt x="815" y="-103" on="0"/>
        <pt x="714" y="-172" on="0"/>
      </contour>
      <contour>
        <pt x="383" y="484" on="1"/>
        <pt x="383" y="561" on="0"/>
        <pt x="333" y="585" on="1"/>
        <pt x="331" y="410" on="0"/>
        <pt x="228" y="184" on="1"/>
        <pt x="267" y="194" on="0"/>
        <pt x="293" y="197" on="1"/>
        <pt x="383" y="382" on="0"/>
      </contour>
      <contour>
        <pt x="277" y="168" on="1"/>
        <pt x="221" y="151" on="0"/>
        <pt x="209" y="146" on="1"/>
        <pt x="160" y="46" on="0"/>
        <pt x="104" y="-28" on="1"/>
        <pt x="117" y="-41" on="0"/>
        <pt x="137" y="-48" on="1"/>
        <pt x="213" y="45" on="0"/>
      </contour>
      <contour>
        <pt x="76" y="25" on="1"/>
        <pt x="76" y="1" on="0"/>
        <pt x="96" y="-21" on="1"/>
        <pt x="145" y="44" on="0"/>
        <pt x="195" y="140" on="1"/>
        <pt x="76" y="86" on="0"/>
      </contour>
    </TTGlyph>
    <TTGlyph name="I" xMin="23" yMin="-142" xMax="665" yMax="701">
      <contour>
        <pt x="214" y="176" on="1"/>
        <pt x="122" y="173" on="1"/>
        <pt x="104" y="173" on="0"/>
        <pt x="98" y="174" on="1"/>
        <pt x="99" y="173" on="0"/>
        <pt x="99" y="162" on="0"/>
        <pt x="93" y="149" on="1"/>
        <pt x="56" y="75" on="0"/>
        <pt x="56" y="-52" on="0"/>
        <pt x="88" y="-88" on="1"/>
        <pt x="122" y="-129" on="0"/>
        <pt x="179" y="-129" on="1"/>
        <pt x="282" y="-129" on="0"/>
        <pt x="389" y="27" on="1"/>
        <pt x="510" y="206" on="0"/>
        <pt x="600" y="484" on="1"/>
        <pt x="620" y="541" on="0"/>
        <pt x="620" y="556" on="0"/>
        <pt x="619" y="556" on="1"/>
        <pt x="608" y="556" on="0"/>
        <pt x="537" y="516" on="1"/>
        <pt x="512" y="359" on="0"/>
        <pt x="441" y="196" on="1"/>
        <pt x="356" y="1" on="0"/>
        <pt x="248" y="-69" on="1"/>
        <pt x="201" y="-101" on="0"/>
        <pt x="164" y="-101" on="1"/>
        <pt x="156" y="-101" on="0"/>
        <pt x="156" y="-89" on="0"/>
        <pt x="176" y="-86" on="0"/>
        <pt x="209" y="-76" on="1"/>
        <pt x="292" y="-38" on="0"/>
        <pt x="372" y="97" on="1"/>
        <pt x="479" y="278" on="0"/>
        <pt x="520" y="506" on="1"/>
        <pt x="472" y="477" on="0"/>
        <pt x="439" y="446" on="1"/>
        <pt x="413" y="419" on="0"/>
        <pt x="368" y="336" on="0"/>
        <pt x="368" y="293" on="0"/>
        <pt x="383" y="283" on="1"/>
        <pt x="388" y="280" on="0"/>
        <pt x="388" y="276" on="0"/>
        <pt x="366" y="276" on="0"/>
        <pt x="352" y="291" on="1"/>
        <pt x="339" y="307" on="0"/>
        <pt x="339" y="324" on="1"/>
        <pt x="339" y="374" on="0"/>
        <pt x="408" y="440" on="1"/>
        <pt x="460" y="487" on="0"/>
        <pt x="523" y="525" on="1"/>
        <pt x="537" y="609" on="0"/>
        <pt x="537" y="693" on="1"/>
        <pt x="537" y="699" on="0"/>
        <pt x="542" y="701" on="1"/>
        <pt x="547" y="698" on="0"/>
        <pt x="547" y="599" on="0"/>
        <pt x="539" y="535" on="1"/>
        <pt x="612" y="576" on="0"/>
        <pt x="648" y="576" on="1"/>
        <pt x="665" y="576" on="0"/>
        <pt x="665" y="560" on="1"/>
        <pt x="665" y="530" on="0"/>
        <pt x="642" y="446" on="1"/>
        <pt x="559" y="161" on="0"/>
        <pt x="409" y="-11" on="1"/>
        <pt x="299" y="-142" on="0"/>
        <pt x="176" y="-142" on="1"/>
        <pt x="103" y="-142" on="0"/>
        <pt x="35" y="-42" on="0"/>
        <pt x="35" y="107" on="0"/>
        <pt x="58" y="151" on="1"/>
        <pt x="61" y="156" on="0"/>
        <pt x="61" y="162" on="0"/>
        <pt x="23" y="169" on="0"/>
        <pt x="23" y="176" on="1"/>
        <pt x="23" y="186" on="0"/>
        <pt x="40" y="194" on="1"/>
        <pt x="54" y="202" on="0"/>
        <pt x="65" y="202" on="1"/>
        <pt x="85" y="200" on="1"/>
        <pt x="225" y="206" on="1"/>
        <pt x="272" y="206" on="0"/>
        <pt x="294" y="200" on="1"/>
        <pt x="333" y="190" on="0"/>
        <pt x="333" y="154" on="1"/>
        <pt x="333" y="128" on="0"/>
        <pt x="301" y="109" on="1"/>
        <pt x="297" y="109" on="0"/>
        <pt x="297" y="111" on="1"/>
        <pt x="297" y="115" on="0"/>
        <pt x="308" y="126" on="1"/>
        <pt x="318" y="141" on="0"/>
        <pt x="318" y="142" on="1"/>
        <pt x="318" y="176" on="0"/>
      </contour>
    </TTGlyph>
    <TTGlyph name="IJ" xMin="23" yMin="-230" xMax="1290" yMax="701">
      <contour>
        <pt x="775" y="86" on="1"/>
        <pt x="807" y="89" on="1"/>
        <pt x="811" y="89" on="0"/>
        <pt x="811" y="87" on="1"/>
        <pt x="811" y="77" on="0"/>
        <pt x="694" y="77" on="0"/>
        <pt x="649" y="109" on="1"/>
        <pt x="595" y="147" on="0"/>
        <pt x="595" y="212" on="1"/>
        <pt x="595" y="431" on="0"/>
        <pt x="973" y="533" on="1"/>
        <pt x="978" y="581" on="0"/>
        <pt x="978" y="636" on="1"/>
        <pt x="978" y="642" on="0"/>
        <pt x="984" y="643" on="1"/>
        <pt x="990" y="642" on="0"/>
        <pt x="990" y="573" on="0"/>
        <pt x="988" y="537" on="1"/>
        <pt x="1072" y="557" on="1"/>
        <pt x="1096" y="616" on="0"/>
        <pt x="1151" y="662" on="0"/>
        <pt x="1212" y="662" on="1"/>
        <pt x="1238" y="662" on="0"/>
        <pt x="1262" y="651" on="1"/>
        <pt x="1290" y="635" on="0"/>
        <pt x="1290" y="612" on="1"/>
        <pt x="1290" y="582" on="0"/>
        <pt x="1195" y="563" on="0"/>
        <pt x="1130" y="553" on="1"/>
        <pt x="1052" y="303" on="0"/>
        <pt x="1040" y="267" on="1"/>
        <pt x="922" y="-87" on="0"/>
        <pt x="695" y="-205" on="1"/>
        <pt x="649" y="-230" on="0"/>
        <pt x="536" y="-230" on="0"/>
        <pt x="417" y="-134" on="0"/>
        <pt x="417" y="-75" on="1"/>
        <pt x="417" y="-68" on="0"/>
        <pt x="421" y="-68" on="1"/>
        <pt x="422" y="-68" on="0"/>
        <pt x="427" y="-84" on="0"/>
        <pt x="439" y="-112" on="1"/>
        <pt x="478" y="-191" on="0"/>
        <pt x="580" y="-191" on="1"/>
        <pt x="640" y="-191" on="0"/>
        <pt x="699" y="-161" on="1"/>
        <pt x="821" y="-98" on="0"/>
        <pt x="893" y="28" on="1"/>
        <pt x="938" y="109" on="0"/>
        <pt x="991" y="285" on="1"/>
        <pt x="1017" y="375" on="0"/>
        <pt x="1066" y="541" on="1"/>
        <pt x="986" y="521" on="1"/>
        <pt x="969" y="350" on="0"/>
        <pt x="897" y="170" on="1"/>
        <pt x="813" y="-40" on="0"/>
        <pt x="697" y="-122" on="1"/>
        <pt x="644" y="-158" on="0"/>
        <pt x="607" y="-158" on="1"/>
        <pt x="598" y="-158" on="0"/>
        <pt x="598" y="-146" on="0"/>
        <pt x="606" y="-144" on="1"/>
        <pt x="725" y="-128" on="0"/>
        <pt x="829" y="66" on="1"/>
        <pt x="944" y="279" on="0"/>
        <pt x="972" y="517" on="1"/>
        <pt x="631" y="415" on="0"/>
        <pt x="631" y="212" on="1"/>
        <pt x="631" y="153" on="0"/>
        <pt x="714" y="86" on="0"/>
      </contour>
      <contour>
        <pt x="214" y="176" on="1"/>
        <pt x="122" y="173" on="1"/>
        <pt x="104" y="173" on="0"/>
        <pt x="98" y="174" on="1"/>
        <pt x="99" y="173" on="0"/>
        <pt x="99" y="162" on="0"/>
        <pt x="93" y="149" on="1"/>
        <pt x="56" y="75" on="0"/>
        <pt x="56" y="-52" on="0"/>
        <pt x="88" y="-88" on="1"/>
        <pt x="122" y="-129" on="0"/>
        <pt x="179" y="-129" on="1"/>
        <pt x="282" y="-129" on="0"/>
        <pt x="389" y="27" on="1"/>
        <pt x="510" y="206" on="0"/>
        <pt x="600" y="484" on="1"/>
        <pt x="620" y="541" on="0"/>
        <pt x="620" y="556" on="0"/>
        <pt x="619" y="556" on="1"/>
        <pt x="608" y="556" on="0"/>
        <pt x="537" y="516" on="1"/>
        <pt x="512" y="359" on="0"/>
        <pt x="441" y="196" on="1"/>
        <pt x="356" y="1" on="0"/>
        <pt x="248" y="-69" on="1"/>
        <pt x="201" y="-101" on="0"/>
        <pt x="164" y="-101" on="1"/>
        <pt x="156" y="-101" on="0"/>
        <pt x="156" y="-89" on="0"/>
        <pt x="176" y="-86" on="0"/>
        <pt x="209" y="-76" on="1"/>
        <pt x="292" y="-38" on="0"/>
        <pt x="372" y="97" on="1"/>
        <pt x="479" y="278" on="0"/>
        <pt x="520" y="506" on="1"/>
        <pt x="472" y="477" on="0"/>
        <pt x="439" y="446" on="1"/>
        <pt x="413" y="419" on="0"/>
        <pt x="368" y="336" on="0"/>
        <pt x="368" y="293" on="0"/>
        <pt x="383" y="283" on="1"/>
        <pt x="388" y="280" on="0"/>
        <pt x="388" y="276" on="0"/>
        <pt x="366" y="276" on="0"/>
        <pt x="352" y="291" on="1"/>
        <pt x="339" y="307" on="0"/>
        <pt x="339" y="324" on="1"/>
        <pt x="339" y="374" on="0"/>
        <pt x="408" y="440" on="1"/>
        <pt x="460" y="487" on="0"/>
        <pt x="523" y="525" on="1"/>
        <pt x="537" y="609" on="0"/>
        <pt x="537" y="693" on="1"/>
        <pt x="537" y="699" on="0"/>
        <pt x="542" y="701" on="1"/>
        <pt x="547" y="698" on="0"/>
        <pt x="547" y="599" on="0"/>
        <pt x="539" y="535" on="1"/>
        <pt x="612" y="576" on="0"/>
        <pt x="648" y="576" on="1"/>
        <pt x="665" y="576" on="0"/>
        <pt x="665" y="560" on="1"/>
        <pt x="665" y="530" on="0"/>
        <pt x="642" y="446" on="1"/>
        <pt x="559" y="161" on="0"/>
        <pt x="409" y="-11" on="1"/>
        <pt x="299" y="-142" on="0"/>
        <pt x="176" y="-142" on="1"/>
        <pt x="103" y="-142" on="0"/>
        <pt x="35" y="-42" on="0"/>
        <pt x="35" y="107" on="0"/>
        <pt x="58" y="151" on="1"/>
        <pt x="61" y="156" on="0"/>
        <pt x="61" y="162" on="0"/>
        <pt x="23" y="169" on="0"/>
        <pt x="23" y="176" on="1"/>
        <pt x="23" y="186" on="0"/>
        <pt x="40" y="194" on="1"/>
        <pt x="54" y="202" on="0"/>
        <pt x="65" y="202" on="1"/>
        <pt x="85" y="200" on="1"/>
        <pt x="225" y="206" on="1"/>
        <pt x="272" y="206" on="0"/>
        <pt x="294" y="200" on="1"/>
        <pt x="333" y="190" on="0"/>
        <pt x="333" y="154" on="1"/>
        <pt x="333" y="128" on="0"/>
        <pt x="301" y="109" on="1"/>
        <pt x="297" y="109" on="0"/>
        <pt x="297" y="111" on="1"/>
        <pt x="297" y="115" on="0"/>
        <pt x="308" y="126" on="1"/>
        <pt x="318" y="141" on="0"/>
        <pt x="318" y="142" on="1"/>
        <pt x="318" y="176" on="0"/>
      </contour>
      <contour>
        <pt x="1282" y="617" on="1"/>
        <pt x="1282" y="651" on="0"/>
        <pt x="1228" y="651" on="1"/>
        <pt x="1183" y="651" on="0"/>
        <pt x="1139" y="568" on="1"/>
        <pt x="1168" y="571" on="0"/>
        <pt x="1257" y="590" on="1"/>
        <pt x="1282" y="600" on="0"/>
      </contour>
    </TTGlyph>
    <TTGlyph name="Iacute" xMin="23" yMin="-142" xMax="731" yMax="800">
      <contour>
        <pt x="214" y="176" on="1"/>
        <pt x="122" y="173" on="1"/>
        <pt x="104" y="173" on="0"/>
        <pt x="98" y="174" on="1"/>
        <pt x="99" y="173" on="0"/>
        <pt x="99" y="162" on="0"/>
        <pt x="93" y="149" on="1"/>
        <pt x="56" y="75" on="0"/>
        <pt x="56" y="-52" on="0"/>
        <pt x="88" y="-88" on="1"/>
        <pt x="122" y="-129" on="0"/>
        <pt x="179" y="-129" on="1"/>
        <pt x="282" y="-129" on="0"/>
        <pt x="389" y="27" on="1"/>
        <pt x="510" y="206" on="0"/>
        <pt x="600" y="484" on="1"/>
        <pt x="620" y="541" on="0"/>
        <pt x="620" y="556" on="0"/>
        <pt x="619" y="556" on="1"/>
        <pt x="608" y="556" on="0"/>
        <pt x="537" y="516" on="1"/>
        <pt x="512" y="359" on="0"/>
        <pt x="441" y="196" on="1"/>
        <pt x="356" y="1" on="0"/>
        <pt x="248" y="-69" on="1"/>
        <pt x="201" y="-101" on="0"/>
        <pt x="164" y="-101" on="1"/>
        <pt x="156" y="-101" on="0"/>
        <pt x="156" y="-89" on="0"/>
        <pt x="176" y="-86" on="0"/>
        <pt x="209" y="-76" on="1"/>
        <pt x="292" y="-38" on="0"/>
        <pt x="372" y="97" on="1"/>
        <pt x="479" y="278" on="0"/>
        <pt x="520" y="506" on="1"/>
        <pt x="472" y="477" on="0"/>
        <pt x="439" y="446" on="1"/>
        <pt x="413" y="419" on="0"/>
        <pt x="368" y="336" on="0"/>
        <pt x="368" y="293" on="0"/>
        <pt x="383" y="283" on="1"/>
        <pt x="388" y="280" on="0"/>
        <pt x="388" y="276" on="0"/>
        <pt x="366" y="276" on="0"/>
        <pt x="352" y="291" on="1"/>
        <pt x="339" y="307" on="0"/>
        <pt x="339" y="324" on="1"/>
        <pt x="339" y="374" on="0"/>
        <pt x="408" y="440" on="1"/>
        <pt x="460" y="487" on="0"/>
        <pt x="523" y="525" on="1"/>
        <pt x="537" y="609" on="0"/>
        <pt x="537" y="693" on="1"/>
        <pt x="537" y="699" on="0"/>
        <pt x="542" y="701" on="1"/>
        <pt x="547" y="698" on="0"/>
        <pt x="547" y="599" on="0"/>
        <pt x="539" y="535" on="1"/>
        <pt x="612" y="576" on="0"/>
        <pt x="648" y="576" on="1"/>
        <pt x="665" y="576" on="0"/>
        <pt x="665" y="560" on="1"/>
        <pt x="665" y="530" on="0"/>
        <pt x="642" y="446" on="1"/>
        <pt x="559" y="161" on="0"/>
        <pt x="409" y="-11" on="1"/>
        <pt x="299" y="-142" on="0"/>
        <pt x="176" y="-142" on="1"/>
        <pt x="103" y="-142" on="0"/>
        <pt x="35" y="-42" on="0"/>
        <pt x="35" y="107" on="0"/>
        <pt x="58" y="151" on="1"/>
        <pt x="61" y="156" on="0"/>
        <pt x="61" y="162" on="0"/>
        <pt x="23" y="169" on="0"/>
        <pt x="23" y="176" on="1"/>
        <pt x="23" y="186" on="0"/>
        <pt x="40" y="194" on="1"/>
        <pt x="54" y="202" on="0"/>
        <pt x="65" y="202" on="1"/>
        <pt x="85" y="200" on="1"/>
        <pt x="225" y="206" on="1"/>
        <pt x="272" y="206" on="0"/>
        <pt x="294" y="200" on="1"/>
        <pt x="333" y="190" on="0"/>
        <pt x="333" y="154" on="1"/>
        <pt x="333" y="128" on="0"/>
        <pt x="301" y="109" on="1"/>
        <pt x="297" y="109" on="0"/>
        <pt x="297" y="111" on="1"/>
        <pt x="297" y="115" on="0"/>
        <pt x="308" y="126" on="1"/>
        <pt x="318" y="141" on="0"/>
        <pt x="318" y="142" on="1"/>
        <pt x="318" y="176" on="0"/>
      </contour>
      <contour>
        <pt x="711" y="800" on="0"/>
        <pt x="731" y="786" on="0"/>
        <pt x="731" y="776" on="1"/>
        <pt x="731" y="762" on="0"/>
        <pt x="684" y="738" on="1"/>
        <pt x="584" y="674" on="0"/>
        <pt x="575" y="674" on="1"/>
        <pt x="573" y="676" on="1"/>
        <pt x="573" y="684" on="0"/>
        <pt x="587" y="695" on="1"/>
        <pt x="634" y="730" on="0"/>
        <pt x="638" y="734" on="1"/>
        <pt x="666" y="758" on="0"/>
        <pt x="674" y="784" on="1"/>
        <pt x="678" y="800" on="0"/>
        <pt x="701" y="800" on="1"/>
      </contour>
    </TTGlyph>
    <TTGlyph name="Icircumflex" xMin="23" yMin="-142" xMax="803" yMax="797">
      <contour>
        <pt x="214" y="176" on="1"/>
        <pt x="122" y="173" on="1"/>
        <pt x="104" y="173" on="0"/>
        <pt x="98" y="174" on="1"/>
        <pt x="99" y="173" on="0"/>
        <pt x="99" y="162" on="0"/>
        <pt x="93" y="149" on="1"/>
        <pt x="56" y="75" on="0"/>
        <pt x="56" y="-52" on="0"/>
        <pt x="88" y="-88" on="1"/>
        <pt x="122" y="-129" on="0"/>
        <pt x="179" y="-129" on="1"/>
        <pt x="282" y="-129" on="0"/>
        <pt x="389" y="27" on="1"/>
        <pt x="510" y="206" on="0"/>
        <pt x="600" y="484" on="1"/>
        <pt x="620" y="541" on="0"/>
        <pt x="620" y="556" on="0"/>
        <pt x="619" y="556" on="1"/>
        <pt x="608" y="556" on="0"/>
        <pt x="537" y="516" on="1"/>
        <pt x="512" y="359" on="0"/>
        <pt x="441" y="196" on="1"/>
        <pt x="356" y="1" on="0"/>
        <pt x="248" y="-69" on="1"/>
        <pt x="201" y="-101" on="0"/>
        <pt x="164" y="-101" on="1"/>
        <pt x="156" y="-101" on="0"/>
        <pt x="156" y="-89" on="0"/>
        <pt x="176" y="-86" on="0"/>
        <pt x="209" y="-76" on="1"/>
        <pt x="292" y="-38" on="0"/>
        <pt x="372" y="97" on="1"/>
        <pt x="479" y="278" on="0"/>
        <pt x="520" y="506" on="1"/>
        <pt x="472" y="477" on="0"/>
        <pt x="439" y="446" on="1"/>
        <pt x="413" y="419" on="0"/>
        <pt x="368" y="336" on="0"/>
        <pt x="368" y="293" on="0"/>
        <pt x="383" y="283" on="1"/>
        <pt x="388" y="280" on="0"/>
        <pt x="388" y="276" on="0"/>
        <pt x="366" y="276" on="0"/>
        <pt x="352" y="291" on="1"/>
        <pt x="339" y="307" on="0"/>
        <pt x="339" y="324" on="1"/>
        <pt x="339" y="374" on="0"/>
        <pt x="408" y="440" on="1"/>
        <pt x="460" y="487" on="0"/>
        <pt x="523" y="525" on="1"/>
        <pt x="536" y="602" on="0"/>
        <pt x="537" y="676" on="1"/>
        <pt x="534" y="676" on="1"/>
        <pt x="527" y="676" on="0"/>
        <pt x="528" y="683" on="1"/>
        <pt x="531" y="694" on="0"/>
        <pt x="542" y="701" on="1"/>
        <pt x="542" y="700" on="1"/>
        <pt x="559" y="716" on="0"/>
        <pt x="608" y="750" on="1"/>
        <pt x="675" y="796" on="0"/>
        <pt x="694" y="796" on="0"/>
        <pt x="701" y="787" on="1"/>
        <pt x="736" y="742" on="0"/>
        <pt x="796" y="689" on="1"/>
        <pt x="803" y="684" on="0"/>
        <pt x="803" y="672" on="0"/>
        <pt x="775" y="672" on="0"/>
        <pt x="712" y="718" on="0"/>
        <pt x="687" y="740" on="0"/>
        <pt x="670" y="758" on="0"/>
        <pt x="668" y="760" on="1"/>
        <pt x="576" y="696" on="0"/>
        <pt x="546" y="680" on="1"/>
        <pt x="547" y="645" on="1"/>
        <pt x="547" y="599" on="0"/>
        <pt x="539" y="535" on="1"/>
        <pt x="612" y="576" on="0"/>
        <pt x="648" y="576" on="1"/>
        <pt x="665" y="576" on="0"/>
        <pt x="665" y="560" on="1"/>
        <pt x="665" y="530" on="0"/>
        <pt x="642" y="446" on="1"/>
        <pt x="559" y="161" on="0"/>
        <pt x="409" y="-11" on="1"/>
        <pt x="299" y="-142" on="0"/>
        <pt x="176" y="-142" on="1"/>
        <pt x="103" y="-142" on="0"/>
        <pt x="35" y="-42" on="0"/>
        <pt x="35" y="107" on="0"/>
        <pt x="58" y="151" on="1"/>
        <pt x="61" y="156" on="0"/>
        <pt x="61" y="162" on="0"/>
        <pt x="23" y="169" on="0"/>
        <pt x="23" y="176" on="1"/>
        <pt x="23" y="186" on="0"/>
        <pt x="40" y="194" on="1"/>
        <pt x="54" y="202" on="0"/>
        <pt x="65" y="202" on="1"/>
        <pt x="85" y="200" on="1"/>
        <pt x="225" y="206" on="1"/>
        <pt x="272" y="206" on="0"/>
        <pt x="294" y="200" on="1"/>
        <pt x="333" y="190" on="0"/>
        <pt x="333" y="154" on="1"/>
        <pt x="333" y="128" on="0"/>
        <pt x="301" y="109" on="1"/>
        <pt x="297" y="109" on="0"/>
        <pt x="297" y="111" on="1"/>
        <pt x="297" y="115" on="0"/>
        <pt x="308" y="126" on="1"/>
        <pt x="318" y="141" on="0"/>
        <pt x="318" y="142" on="1"/>
        <pt x="318" y="176" on="0"/>
      </contour>
    </TTGlyph>
    <TTGlyph name="Idieresis" xMin="23" yMin="-142" xMax="775" yMax="800">
      <contour>
        <pt x="214" y="176" on="1"/>
        <pt x="122" y="173" on="1"/>
        <pt x="104" y="173" on="0"/>
        <pt x="98" y="174" on="1"/>
        <pt x="99" y="173" on="0"/>
        <pt x="99" y="162" on="0"/>
        <pt x="93" y="149" on="1"/>
        <pt x="56" y="75" on="0"/>
        <pt x="56" y="-52" on="0"/>
        <pt x="88" y="-88" on="1"/>
        <pt x="122" y="-129" on="0"/>
        <pt x="179" y="-129" on="1"/>
        <pt x="282" y="-129" on="0"/>
        <pt x="389" y="27" on="1"/>
        <pt x="510" y="206" on="0"/>
        <pt x="600" y="484" on="1"/>
        <pt x="620" y="541" on="0"/>
        <pt x="620" y="556" on="0"/>
        <pt x="619" y="556" on="1"/>
        <pt x="608" y="556" on="0"/>
        <pt x="537" y="516" on="1"/>
        <pt x="512" y="359" on="0"/>
        <pt x="441" y="196" on="1"/>
        <pt x="356" y="1" on="0"/>
        <pt x="248" y="-69" on="1"/>
        <pt x="201" y="-101" on="0"/>
        <pt x="164" y="-101" on="1"/>
        <pt x="156" y="-101" on="0"/>
        <pt x="156" y="-89" on="0"/>
        <pt x="176" y="-86" on="0"/>
        <pt x="209" y="-76" on="1"/>
        <pt x="292" y="-38" on="0"/>
        <pt x="372" y="97" on="1"/>
        <pt x="479" y="278" on="0"/>
        <pt x="520" y="506" on="1"/>
        <pt x="472" y="477" on="0"/>
        <pt x="439" y="446" on="1"/>
        <pt x="413" y="419" on="0"/>
        <pt x="368" y="336" on="0"/>
        <pt x="368" y="293" on="0"/>
        <pt x="383" y="283" on="1"/>
        <pt x="388" y="280" on="0"/>
        <pt x="388" y="276" on="0"/>
        <pt x="366" y="276" on="0"/>
        <pt x="352" y="291" on="1"/>
        <pt x="339" y="307" on="0"/>
        <pt x="339" y="324" on="1"/>
        <pt x="339" y="374" on="0"/>
        <pt x="408" y="440" on="1"/>
        <pt x="460" y="487" on="0"/>
        <pt x="523" y="525" on="1"/>
        <pt x="537" y="609" on="0"/>
        <pt x="537" y="693" on="1"/>
        <pt x="537" y="699" on="0"/>
        <pt x="542" y="701" on="1"/>
        <pt x="547" y="698" on="0"/>
        <pt x="547" y="599" on="0"/>
        <pt x="539" y="535" on="1"/>
        <pt x="612" y="576" on="0"/>
        <pt x="648" y="576" on="1"/>
        <pt x="665" y="576" on="0"/>
        <pt x="665" y="560" on="1"/>
        <pt x="665" y="530" on="0"/>
        <pt x="642" y="446" on="1"/>
        <pt x="559" y="161" on="0"/>
        <pt x="409" y="-11" on="1"/>
        <pt x="299" y="-142" on="0"/>
        <pt x="176" y="-142" on="1"/>
        <pt x="103" y="-142" on="0"/>
        <pt x="35" y="-42" on="0"/>
        <pt x="35" y="107" on="0"/>
        <pt x="58" y="151" on="1"/>
        <pt x="61" y="156" on="0"/>
        <pt x="61" y="162" on="0"/>
        <pt x="23" y="169" on="0"/>
        <pt x="23" y="176" on="1"/>
        <pt x="23" y="186" on="0"/>
        <pt x="40" y="194" on="1"/>
        <pt x="54" y="202" on="0"/>
        <pt x="65" y="202" on="1"/>
        <pt x="85" y="200" on="1"/>
        <pt x="225" y="206" on="1"/>
        <pt x="272" y="206" on="0"/>
        <pt x="294" y="200" on="1"/>
        <pt x="333" y="190" on="0"/>
        <pt x="333" y="154" on="1"/>
        <pt x="333" y="128" on="0"/>
        <pt x="301" y="109" on="1"/>
        <pt x="297" y="109" on="0"/>
        <pt x="297" y="111" on="1"/>
        <pt x="297" y="115" on="0"/>
        <pt x="308" y="126" on="1"/>
        <pt x="318" y="141" on="0"/>
        <pt x="318" y="142" on="1"/>
        <pt x="318" y="176" on="0"/>
      </contour>
      <contour>
        <pt x="641" y="798" on="1"/>
        <pt x="641" y="797" on="0"/>
        <pt x="626" y="780" on="1"/>
        <pt x="618" y="767" on="0"/>
        <pt x="612" y="747" on="1"/>
        <pt x="602" y="714" on="0"/>
        <pt x="582" y="714" on="1"/>
        <pt x="576" y="714" on="0"/>
        <pt x="568" y="725" on="1"/>
        <pt x="561" y="736" on="0"/>
        <pt x="561" y="762" on="0"/>
        <pt x="579" y="770" on="1"/>
        <pt x="586" y="777" on="0"/>
        <pt x="630" y="800" on="0"/>
        <pt x="640" y="800" on="0"/>
        <pt x="641" y="799" on="1"/>
      </contour>
      <contour>
        <pt x="775" y="798" on="1"/>
        <pt x="775" y="797" on="0"/>
        <pt x="760" y="780" on="1"/>
        <pt x="752" y="767" on="0"/>
        <pt x="746" y="747" on="1"/>
        <pt x="736" y="714" on="0"/>
        <pt x="716" y="714" on="1"/>
        <pt x="710" y="714" on="0"/>
        <pt x="702" y="725" on="1"/>
        <pt x="695" y="736" on="0"/>
        <pt x="695" y="762" on="0"/>
        <pt x="713" y="770" on="1"/>
        <pt x="720" y="777" on="0"/>
        <pt x="764" y="800" on="0"/>
        <pt x="774" y="800" on="0"/>
        <pt x="775" y="799" on="1"/>
      </contour>
    </TTGlyph>
    <TTGlyph name="Igrave" xMin="23" yMin="-142" xMax="732" yMax="800">
      <contour>
        <pt x="214" y="176" on="1"/>
        <pt x="122" y="173" on="1"/>
        <pt x="104" y="173" on="0"/>
        <pt x="98" y="174" on="1"/>
        <pt x="99" y="173" on="0"/>
        <pt x="99" y="162" on="0"/>
        <pt x="93" y="149" on="1"/>
        <pt x="56" y="75" on="0"/>
        <pt x="56" y="-52" on="0"/>
        <pt x="88" y="-88" on="1"/>
        <pt x="122" y="-129" on="0"/>
        <pt x="179" y="-129" on="1"/>
        <pt x="282" y="-129" on="0"/>
        <pt x="389" y="27" on="1"/>
        <pt x="510" y="206" on="0"/>
        <pt x="600" y="484" on="1"/>
        <pt x="620" y="541" on="0"/>
        <pt x="620" y="556" on="0"/>
        <pt x="619" y="556" on="1"/>
        <pt x="608" y="556" on="0"/>
        <pt x="537" y="516" on="1"/>
        <pt x="512" y="359" on="0"/>
        <pt x="441" y="196" on="1"/>
        <pt x="356" y="1" on="0"/>
        <pt x="248" y="-69" on="1"/>
        <pt x="201" y="-101" on="0"/>
        <pt x="164" y="-101" on="1"/>
        <pt x="156" y="-101" on="0"/>
        <pt x="156" y="-89" on="0"/>
        <pt x="176" y="-86" on="0"/>
        <pt x="209" y="-76" on="1"/>
        <pt x="292" y="-38" on="0"/>
        <pt x="372" y="97" on="1"/>
        <pt x="479" y="278" on="0"/>
        <pt x="520" y="506" on="1"/>
        <pt x="472" y="477" on="0"/>
        <pt x="439" y="446" on="1"/>
        <pt x="413" y="419" on="0"/>
        <pt x="368" y="336" on="0"/>
        <pt x="368" y="293" on="0"/>
        <pt x="383" y="283" on="1"/>
        <pt x="388" y="280" on="0"/>
        <pt x="388" y="276" on="0"/>
        <pt x="366" y="276" on="0"/>
        <pt x="352" y="291" on="1"/>
        <pt x="339" y="307" on="0"/>
        <pt x="339" y="324" on="1"/>
        <pt x="339" y="374" on="0"/>
        <pt x="408" y="440" on="1"/>
        <pt x="460" y="487" on="0"/>
        <pt x="523" y="525" on="1"/>
        <pt x="537" y="609" on="0"/>
        <pt x="537" y="693" on="1"/>
        <pt x="537" y="699" on="0"/>
        <pt x="542" y="701" on="1"/>
        <pt x="547" y="698" on="0"/>
        <pt x="547" y="599" on="0"/>
        <pt x="539" y="535" on="1"/>
        <pt x="612" y="576" on="0"/>
        <pt x="648" y="576" on="1"/>
        <pt x="665" y="576" on="0"/>
        <pt x="665" y="560" on="1"/>
        <pt x="665" y="530" on="0"/>
        <pt x="642" y="446" on="1"/>
        <pt x="559" y="161" on="0"/>
        <pt x="409" y="-11" on="1"/>
        <pt x="299" y="-142" on="0"/>
        <pt x="176" y="-142" on="1"/>
        <pt x="103" y="-142" on="0"/>
        <pt x="35" y="-42" on="0"/>
        <pt x="35" y="107" on="0"/>
        <pt x="58" y="151" on="1"/>
        <pt x="61" y="156" on="0"/>
        <pt x="61" y="162" on="0"/>
        <pt x="23" y="169" on="0"/>
        <pt x="23" y="176" on="1"/>
        <pt x="23" y="186" on="0"/>
        <pt x="40" y="194" on="1"/>
        <pt x="54" y="202" on="0"/>
        <pt x="65" y="202" on="1"/>
        <pt x="85" y="200" on="1"/>
        <pt x="225" y="206" on="1"/>
        <pt x="272" y="206" on="0"/>
        <pt x="294" y="200" on="1"/>
        <pt x="333" y="190" on="0"/>
        <pt x="333" y="154" on="1"/>
        <pt x="333" y="128" on="0"/>
        <pt x="301" y="109" on="1"/>
        <pt x="297" y="109" on="0"/>
        <pt x="297" y="111" on="1"/>
        <pt x="297" y="115" on="0"/>
        <pt x="308" y="126" on="1"/>
        <pt x="318" y="141" on="0"/>
        <pt x="318" y="142" on="1"/>
        <pt x="318" y="176" on="0"/>
      </contour>
      <contour>
        <pt x="718" y="694" on="1"/>
        <pt x="732" y="683" on="0"/>
        <pt x="732" y="674" on="0"/>
        <pt x="730" y="674" on="1"/>
        <pt x="720" y="674" on="0"/>
        <pt x="676" y="702" on="1"/>
        <pt x="614" y="742" on="0"/>
        <pt x="605" y="746" on="1"/>
        <pt x="574" y="762" on="0"/>
        <pt x="574" y="776" on="1"/>
        <pt x="574" y="785" on="0"/>
        <pt x="595" y="800" on="0"/>
        <pt x="603" y="800" on="1"/>
        <pt x="627" y="800" on="0"/>
        <pt x="631" y="784" on="1"/>
        <pt x="638" y="758" on="0"/>
        <pt x="667" y="733" on="1"/>
        <pt x="672" y="728" on="0"/>
      </contour>
    </TTGlyph>
    <TTGlyph name="Itilde" xMin="23" yMin="-142" xMax="786" yMax="775">
      <contour>
        <pt x="214" y="176" on="1"/>
        <pt x="122" y="173" on="1"/>
        <pt x="104" y="173" on="0"/>
        <pt x="98" y="174" on="1"/>
        <pt x="99" y="173" on="0"/>
        <pt x="99" y="162" on="0"/>
        <pt x="93" y="149" on="1"/>
        <pt x="56" y="75" on="0"/>
        <pt x="56" y="-52" on="0"/>
        <pt x="88" y="-88" on="1"/>
        <pt x="122" y="-129" on="0"/>
        <pt x="179" y="-129" on="1"/>
        <pt x="282" y="-129" on="0"/>
        <pt x="389" y="27" on="1"/>
        <pt x="510" y="206" on="0"/>
        <pt x="600" y="484" on="1"/>
        <pt x="620" y="541" on="0"/>
        <pt x="620" y="556" on="0"/>
        <pt x="619" y="556" on="1"/>
        <pt x="608" y="556" on="0"/>
        <pt x="537" y="516" on="1"/>
        <pt x="512" y="359" on="0"/>
        <pt x="441" y="196" on="1"/>
        <pt x="356" y="1" on="0"/>
        <pt x="248" y="-69" on="1"/>
        <pt x="201" y="-101" on="0"/>
        <pt x="164" y="-101" on="1"/>
        <pt x="156" y="-101" on="0"/>
        <pt x="156" y="-89" on="0"/>
        <pt x="176" y="-86" on="0"/>
        <pt x="209" y="-76" on="1"/>
        <pt x="292" y="-38" on="0"/>
        <pt x="372" y="97" on="1"/>
        <pt x="479" y="278" on="0"/>
        <pt x="520" y="506" on="1"/>
        <pt x="472" y="477" on="0"/>
        <pt x="439" y="446" on="1"/>
        <pt x="413" y="419" on="0"/>
        <pt x="368" y="336" on="0"/>
        <pt x="368" y="293" on="0"/>
        <pt x="383" y="283" on="1"/>
        <pt x="388" y="280" on="0"/>
        <pt x="388" y="276" on="0"/>
        <pt x="366" y="276" on="0"/>
        <pt x="352" y="291" on="1"/>
        <pt x="339" y="307" on="0"/>
        <pt x="339" y="324" on="1"/>
        <pt x="339" y="374" on="0"/>
        <pt x="408" y="440" on="1"/>
        <pt x="460" y="487" on="0"/>
        <pt x="523" y="525" on="1"/>
        <pt x="537" y="609" on="0"/>
        <pt x="537" y="693" on="1"/>
        <pt x="537" y="699" on="0"/>
        <pt x="542" y="701" on="1"/>
        <pt x="547" y="698" on="0"/>
        <pt x="547" y="599" on="0"/>
        <pt x="539" y="535" on="1"/>
        <pt x="612" y="576" on="0"/>
        <pt x="648" y="576" on="1"/>
        <pt x="665" y="576" on="0"/>
        <pt x="665" y="560" on="1"/>
        <pt x="665" y="530" on="0"/>
        <pt x="642" y="446" on="1"/>
        <pt x="559" y="161" on="0"/>
        <pt x="409" y="-11" on="1"/>
        <pt x="299" y="-142" on="0"/>
        <pt x="176" y="-142" on="1"/>
        <pt x="103" y="-142" on="0"/>
        <pt x="35" y="-42" on="0"/>
        <pt x="35" y="107" on="0"/>
        <pt x="58" y="151" on="1"/>
        <pt x="61" y="156" on="0"/>
        <pt x="61" y="162" on="0"/>
        <pt x="23" y="169" on="0"/>
        <pt x="23" y="176" on="1"/>
        <pt x="23" y="186" on="0"/>
        <pt x="40" y="194" on="1"/>
        <pt x="54" y="202" on="0"/>
        <pt x="65" y="202" on="1"/>
        <pt x="85" y="200" on="1"/>
        <pt x="225" y="206" on="1"/>
        <pt x="272" y="206" on="0"/>
        <pt x="294" y="200" on="1"/>
        <pt x="333" y="190" on="0"/>
        <pt x="333" y="154" on="1"/>
        <pt x="333" y="128" on="0"/>
        <pt x="301" y="109" on="1"/>
        <pt x="297" y="109" on="0"/>
        <pt x="297" y="111" on="1"/>
        <pt x="297" y="115" on="0"/>
        <pt x="308" y="126" on="1"/>
        <pt x="318" y="141" on="0"/>
        <pt x="318" y="142" on="1"/>
        <pt x="318" y="176" on="0"/>
      </contour>
      <contour>
        <pt x="785" y="760" on="1"/>
        <pt x="785" y="743" on="0"/>
        <pt x="744" y="709" on="0"/>
        <pt x="687" y="709" on="0"/>
        <pt x="645" y="727" on="0"/>
        <pt x="627" y="736" on="1"/>
        <pt x="594" y="751" on="0"/>
        <pt x="584" y="751" on="1"/>
        <pt x="552" y="751" on="0"/>
        <pt x="534" y="724" on="1"/>
        <pt x="530" y="719" on="0"/>
        <pt x="524" y="724" on="0"/>
        <pt x="524" y="728" on="1"/>
        <pt x="524" y="749" on="0"/>
        <pt x="560" y="775" on="0"/>
        <pt x="618" y="775" on="0"/>
        <pt x="662" y="757" on="0"/>
        <pt x="689" y="745" on="0"/>
        <pt x="695" y="742" on="1"/>
        <pt x="713" y="735" on="0"/>
        <pt x="726" y="735" on="1"/>
        <pt x="751" y="735" on="0"/>
        <pt x="778" y="762" on="1"/>
        <pt x="780" y="765" on="0"/>
        <pt x="785" y="762" on="0"/>
      </contour>
    </TTGlyph>
    <TTGlyph name="J" xMin="-167" yMin="-230" xMax="706" yMax="662">
      <contour>
        <pt x="191" y="86" on="1"/>
        <pt x="223" y="89" on="1"/>
        <pt x="227" y="89" on="0"/>
        <pt x="227" y="87" on="1"/>
        <pt x="227" y="77" on="0"/>
        <pt x="110" y="77" on="0"/>
        <pt x="65" y="109" on="1"/>
        <pt x="11" y="146" on="0"/>
        <pt x="11" y="212" on="1"/>
        <pt x="11" y="431" on="0"/>
        <pt x="389" y="533" on="1"/>
        <pt x="394" y="581" on="0"/>
        <pt x="394" y="636" on="1"/>
        <pt x="394" y="642" on="0"/>
        <pt x="400" y="643" on="1"/>
        <pt x="406" y="642" on="0"/>
        <pt x="406" y="573" on="0"/>
        <pt x="404" y="537" on="1"/>
        <pt x="488" y="557" on="1"/>
        <pt x="512" y="616" on="0"/>
        <pt x="567" y="662" on="0"/>
        <pt x="628" y="662" on="1"/>
        <pt x="654" y="662" on="0"/>
        <pt x="678" y="651" on="1"/>
        <pt x="706" y="635" on="0"/>
        <pt x="706" y="612" on="1"/>
        <pt x="706" y="582" on="0"/>
        <pt x="611" y="563" on="0"/>
        <pt x="546" y="553" on="1"/>
        <pt x="468" y="303" on="0"/>
        <pt x="456" y="267" on="1"/>
        <pt x="338" y="-87" on="0"/>
        <pt x="111" y="-205" on="1"/>
        <pt x="65" y="-230" on="0"/>
        <pt x="-48" y="-230" on="0"/>
        <pt x="-167" y="-134" on="0"/>
        <pt x="-167" y="-75" on="1"/>
        <pt x="-167" y="-68" on="0"/>
        <pt x="-163" y="-68" on="1"/>
        <pt x="-162" y="-68" on="0"/>
        <pt x="-157" y="-84" on="0"/>
        <pt x="-145" y="-112" on="1"/>
        <pt x="-106" y="-191" on="0"/>
        <pt x="-4" y="-191" on="1"/>
        <pt x="56" y="-191" on="0"/>
        <pt x="115" y="-161" on="1"/>
        <pt x="237" y="-98" on="0"/>
        <pt x="309" y="28" on="1"/>
        <pt x="354" y="109" on="0"/>
        <pt x="407" y="285" on="1"/>
        <pt x="433" y="375" on="0"/>
        <pt x="482" y="541" on="1"/>
        <pt x="402" y="521" on="1"/>
        <pt x="385" y="350" on="0"/>
        <pt x="313" y="170" on="1"/>
        <pt x="229" y="-40" on="0"/>
        <pt x="113" y="-122" on="1"/>
        <pt x="60" y="-158" on="0"/>
        <pt x="23" y="-158" on="1"/>
        <pt x="14" y="-158" on="0"/>
        <pt x="14" y="-146" on="0"/>
        <pt x="22" y="-144" on="1"/>
        <pt x="141" y="-128" on="0"/>
        <pt x="245" y="66" on="1"/>
        <pt x="360" y="279" on="0"/>
        <pt x="388" y="517" on="1"/>
        <pt x="47" y="415" on="0"/>
        <pt x="47" y="212" on="1"/>
        <pt x="47" y="153" on="0"/>
        <pt x="130" y="86" on="0"/>
      </contour>
      <contour>
        <pt x="698" y="617" on="1"/>
        <pt x="698" y="651" on="0"/>
        <pt x="644" y="651" on="1"/>
        <pt x="599" y="651" on="0"/>
        <pt x="555" y="568" on="1"/>
        <pt x="584" y="571" on="0"/>
        <pt x="673" y="590" on="1"/>
        <pt x="698" y="600" on="0"/>
      </contour>
    </TTGlyph>
    <TTGlyph name="Jcircumflex" xMin="-167" yMin="-230" xMax="785" yMax="794">
      <contour>
        <pt x="191" y="86" on="1"/>
        <pt x="223" y="89" on="1"/>
        <pt x="227" y="89" on="0"/>
        <pt x="227" y="87" on="1"/>
        <pt x="227" y="77" on="0"/>
        <pt x="110" y="77" on="0"/>
        <pt x="65" y="109" on="1"/>
        <pt x="11" y="146" on="0"/>
        <pt x="11" y="212" on="1"/>
        <pt x="11" y="431" on="0"/>
        <pt x="389" y="533" on="1"/>
        <pt x="394" y="581" on="0"/>
        <pt x="394" y="636" on="1"/>
        <pt x="394" y="642" on="0"/>
        <pt x="400" y="643" on="1"/>
        <pt x="406" y="642" on="0"/>
        <pt x="406" y="573" on="0"/>
        <pt x="404" y="537" on="1"/>
        <pt x="488" y="557" on="1"/>
        <pt x="512" y="616" on="0"/>
        <pt x="567" y="662" on="0"/>
        <pt x="628" y="662" on="1"/>
        <pt x="654" y="662" on="0"/>
        <pt x="678" y="651" on="1"/>
        <pt x="706" y="635" on="0"/>
        <pt x="706" y="612" on="1"/>
        <pt x="706" y="582" on="0"/>
        <pt x="611" y="563" on="0"/>
        <pt x="546" y="553" on="1"/>
        <pt x="468" y="303" on="0"/>
        <pt x="456" y="267" on="1"/>
        <pt x="338" y="-87" on="0"/>
        <pt x="111" y="-205" on="1"/>
        <pt x="65" y="-230" on="0"/>
        <pt x="-48" y="-230" on="0"/>
        <pt x="-167" y="-134" on="0"/>
        <pt x="-167" y="-75" on="1"/>
        <pt x="-167" y="-68" on="0"/>
        <pt x="-163" y="-68" on="1"/>
        <pt x="-162" y="-68" on="0"/>
        <pt x="-157" y="-84" on="0"/>
        <pt x="-145" y="-112" on="1"/>
        <pt x="-106" y="-191" on="0"/>
        <pt x="-4" y="-191" on="1"/>
        <pt x="56" y="-191" on="0"/>
        <pt x="115" y="-161" on="1"/>
        <pt x="237" y="-98" on="0"/>
        <pt x="309" y="28" on="1"/>
        <pt x="354" y="109" on="0"/>
        <pt x="407" y="285" on="1"/>
        <pt x="433" y="375" on="0"/>
        <pt x="482" y="541" on="1"/>
        <pt x="402" y="521" on="1"/>
        <pt x="385" y="350" on="0"/>
        <pt x="313" y="170" on="1"/>
        <pt x="229" y="-40" on="0"/>
        <pt x="113" y="-122" on="1"/>
        <pt x="60" y="-158" on="0"/>
        <pt x="23" y="-158" on="1"/>
        <pt x="14" y="-158" on="0"/>
        <pt x="14" y="-146" on="0"/>
        <pt x="22" y="-144" on="1"/>
        <pt x="141" y="-128" on="0"/>
        <pt x="245" y="66" on="1"/>
        <pt x="360" y="279" on="0"/>
        <pt x="388" y="517" on="1"/>
        <pt x="47" y="415" on="0"/>
        <pt x="47" y="212" on="1"/>
        <pt x="47" y="153" on="0"/>
        <pt x="130" y="86" on="0"/>
      </contour>
      <contour>
        <pt x="785" y="669" on="0"/>
        <pt x="757" y="669" on="0"/>
        <pt x="694" y="715" on="0"/>
        <pt x="669" y="737" on="0"/>
        <pt x="652" y="755" on="0"/>
        <pt x="650" y="757" on="1"/>
        <pt x="528" y="673" on="0"/>
        <pt x="516" y="673" on="1"/>
        <pt x="511" y="673" on="0"/>
        <pt x="511" y="680" on="0"/>
        <pt x="512" y="683" on="1"/>
        <pt x="514" y="694" on="0"/>
        <pt x="638" y="780" on="0"/>
        <pt x="663" y="793" on="0"/>
        <pt x="676" y="793" on="0"/>
        <pt x="683" y="784" on="1"/>
        <pt x="718" y="739" on="0"/>
        <pt x="778" y="686" on="1"/>
        <pt x="785" y="681" on="0"/>
      </contour>
      <contour>
        <pt x="698" y="617" on="1"/>
        <pt x="698" y="651" on="0"/>
        <pt x="644" y="651" on="1"/>
        <pt x="599" y="651" on="0"/>
        <pt x="555" y="568" on="1"/>
        <pt x="584" y="571" on="0"/>
        <pt x="673" y="590" on="1"/>
        <pt x="698" y="600" on="0"/>
      </contour>
    </TTGlyph>
    <TTGlyph name="K" xMin="1" yMin="-198" xMax="1185" yMax="589">
      <contour>
        <pt x="239" y="185" on="1"/>
        <pt x="230" y="221" on="0"/>
        <pt x="189" y="221" on="1"/>
        <pt x="118" y="221" on="0"/>
        <pt x="75" y="150" on="1"/>
        <pt x="36" y="88" on="0"/>
        <pt x="36" y="-48" on="0"/>
        <pt x="66" y="-87" on="1"/>
        <pt x="97" y="-132" on="0"/>
        <pt x="160" y="-132" on="1"/>
        <pt x="188" y="-132" on="0"/>
        <pt x="220" y="-123" on="1"/>
        <pt x="304" y="-97" on="0"/>
        <pt x="396" y="37" on="1"/>
        <pt x="464" y="134" on="0"/>
        <pt x="516" y="256" on="1"/>
        <pt x="481" y="295" on="0"/>
        <pt x="441" y="318" on="1"/>
        <pt x="433" y="325" on="1"/>
        <pt x="438" y="330" on="0"/>
        <pt x="446" y="330" on="1"/>
        <pt x="470" y="330" on="0"/>
        <pt x="522" y="270" on="1"/>
        <pt x="581" y="410" on="0"/>
        <pt x="614" y="566" on="1"/>
        <pt x="606" y="567" on="0"/>
        <pt x="591" y="567" on="1"/>
        <pt x="501" y="567" on="0"/>
        <pt x="410" y="540" on="1"/>
        <pt x="281" y="502" on="0"/>
        <pt x="281" y="440" on="1"/>
        <pt x="281" y="423" on="0"/>
        <pt x="291" y="409" on="1"/>
        <pt x="301" y="395" on="1"/>
        <pt x="301" y="393" on="0"/>
        <pt x="298" y="393" on="1"/>
        <pt x="286" y="393" on="0"/>
        <pt x="269" y="416" on="1"/>
        <pt x="250" y="439" on="0"/>
        <pt x="250" y="455" on="1"/>
        <pt x="250" y="500" on="0"/>
        <pt x="483" y="584" on="0"/>
        <pt x="607" y="584" on="1"/>
        <pt x="649" y="584" on="0"/>
        <pt x="663" y="577" on="1"/>
        <pt x="666" y="576" on="0"/>
        <pt x="666" y="564" on="1"/>
        <pt x="666" y="512" on="0"/>
        <pt x="589" y="295" on="0"/>
        <pt x="558" y="226" on="1"/>
        <pt x="573" y="210" on="0"/>
        <pt x="583" y="194" on="1"/>
        <pt x="673" y="366" on="0"/>
        <pt x="750" y="452" on="1"/>
        <pt x="872" y="589" on="0"/>
        <pt x="1013" y="589" on="1"/>
        <pt x="1088" y="589" on="0"/>
        <pt x="1185" y="482" on="0"/>
        <pt x="1185" y="407" on="1"/>
        <pt x="1185" y="386" on="0"/>
        <pt x="1180" y="386" on="1"/>
        <pt x="1177" y="386" on="0"/>
        <pt x="1177" y="403" on="1"/>
        <pt x="1177" y="472" on="0"/>
        <pt x="1074" y="554" on="0"/>
        <pt x="1001" y="554" on="1"/>
        <pt x="873" y="554" on="0"/>
        <pt x="754" y="426" on="1"/>
        <pt x="676" y="339" on="0"/>
        <pt x="590" y="185" on="1"/>
        <pt x="703" y="31" on="0"/>
        <pt x="714" y="16" on="1"/>
        <pt x="797" y="-94" on="0"/>
        <pt x="903" y="-166" on="0"/>
        <pt x="937" y="-166" on="1"/>
        <pt x="991" y="-166" on="0"/>
        <pt x="991" y="-29" on="0"/>
        <pt x="950" y="27" on="1"/>
        <pt x="947" y="30" on="0"/>
        <pt x="947" y="35" on="0"/>
        <pt x="956" y="35" on="0"/>
        <pt x="960" y="28" on="1"/>
        <pt x="1007" y="-26" on="0"/>
        <pt x="1007" y="-90" on="1"/>
        <pt x="1007" y="-136" on="0"/>
        <pt x="951" y="-198" on="0"/>
        <pt x="906" y="-198" on="1"/>
        <pt x="840" y="-198" on="0"/>
        <pt x="768" y="-135" on="1"/>
        <pt x="698" y="-76" on="0"/>
        <pt x="655" y="3" on="1"/>
        <pt x="640" y="33" on="0"/>
        <pt x="586" y="144" on="0"/>
        <pt x="577" y="161" on="1"/>
        <pt x="534" y="85" on="1"/>
        <pt x="454" y="-58" on="0"/>
        <pt x="410" y="-58" on="1"/>
        <pt x="395" y="-58" on="0"/>
        <pt x="395" y="-48" on="1"/>
        <pt x="395" y="-43" on="0"/>
        <pt x="408" y="-42" on="1"/>
        <pt x="455" y="-36" on="0"/>
        <pt x="512" y="61" on="1"/>
        <pt x="519" y="72" on="0"/>
        <pt x="571" y="171" on="1"/>
        <pt x="559" y="194" on="0"/>
        <pt x="550" y="209" on="1"/>
        <pt x="379" y="-143" on="0"/>
        <pt x="163" y="-143" on="1"/>
        <pt x="89" y="-143" on="0"/>
        <pt x="1" y="-48" on="0"/>
        <pt x="1" y="111" on="0"/>
        <pt x="100" y="239" on="0"/>
        <pt x="179" y="239" on="1"/>
        <pt x="202" y="239" on="0"/>
        <pt x="221" y="226" on="1"/>
        <pt x="242" y="215" on="0"/>
        <pt x="242" y="192" on="1"/>
        <pt x="242" y="186" on="0"/>
      </contour>
    </TTGlyph>
    <TTGlyph name="L" xMin="-51" yMin="-190" xMax="961" yMax="619">
      <contour>
        <pt x="961" y="-76" on="1"/>
        <pt x="961" y="-128" on="0"/>
        <pt x="897" y="-162" on="1"/>
        <pt x="844" y="-190" on="0"/>
        <pt x="721" y="-190" on="0"/>
        <pt x="573" y="-127" on="0"/>
        <pt x="361" y="-11" on="0"/>
        <pt x="322" y="6" on="1"/>
        <pt x="263" y="-62" on="0"/>
        <pt x="148" y="-135" on="0"/>
        <pt x="72" y="-135" on="1"/>
        <pt x="31" y="-135" on="0"/>
        <pt x="-51" y="-77" on="0"/>
        <pt x="-51" y="-38" on="1"/>
        <pt x="-51" y="17" on="0"/>
        <pt x="4" y="45" on="1"/>
        <pt x="48" y="68" on="0"/>
        <pt x="170" y="68" on="0"/>
        <pt x="263" y="39" on="1"/>
        <pt x="294" y="81" on="0"/>
        <pt x="328" y="145" on="1"/>
        <pt x="321" y="144" on="0"/>
        <pt x="306" y="144" on="1"/>
        <pt x="96" y="144" on="0"/>
        <pt x="96" y="293" on="1"/>
        <pt x="96" y="372" on="0"/>
        <pt x="180" y="417" on="1"/>
        <pt x="184" y="420" on="0"/>
        <pt x="191" y="420" on="0"/>
        <pt x="191" y="415" on="0"/>
        <pt x="190" y="414" on="1"/>
        <pt x="127" y="391" on="0"/>
        <pt x="127" y="246" on="0"/>
        <pt x="197" y="201" on="1"/>
        <pt x="257" y="162" on="0"/>
        <pt x="336" y="161" on="1"/>
        <pt x="358" y="202" on="0"/>
        <pt x="466" y="434" on="0"/>
        <pt x="503" y="489" on="1"/>
        <pt x="590" y="619" on="0"/>
        <pt x="689" y="619" on="1"/>
        <pt x="700" y="619" on="0"/>
        <pt x="700" y="613" on="0"/>
        <pt x="689" y="613" on="1"/>
        <pt x="594" y="613" on="0"/>
        <pt x="508" y="479" on="1"/>
        <pt x="480" y="434" on="0"/>
        <pt x="368" y="195" on="0"/>
        <pt x="350" y="161" on="1"/>
        <pt x="382" y="161" on="0"/>
        <pt x="415" y="167" on="1"/>
        <pt x="422" y="175" on="0"/>
        <pt x="444" y="227" on="1"/>
        <pt x="463" y="278" on="0"/>
        <pt x="469" y="291" on="1"/>
        <pt x="609" y="611" on="0"/>
        <pt x="781" y="611" on="1"/>
        <pt x="816" y="611" on="0"/>
        <pt x="858" y="563" on="0"/>
        <pt x="858" y="526" on="1"/>
        <pt x="858" y="377" on="0"/>
        <pt x="532" y="210" on="1"/>
        <pt x="490" y="188" on="0"/>
        <pt x="463" y="177" on="0"/>
        <pt x="458" y="174" on="1"/>
        <pt x="450" y="170" on="0"/>
        <pt x="427" y="160" on="1"/>
        <pt x="419" y="146" on="0"/>
        <pt x="358" y="51" on="0"/>
        <pt x="334" y="19" on="1"/>
        <pt x="591" y="-81" on="1"/>
        <pt x="749" y="-141" on="0"/>
        <pt x="950" y="-141" on="0"/>
        <pt x="950" y="-84" on="1"/>
        <pt x="950" y="-47" on="0"/>
        <pt x="916" y="5" on="1"/>
        <pt x="934" y="-6" on="0"/>
        <pt x="946" y="-30" on="1"/>
        <pt x="961" y="-55" on="0"/>
      </contour>
      <contour>
        <pt x="847" y="540" on="1"/>
        <pt x="847" y="562" on="0"/>
        <pt x="812" y="582" on="0"/>
        <pt x="788" y="582" on="1"/>
        <pt x="676" y="582" on="0"/>
        <pt x="510" y="297" on="1"/>
        <pt x="461" y="213" on="0"/>
        <pt x="436" y="174" on="1"/>
        <pt x="533" y="208" on="0"/>
        <pt x="680" y="327" on="1"/>
        <pt x="847" y="462" on="0"/>
      </contour>
      <contour>
        <pt x="85" y="-78" on="1"/>
        <pt x="71" y="-78" on="0"/>
        <pt x="71" y="-71" on="0"/>
        <pt x="85" y="-71" on="1"/>
        <pt x="178" y="-71" on="0"/>
        <pt x="256" y="31" on="1"/>
        <pt x="164" y="61" on="0"/>
        <pt x="61" y="61" on="0"/>
        <pt x="-31" y="19" on="0"/>
        <pt x="-31" y="-62" on="0"/>
        <pt x="8" y="-87" on="1"/>
        <pt x="39" y="-109" on="0"/>
        <pt x="135" y="-109" on="0"/>
        <pt x="281" y="-33" on="0"/>
        <pt x="311" y="9" on="1"/>
        <pt x="297" y="18" on="0"/>
        <pt x="267" y="28" on="1"/>
        <pt x="185" y="-78" on="0"/>
      </contour>
      <contour>
        <pt x="408" y="153" on="1"/>
        <pt x="361" y="147" on="0"/>
        <pt x="342" y="146" on="1"/>
        <pt x="310" y="88" on="0"/>
        <pt x="274" y="36" on="1"/>
        <pt x="284" y="32" on="0"/>
        <pt x="319" y="22" on="1"/>
        <pt x="333" y="36" on="0"/>
      </contour>
    </TTGlyph>
    <TTGlyph name="Ldotaccent" xMin="-51" yMin="-190" xMax="961" yMax="619">
      <contour>
        <pt x="961" y="-76" on="1"/>
        <pt x="961" y="-128" on="0"/>
        <pt x="897" y="-162" on="1"/>
        <pt x="844" y="-190" on="0"/>
        <pt x="721" y="-190" on="0"/>
        <pt x="573" y="-127" on="0"/>
        <pt x="361" y="-11" on="0"/>
        <pt x="322" y="6" on="1"/>
        <pt x="263" y="-62" on="0"/>
        <pt x="148" y="-135" on="0"/>
        <pt x="72" y="-135" on="1"/>
        <pt x="31" y="-135" on="0"/>
        <pt x="-51" y="-77" on="0"/>
        <pt x="-51" y="-38" on="1"/>
        <pt x="-51" y="17" on="0"/>
        <pt x="4" y="45" on="1"/>
        <pt x="48" y="68" on="0"/>
        <pt x="170" y="68" on="0"/>
        <pt x="263" y="39" on="1"/>
        <pt x="294" y="81" on="0"/>
        <pt x="328" y="145" on="1"/>
        <pt x="321" y="144" on="0"/>
        <pt x="306" y="144" on="1"/>
        <pt x="96" y="144" on="0"/>
        <pt x="96" y="293" on="1"/>
        <pt x="96" y="372" on="0"/>
        <pt x="180" y="417" on="1"/>
        <pt x="184" y="420" on="0"/>
        <pt x="191" y="420" on="0"/>
        <pt x="191" y="415" on="0"/>
        <pt x="190" y="414" on="1"/>
        <pt x="127" y="391" on="0"/>
        <pt x="127" y="246" on="0"/>
        <pt x="197" y="201" on="1"/>
        <pt x="257" y="162" on="0"/>
        <pt x="336" y="161" on="1"/>
        <pt x="358" y="202" on="0"/>
        <pt x="466" y="434" on="0"/>
        <pt x="503" y="489" on="1"/>
        <pt x="590" y="619" on="0"/>
        <pt x="689" y="619" on="1"/>
        <pt x="700" y="619" on="0"/>
        <pt x="700" y="613" on="0"/>
        <pt x="689" y="613" on="1"/>
        <pt x="594" y="613" on="0"/>
        <pt x="508" y="479" on="1"/>
        <pt x="480" y="434" on="0"/>
        <pt x="368" y="195" on="0"/>
        <pt x="350" y="161" on="1"/>
        <pt x="382" y="161" on="0"/>
        <pt x="415" y="167" on="1"/>
        <pt x="422" y="175" on="0"/>
        <pt x="444" y="227" on="1"/>
        <pt x="463" y="278" on="0"/>
        <pt x="469" y="291" on="1"/>
        <pt x="609" y="611" on="0"/>
        <pt x="781" y="611" on="1"/>
        <pt x="816" y="611" on="0"/>
        <pt x="858" y="563" on="0"/>
        <pt x="858" y="526" on="1"/>
        <pt x="858" y="377" on="0"/>
        <pt x="532" y="210" on="1"/>
        <pt x="490" y="188" on="0"/>
        <pt x="463" y="177" on="0"/>
        <pt x="458" y="174" on="1"/>
        <pt x="450" y="170" on="0"/>
        <pt x="427" y="160" on="1"/>
        <pt x="419" y="146" on="0"/>
        <pt x="358" y="51" on="0"/>
        <pt x="334" y="19" on="1"/>
        <pt x="591" y="-81" on="1"/>
        <pt x="749" y="-141" on="0"/>
        <pt x="950" y="-141" on="0"/>
        <pt x="950" y="-84" on="1"/>
        <pt x="950" y="-47" on="0"/>
        <pt x="916" y="5" on="1"/>
        <pt x="934" y="-6" on="0"/>
        <pt x="946" y="-30" on="1"/>
        <pt x="961" y="-55" on="0"/>
      </contour>
      <contour>
        <pt x="847" y="540" on="1"/>
        <pt x="847" y="562" on="0"/>
        <pt x="812" y="582" on="0"/>
        <pt x="788" y="582" on="1"/>
        <pt x="676" y="582" on="0"/>
        <pt x="510" y="297" on="1"/>
        <pt x="461" y="213" on="0"/>
        <pt x="436" y="174" on="1"/>
        <pt x="533" y="208" on="0"/>
        <pt x="680" y="327" on="1"/>
        <pt x="847" y="462" on="0"/>
      </contour>
      <contour>
        <pt x="85" y="-78" on="1"/>
        <pt x="71" y="-78" on="0"/>
        <pt x="71" y="-71" on="0"/>
        <pt x="85" y="-71" on="1"/>
        <pt x="178" y="-71" on="0"/>
        <pt x="256" y="31" on="1"/>
        <pt x="164" y="61" on="0"/>
        <pt x="61" y="61" on="0"/>
        <pt x="-31" y="19" on="0"/>
        <pt x="-31" y="-62" on="0"/>
        <pt x="8" y="-87" on="1"/>
        <pt x="39" y="-109" on="0"/>
        <pt x="135" y="-109" on="0"/>
        <pt x="281" y="-33" on="0"/>
        <pt x="311" y="9" on="1"/>
        <pt x="297" y="18" on="0"/>
        <pt x="267" y="28" on="1"/>
        <pt x="185" y="-78" on="0"/>
      </contour>
      <contour>
        <pt x="408" y="153" on="1"/>
        <pt x="361" y="147" on="0"/>
        <pt x="342" y="146" on="1"/>
        <pt x="310" y="88" on="0"/>
        <pt x="274" y="36" on="1"/>
        <pt x="284" y="32" on="0"/>
        <pt x="319" y="22" on="1"/>
        <pt x="333" y="36" on="0"/>
      </contour>
      <contour>
        <pt x="616" y="169" on="1"/>
        <pt x="621" y="169" on="0"/>
        <pt x="621" y="153" on="0"/>
        <pt x="600" y="81" on="0"/>
        <pt x="580" y="81" on="1"/>
        <pt x="574" y="81" on="0"/>
        <pt x="566" y="92" on="1"/>
        <pt x="559" y="103" on="0"/>
        <pt x="559" y="130" on="0"/>
        <pt x="577" y="137" on="1"/>
        <pt x="606" y="169" on="0"/>
      </contour>
    </TTGlyph>
    <TTGlyph name="Lslash" xMin="-97" yMin="-121" xMax="712" yMax="686">
      <contour>
        <pt x="675" y="98" on="1"/>
        <pt x="712" y="64" on="0"/>
        <pt x="712" y="-24" on="0"/>
        <pt x="604" y="-106" on="0"/>
        <pt x="526" y="-121" on="0"/>
        <pt x="503" y="-121" on="1"/>
        <pt x="418" y="-121" on="0"/>
        <pt x="274" y="-73" on="1"/>
        <pt x="75" y="-6" on="0"/>
        <pt x="47" y="0" on="1"/>
        <pt x="-6" y="-31" on="1"/>
        <pt x="-36" y="-48" on="0"/>
        <pt x="-97" y="-48" on="0"/>
        <pt x="-97" y="-35" on="1"/>
        <pt x="-97" y="-27" on="0"/>
        <pt x="-74" y="-27" on="1"/>
        <pt x="1" y="-27" on="0"/>
        <pt x="203" y="271" on="1"/>
        <pt x="41" y="198" on="0"/>
        <pt x="33" y="198" on="1"/>
        <pt x="20" y="198" on="0"/>
        <pt x="20" y="223" on="1"/>
        <pt x="20" y="231" on="0"/>
        <pt x="24" y="232" on="1"/>
        <pt x="78" y="255" on="0"/>
        <pt x="241" y="325" on="1"/>
        <pt x="388" y="553" on="0"/>
        <pt x="414" y="589" on="1"/>
        <pt x="485" y="686" on="0"/>
        <pt x="561" y="686" on="1"/>
        <pt x="613" y="686" on="0"/>
        <pt x="641" y="639" on="1"/>
        <pt x="664" y="602" on="0"/>
        <pt x="664" y="481" on="0"/>
        <pt x="641" y="426" on="1"/>
        <pt x="640" y="423" on="0"/>
        <pt x="627" y="423" on="0"/>
        <pt x="627" y="429" on="1"/>
        <pt x="629" y="435" on="1"/>
        <pt x="650" y="482" on="0"/>
        <pt x="650" y="571" on="0"/>
        <pt x="608" y="657" on="0"/>
        <pt x="568" y="657" on="1"/>
        <pt x="511" y="657" on="0"/>
        <pt x="374" y="458" on="0"/>
        <pt x="303" y="348" on="1"/>
        <pt x="373" y="371" on="0"/>
        <pt x="492" y="385" on="0"/>
        <pt x="494" y="385" on="1"/>
        <pt x="502" y="385" on="0"/>
        <pt x="502" y="372" on="0"/>
        <pt x="496" y="371" on="1"/>
        <pt x="423" y="354" on="0"/>
        <pt x="359" y="336" on="0"/>
        <pt x="272" y="300" on="1"/>
        <pt x="155" y="117" on="0"/>
        <pt x="99" y="40" on="0"/>
        <pt x="72" y="15" on="1"/>
        <pt x="300" y="-31" on="1"/>
        <pt x="436" y="-58" on="0"/>
        <pt x="587" y="-58" on="0"/>
        <pt x="634" y="-45" on="1"/>
        <pt x="702" y="-25" on="0"/>
        <pt x="702" y="17" on="1"/>
        <pt x="702" y="38" on="0"/>
        <pt x="659" y="101" on="0"/>
        <pt x="659" y="108" on="0"/>
        <pt x="661" y="108" on="1"/>
        <pt x="665" y="108" on="0"/>
      </contour>
    </TTGlyph>
    <TTGlyph name="M" xMin="-6" yMin="-137" xMax="1337" yMax="675">
      <contour>
        <pt x="1320" y="519" on="1"/>
        <pt x="1329" y="569" on="1"/>
        <pt x="1329" y="636" on="0"/>
        <pt x="1259" y="636" on="1"/>
        <pt x="1150" y="636" on="0"/>
        <pt x="1001" y="454" on="1"/>
        <pt x="966" y="223" on="0"/>
        <pt x="966" y="130" on="1"/>
        <pt x="966" y="-20" on="0"/>
        <pt x="1022" y="-20" on="1"/>
        <pt x="1068" y="-20" on="0"/>
        <pt x="1138" y="91" on="1"/>
        <pt x="1160" y="126" on="1"/>
        <pt x="1164" y="133" on="0"/>
        <pt x="1167" y="133" on="1"/>
        <pt x="1168" y="132" on="0"/>
        <pt x="1168" y="125" on="0"/>
        <pt x="1166" y="123" on="1"/>
        <pt x="1084" y="-32" on="0"/>
        <pt x="1015" y="-32" on="1"/>
        <pt x="916" y="-32" on="0"/>
        <pt x="916" y="109" on="1"/>
        <pt x="916" y="207" on="0"/>
        <pt x="976" y="423" on="1"/>
        <pt x="918" y="349" on="0"/>
        <pt x="756" y="90" on="1"/>
        <pt x="697" y="-5" on="0"/>
        <pt x="614" y="-84" on="0"/>
        <pt x="605" y="-84" on="1"/>
        <pt x="603" y="-84" on="0"/>
        <pt x="603" y="-71" on="0"/>
        <pt x="611" y="-69" on="1"/>
        <pt x="622" y="-52" on="0"/>
        <pt x="622" y="43" on="0"/>
        <pt x="602" y="149" on="1"/>
        <pt x="588" y="235" on="0"/>
        <pt x="588" y="389" on="0"/>
        <pt x="607" y="475" on="1"/>
        <pt x="634" y="593" on="0"/>
        <pt x="688" y="593" on="1"/>
        <pt x="690" y="593" on="0"/>
        <pt x="690" y="588" on="0"/>
        <pt x="685" y="585" on="1"/>
        <pt x="638" y="561" on="0"/>
        <pt x="638" y="422" on="1"/>
        <pt x="638" y="319" on="0"/>
        <pt x="665" y="148" on="1"/>
        <pt x="668" y="130" on="0"/>
        <pt x="668" y="110" on="1"/>
        <pt x="668" y="7" on="0"/>
        <pt x="623" y="-63" on="1"/>
        <pt x="670" y="-33" on="0"/>
        <pt x="784" y="159" on="1"/>
        <pt x="824" y="228" on="0"/>
        <pt x="946" y="417" on="0"/>
        <pt x="990" y="472" on="1"/>
        <pt x="1005" y="532" on="0"/>
        <pt x="1011" y="532" on="0"/>
        <pt x="1011" y="516" on="0"/>
        <pt x="1007" y="493" on="1"/>
        <pt x="1062" y="559" on="0"/>
        <pt x="1122" y="607" on="1"/>
        <pt x="1205" y="675" on="0"/>
        <pt x="1262" y="675" on="1"/>
        <pt x="1297" y="675" on="0"/>
        <pt x="1319" y="649" on="1"/>
        <pt x="1337" y="625" on="0"/>
        <pt x="1337" y="570" on="0"/>
        <pt x="1327" y="517" on="0"/>
        <pt x="1320" y="516" on="1"/>
      </contour>
      <contour>
        <pt x="595" y="522" on="1"/>
        <pt x="595" y="378" on="0"/>
        <pt x="417" y="46" on="0"/>
        <pt x="298" y="-48" on="1"/>
        <pt x="188" y="-137" on="0"/>
        <pt x="77" y="-137" on="1"/>
        <pt x="40" y="-137" on="0"/>
        <pt x="-6" y="-95" on="0"/>
        <pt x="-6" y="-17" on="0"/>
        <pt x="26" y="27" on="1"/>
        <pt x="29" y="30" on="0"/>
        <pt x="33" y="30" on="0"/>
        <pt x="33" y="26" on="1"/>
        <pt x="29" y="17" on="0"/>
        <pt x="24" y="1" on="1"/>
        <pt x="13" y="-24" on="0"/>
        <pt x="13" y="-76" on="0"/>
        <pt x="50" y="-122" on="0"/>
        <pt x="82" y="-122" on="1"/>
        <pt x="200" y="-122" on="0"/>
        <pt x="320" y="-5" on="1"/>
        <pt x="424" y="99" on="0"/>
        <pt x="567" y="405" on="0"/>
        <pt x="567" y="516" on="1"/>
        <pt x="567" y="527" on="0"/>
        <pt x="566" y="533" on="1"/>
        <pt x="554" y="527" on="0"/>
        <pt x="531" y="522" on="1"/>
        <pt x="516" y="417" on="0"/>
        <pt x="466" y="300" on="1"/>
        <pt x="420" y="187" on="0"/>
        <pt x="270" y="-25" on="0"/>
        <pt x="188" y="-73" on="1"/>
        <pt x="140" y="-101" on="0"/>
        <pt x="106" y="-101" on="1"/>
        <pt x="96" y="-101" on="0"/>
        <pt x="96" y="-86" on="0"/>
        <pt x="116" y="-85" on="0"/>
        <pt x="151" y="-75" on="1"/>
        <pt x="244" y="-40" on="0"/>
        <pt x="340" y="92" on="1"/>
        <pt x="478" y="284" on="0"/>
        <pt x="517" y="520" on="1"/>
        <pt x="467" y="512" on="0"/>
        <pt x="278" y="492" on="0"/>
        <pt x="228" y="481" on="1"/>
        <pt x="110" y="451" on="0"/>
        <pt x="110" y="391" on="1"/>
        <pt x="110" y="345" on="0"/>
        <pt x="154" y="302" on="1"/>
        <pt x="190" y="264" on="0"/>
        <pt x="242" y="251" on="1"/>
        <pt x="248" y="250" on="0"/>
        <pt x="248" y="248" on="1"/>
        <pt x="248" y="244" on="0"/>
        <pt x="240" y="244" on="1"/>
        <pt x="185" y="244" on="0"/>
        <pt x="94" y="336" on="0"/>
        <pt x="94" y="451" on="0"/>
        <pt x="184" y="493" on="1"/>
        <pt x="256" y="526" on="0"/>
        <pt x="369" y="543" on="1"/>
        <pt x="420" y="552" on="0"/>
        <pt x="522" y="566" on="1"/>
        <pt x="525" y="594" on="0"/>
        <pt x="525" y="662" on="1"/>
        <pt x="525" y="670" on="0"/>
        <pt x="532" y="670" on="1"/>
        <pt x="538" y="670" on="0"/>
        <pt x="538" y="596" on="0"/>
        <pt x="536" y="568" on="1"/>
        <pt x="563" y="575" on="0"/>
        <pt x="566" y="576" on="1"/>
        <pt x="573" y="583" on="0"/>
        <pt x="579" y="583" on="1"/>
        <pt x="589" y="583" on="0"/>
        <pt x="595" y="556" on="0"/>
      </contour>
    </TTGlyph>
    <TTGlyph name="N" xMin="2" yMin="-137" xMax="1142" yMax="713">
      <contour>
        <pt x="41" y="26" on="1"/>
        <pt x="21" y="-19" on="0"/>
        <pt x="21" y="-74" on="0"/>
        <pt x="58" y="-122" on="0"/>
        <pt x="89" y="-122" on="1"/>
        <pt x="208" y="-122" on="0"/>
        <pt x="328" y="-5" on="1"/>
        <pt x="433" y="99" on="0"/>
        <pt x="575" y="401" on="0"/>
        <pt x="575" y="516" on="1"/>
        <pt x="575" y="527" on="0"/>
        <pt x="574" y="533" on="1"/>
        <pt x="554" y="524" on="0"/>
        <pt x="526" y="520" on="1"/>
        <pt x="506" y="420" on="0"/>
        <pt x="413" y="197" on="0"/>
        <pt x="278" y="-16" on="0"/>
        <pt x="207" y="-64" on="1"/>
        <pt x="167" y="-89" on="0"/>
        <pt x="137" y="-89" on="1"/>
        <pt x="127" y="-89" on="0"/>
        <pt x="127" y="-78" on="0"/>
        <pt x="150" y="-74" on="0"/>
        <pt x="175" y="-66" on="1"/>
        <pt x="258" y="-29" on="0"/>
        <pt x="344" y="106" on="1"/>
        <pt x="468" y="302" on="0"/>
        <pt x="513" y="518" on="1"/>
        <pt x="390" y="503" on="1"/>
        <pt x="287" y="493" on="0"/>
        <pt x="231" y="479" on="1"/>
        <pt x="118" y="449" on="0"/>
        <pt x="118" y="391" on="1"/>
        <pt x="118" y="348" on="0"/>
        <pt x="162" y="302" on="1"/>
        <pt x="203" y="263" on="0"/>
        <pt x="250" y="251" on="1"/>
        <pt x="256" y="250" on="0"/>
        <pt x="256" y="248" on="1"/>
        <pt x="256" y="244" on="0"/>
        <pt x="248" y="244" on="1"/>
        <pt x="193" y="244" on="0"/>
        <pt x="147" y="290" on="1"/>
        <pt x="102" y="336" on="0"/>
        <pt x="102" y="452" on="0"/>
        <pt x="190" y="492" on="1"/>
        <pt x="261" y="525" on="0"/>
        <pt x="428" y="551" on="0"/>
        <pt x="522" y="564" on="1"/>
        <pt x="530" y="626" on="0"/>
        <pt x="530" y="706" on="1"/>
        <pt x="530" y="713" on="0"/>
        <pt x="536" y="713" on="1"/>
        <pt x="541" y="713" on="0"/>
        <pt x="541" y="612" on="0"/>
        <pt x="534" y="566" on="1"/>
        <pt x="551" y="569" on="0"/>
        <pt x="575" y="576" on="1"/>
        <pt x="580" y="583" on="0"/>
        <pt x="598" y="583" on="0"/>
        <pt x="600" y="568" on="1"/>
        <pt x="603" y="539" on="0"/>
        <pt x="629" y="395" on="1"/>
        <pt x="666" y="186" on="0"/>
        <pt x="717" y="73" on="1"/>
        <pt x="737" y="117" on="0"/>
        <pt x="794" y="412" on="0"/>
        <pt x="817" y="477" on="1"/>
        <pt x="867" y="617" on="0"/>
        <pt x="958" y="668" on="1"/>
        <pt x="985" y="683" on="0"/>
        <pt x="1012" y="683" on="1"/>
        <pt x="1058" y="683" on="0"/>
        <pt x="1100" y="630" on="1"/>
        <pt x="1142" y="580" on="0"/>
        <pt x="1142" y="535" on="1"/>
        <pt x="1142" y="531" on="0"/>
        <pt x="1136" y="531" on="0"/>
        <pt x="1133" y="539" on="1"/>
        <pt x="1121" y="580" on="0"/>
        <pt x="1068" y="635" on="0"/>
        <pt x="1028" y="635" on="1"/>
        <pt x="1007" y="635" on="0"/>
        <pt x="985" y="624" on="1"/>
        <pt x="895" y="583" on="0"/>
        <pt x="840" y="446" on="1"/>
        <pt x="815" y="383" on="0"/>
        <pt x="770" y="194" on="0"/>
        <pt x="766" y="176" on="1"/>
        <pt x="745" y="96" on="0"/>
        <pt x="727" y="54" on="1"/>
        <pt x="768" y="-30" on="0"/>
        <pt x="818" y="-30" on="1"/>
        <pt x="846" y="-30" on="0"/>
        <pt x="877" y="-5" on="1"/>
        <pt x="910" y="21" on="0"/>
        <pt x="907" y="21" on="1"/>
        <pt x="909" y="21" on="0"/>
        <pt x="909" y="12" on="0"/>
        <pt x="903" y="8" on="1"/>
        <pt x="845" y="-50" on="0"/>
        <pt x="736" y="-50" on="0"/>
        <pt x="693" y="10" on="1"/>
        <pt x="682" y="4" on="0"/>
        <pt x="650" y="4" on="0"/>
        <pt x="650" y="16" on="1"/>
        <pt x="650" y="19" on="0"/>
        <pt x="674" y="24" on="0"/>
        <pt x="681" y="28" on="1"/>
        <pt x="638" y="96" on="0"/>
        <pt x="617" y="229" on="1"/>
        <pt x="599" y="405" on="0"/>
        <pt x="596" y="443" on="1"/>
        <pt x="572" y="307" on="0"/>
        <pt x="411" y="36" on="0"/>
        <pt x="196" y="-137" on="0"/>
        <pt x="85" y="-137" on="1"/>
        <pt x="48" y="-137" on="0"/>
        <pt x="2" y="-96" on="0"/>
        <pt x="2" y="-16" on="0"/>
        <pt x="33" y="27" on="1"/>
        <pt x="36" y="30" on="0"/>
        <pt x="41" y="30" on="0"/>
      </contour>
    </TTGlyph>
    <TTGlyph name="Nacute" xMin="2" yMin="-137" xMax="1142" yMax="793">
      <contour>
        <pt x="41" y="26" on="1"/>
        <pt x="21" y="-19" on="0"/>
        <pt x="21" y="-74" on="0"/>
        <pt x="58" y="-122" on="0"/>
        <pt x="89" y="-122" on="1"/>
        <pt x="208" y="-122" on="0"/>
        <pt x="328" y="-5" on="1"/>
        <pt x="433" y="99" on="0"/>
        <pt x="575" y="401" on="0"/>
        <pt x="575" y="516" on="1"/>
        <pt x="575" y="527" on="0"/>
        <pt x="574" y="533" on="1"/>
        <pt x="554" y="524" on="0"/>
        <pt x="526" y="520" on="1"/>
        <pt x="506" y="420" on="0"/>
        <pt x="413" y="197" on="0"/>
        <pt x="278" y="-16" on="0"/>
        <pt x="207" y="-64" on="1"/>
        <pt x="167" y="-89" on="0"/>
        <pt x="137" y="-89" on="1"/>
        <pt x="127" y="-89" on="0"/>
        <pt x="127" y="-78" on="0"/>
        <pt x="150" y="-74" on="0"/>
        <pt x="175" y="-66" on="1"/>
        <pt x="258" y="-29" on="0"/>
        <pt x="344" y="106" on="1"/>
        <pt x="468" y="302" on="0"/>
        <pt x="513" y="518" on="1"/>
        <pt x="390" y="503" on="1"/>
        <pt x="287" y="493" on="0"/>
        <pt x="231" y="479" on="1"/>
        <pt x="118" y="449" on="0"/>
        <pt x="118" y="391" on="1"/>
        <pt x="118" y="348" on="0"/>
        <pt x="162" y="302" on="1"/>
        <pt x="203" y="263" on="0"/>
        <pt x="250" y="251" on="1"/>
        <pt x="256" y="250" on="0"/>
        <pt x="256" y="248" on="1"/>
        <pt x="256" y="244" on="0"/>
        <pt x="248" y="244" on="1"/>
        <pt x="193" y="244" on="0"/>
        <pt x="147" y="290" on="1"/>
        <pt x="102" y="336" on="0"/>
        <pt x="102" y="452" on="0"/>
        <pt x="190" y="492" on="1"/>
        <pt x="261" y="525" on="0"/>
        <pt x="428" y="551" on="0"/>
        <pt x="522" y="564" on="1"/>
        <pt x="530" y="626" on="0"/>
        <pt x="530" y="706" on="1"/>
        <pt x="530" y="713" on="0"/>
        <pt x="536" y="713" on="1"/>
        <pt x="541" y="713" on="0"/>
        <pt x="541" y="612" on="0"/>
        <pt x="534" y="566" on="1"/>
        <pt x="551" y="569" on="0"/>
        <pt x="575" y="576" on="1"/>
        <pt x="580" y="583" on="0"/>
        <pt x="598" y="583" on="0"/>
        <pt x="600" y="568" on="1"/>
        <pt x="603" y="539" on="0"/>
        <pt x="629" y="395" on="1"/>
        <pt x="666" y="186" on="0"/>
        <pt x="717" y="73" on="1"/>
        <pt x="737" y="117" on="0"/>
        <pt x="794" y="412" on="0"/>
        <pt x="817" y="477" on="1"/>
        <pt x="867" y="617" on="0"/>
        <pt x="958" y="668" on="1"/>
        <pt x="985" y="683" on="0"/>
        <pt x="1012" y="683" on="1"/>
        <pt x="1058" y="683" on="0"/>
        <pt x="1100" y="630" on="1"/>
        <pt x="1142" y="580" on="0"/>
        <pt x="1142" y="535" on="1"/>
        <pt x="1142" y="531" on="0"/>
        <pt x="1136" y="531" on="0"/>
        <pt x="1133" y="539" on="1"/>
        <pt x="1121" y="580" on="0"/>
        <pt x="1068" y="635" on="0"/>
        <pt x="1028" y="635" on="1"/>
        <pt x="1007" y="635" on="0"/>
        <pt x="985" y="624" on="1"/>
        <pt x="895" y="583" on="0"/>
        <pt x="840" y="446" on="1"/>
        <pt x="815" y="383" on="0"/>
        <pt x="770" y="194" on="0"/>
        <pt x="766" y="176" on="1"/>
        <pt x="745" y="96" on="0"/>
        <pt x="727" y="54" on="1"/>
        <pt x="768" y="-30" on="0"/>
        <pt x="818" y="-30" on="1"/>
        <pt x="846" y="-30" on="0"/>
        <pt x="877" y="-5" on="1"/>
        <pt x="910" y="21" on="0"/>
        <pt x="907" y="21" on="1"/>
        <pt x="909" y="21" on="0"/>
        <pt x="909" y="12" on="0"/>
        <pt x="903" y="8" on="1"/>
        <pt x="845" y="-50" on="0"/>
        <pt x="736" y="-50" on="0"/>
        <pt x="693" y="10" on="1"/>
        <pt x="682" y="4" on="0"/>
        <pt x="650" y="4" on="0"/>
        <pt x="650" y="16" on="1"/>
        <pt x="650" y="19" on="0"/>
        <pt x="674" y="24" on="0"/>
        <pt x="681" y="28" on="1"/>
        <pt x="638" y="96" on="0"/>
        <pt x="617" y="229" on="1"/>
        <pt x="599" y="405" on="0"/>
        <pt x="596" y="443" on="1"/>
        <pt x="572" y="307" on="0"/>
        <pt x="411" y="36" on="0"/>
        <pt x="196" y="-137" on="0"/>
        <pt x="85" y="-137" on="1"/>
        <pt x="48" y="-137" on="0"/>
        <pt x="2" y="-96" on="0"/>
        <pt x="2" y="-16" on="0"/>
        <pt x="33" y="27" on="1"/>
        <pt x="36" y="30" on="0"/>
        <pt x="41" y="30" on="0"/>
      </contour>
      <contour>
        <pt x="836" y="793" on="0"/>
        <pt x="856" y="779" on="0"/>
        <pt x="856" y="768" on="1"/>
        <pt x="856" y="753" on="0"/>
        <pt x="822" y="737" on="1"/>
        <pt x="809" y="731" on="0"/>
        <pt x="709" y="667" on="0"/>
        <pt x="700" y="667" on="1"/>
        <pt x="698" y="669" on="1"/>
        <pt x="698" y="677" on="0"/>
        <pt x="712" y="688" on="1"/>
        <pt x="758" y="722" on="0"/>
        <pt x="763" y="727" on="1"/>
        <pt x="791" y="751" on="0"/>
        <pt x="799" y="777" on="1"/>
        <pt x="803" y="793" on="0"/>
        <pt x="826" y="793" on="1"/>
      </contour>
    </TTGlyph>
    <TTGlyph name="Ntilde" xMin="2" yMin="-137" xMax="1142" yMax="773">
      <contour>
        <pt x="41" y="26" on="1"/>
        <pt x="21" y="-19" on="0"/>
        <pt x="21" y="-74" on="0"/>
        <pt x="58" y="-122" on="0"/>
        <pt x="89" y="-122" on="1"/>
        <pt x="208" y="-122" on="0"/>
        <pt x="328" y="-5" on="1"/>
        <pt x="433" y="99" on="0"/>
        <pt x="575" y="401" on="0"/>
        <pt x="575" y="516" on="1"/>
        <pt x="575" y="527" on="0"/>
        <pt x="574" y="533" on="1"/>
        <pt x="554" y="524" on="0"/>
        <pt x="526" y="520" on="1"/>
        <pt x="506" y="420" on="0"/>
        <pt x="413" y="197" on="0"/>
        <pt x="278" y="-16" on="0"/>
        <pt x="207" y="-64" on="1"/>
        <pt x="167" y="-89" on="0"/>
        <pt x="137" y="-89" on="1"/>
        <pt x="127" y="-89" on="0"/>
        <pt x="127" y="-78" on="0"/>
        <pt x="150" y="-74" on="0"/>
        <pt x="175" y="-66" on="1"/>
        <pt x="258" y="-29" on="0"/>
        <pt x="344" y="106" on="1"/>
        <pt x="468" y="302" on="0"/>
        <pt x="513" y="518" on="1"/>
        <pt x="390" y="503" on="1"/>
        <pt x="287" y="493" on="0"/>
        <pt x="231" y="479" on="1"/>
        <pt x="118" y="449" on="0"/>
        <pt x="118" y="391" on="1"/>
        <pt x="118" y="348" on="0"/>
        <pt x="162" y="302" on="1"/>
        <pt x="203" y="263" on="0"/>
        <pt x="250" y="251" on="1"/>
        <pt x="256" y="250" on="0"/>
        <pt x="256" y="248" on="1"/>
        <pt x="256" y="244" on="0"/>
        <pt x="248" y="244" on="1"/>
        <pt x="193" y="244" on="0"/>
        <pt x="147" y="290" on="1"/>
        <pt x="102" y="336" on="0"/>
        <pt x="102" y="452" on="0"/>
        <pt x="190" y="492" on="1"/>
        <pt x="261" y="525" on="0"/>
        <pt x="428" y="551" on="0"/>
        <pt x="522" y="564" on="1"/>
        <pt x="530" y="626" on="0"/>
        <pt x="530" y="706" on="1"/>
        <pt x="530" y="713" on="0"/>
        <pt x="536" y="713" on="1"/>
        <pt x="541" y="713" on="0"/>
        <pt x="541" y="612" on="0"/>
        <pt x="534" y="566" on="1"/>
        <pt x="551" y="569" on="0"/>
        <pt x="575" y="576" on="1"/>
        <pt x="580" y="583" on="0"/>
        <pt x="598" y="583" on="0"/>
        <pt x="600" y="568" on="1"/>
        <pt x="603" y="539" on="0"/>
        <pt x="629" y="395" on="1"/>
        <pt x="666" y="186" on="0"/>
        <pt x="717" y="73" on="1"/>
        <pt x="737" y="117" on="0"/>
        <pt x="794" y="412" on="0"/>
        <pt x="817" y="477" on="1"/>
        <pt x="867" y="617" on="0"/>
        <pt x="958" y="668" on="1"/>
        <pt x="985" y="683" on="0"/>
        <pt x="1012" y="683" on="1"/>
        <pt x="1058" y="683" on="0"/>
        <pt x="1100" y="630" on="1"/>
        <pt x="1142" y="580" on="0"/>
        <pt x="1142" y="535" on="1"/>
        <pt x="1142" y="531" on="0"/>
        <pt x="1136" y="531" on="0"/>
        <pt x="1133" y="539" on="1"/>
        <pt x="1121" y="580" on="0"/>
        <pt x="1068" y="635" on="0"/>
        <pt x="1028" y="635" on="1"/>
        <pt x="1007" y="635" on="0"/>
        <pt x="985" y="624" on="1"/>
        <pt x="895" y="583" on="0"/>
        <pt x="840" y="446" on="1"/>
        <pt x="815" y="383" on="0"/>
        <pt x="770" y="194" on="0"/>
        <pt x="766" y="176" on="1"/>
        <pt x="745" y="96" on="0"/>
        <pt x="727" y="54" on="1"/>
        <pt x="768" y="-30" on="0"/>
        <pt x="818" y="-30" on="1"/>
        <pt x="846" y="-30" on="0"/>
        <pt x="877" y="-5" on="1"/>
        <pt x="910" y="21" on="0"/>
        <pt x="907" y="21" on="1"/>
        <pt x="909" y="21" on="0"/>
        <pt x="909" y="12" on="0"/>
        <pt x="903" y="8" on="1"/>
        <pt x="845" y="-50" on="0"/>
        <pt x="736" y="-50" on="0"/>
        <pt x="693" y="10" on="1"/>
        <pt x="682" y="4" on="0"/>
        <pt x="650" y="4" on="0"/>
        <pt x="650" y="16" on="1"/>
        <pt x="650" y="19" on="0"/>
        <pt x="674" y="24" on="0"/>
        <pt x="681" y="28" on="1"/>
        <pt x="638" y="96" on="0"/>
        <pt x="617" y="229" on="1"/>
        <pt x="599" y="405" on="0"/>
        <pt x="596" y="443" on="1"/>
        <pt x="572" y="307" on="0"/>
        <pt x="411" y="36" on="0"/>
        <pt x="196" y="-137" on="0"/>
        <pt x="85" y="-137" on="1"/>
        <pt x="48" y="-137" on="0"/>
        <pt x="2" y="-96" on="0"/>
        <pt x="2" y="-16" on="0"/>
        <pt x="33" y="27" on="1"/>
        <pt x="36" y="30" on="0"/>
        <pt x="41" y="30" on="0"/>
      </contour>
      <contour>
        <pt x="889" y="758" on="1"/>
        <pt x="889" y="741" on="0"/>
        <pt x="848" y="707" on="0"/>
        <pt x="791" y="707" on="0"/>
        <pt x="749" y="725" on="0"/>
        <pt x="731" y="734" on="1"/>
        <pt x="698" y="749" on="0"/>
        <pt x="688" y="749" on="1"/>
        <pt x="656" y="749" on="0"/>
        <pt x="638" y="722" on="1"/>
        <pt x="634" y="717" on="0"/>
        <pt x="628" y="722" on="0"/>
        <pt x="628" y="726" on="1"/>
        <pt x="628" y="747" on="0"/>
        <pt x="664" y="773" on="0"/>
        <pt x="722" y="773" on="0"/>
        <pt x="766" y="755" on="0"/>
        <pt x="793" y="743" on="0"/>
        <pt x="799" y="740" on="1"/>
        <pt x="817" y="733" on="0"/>
        <pt x="830" y="733" on="1"/>
        <pt x="855" y="733" on="0"/>
        <pt x="882" y="760" on="1"/>
        <pt x="884" y="763" on="0"/>
        <pt x="889" y="760" on="0"/>
      </contour>
    </TTGlyph>
    <TTGlyph name="O" xMin="29" yMin="-109" xMax="600" yMax="694">
      <contour>
        <pt x="600" y="338" on="1"/>
        <pt x="600" y="199" on="0"/>
        <pt x="481" y="86" on="1"/>
        <pt x="365" y="-21" on="0"/>
        <pt x="221" y="-21" on="1"/>
        <pt x="200" y="-21" on="0"/>
        <pt x="181" y="-18" on="1"/>
        <pt x="100" y="-109" on="0"/>
        <pt x="39" y="-109" on="1"/>
        <pt x="29" y="-109" on="0"/>
        <pt x="29" y="-102" on="1"/>
        <pt x="29" y="-98" on="0"/>
        <pt x="39" y="-95" on="0"/>
        <pt x="63" y="-91" on="1"/>
        <pt x="112" y="-76" on="0"/>
        <pt x="168" y="-15" on="1"/>
        <pt x="57" y="14" on="0"/>
        <pt x="57" y="141" on="1"/>
        <pt x="57" y="180" on="0"/>
        <pt x="68" y="221" on="1"/>
        <pt x="48" y="258" on="0"/>
        <pt x="48" y="297" on="1"/>
        <pt x="48" y="366" on="0"/>
        <pt x="106" y="427" on="1"/>
        <pt x="212" y="536" on="0"/>
        <pt x="383" y="536" on="1"/>
        <pt x="402" y="536" on="0"/>
        <pt x="422" y="533" on="1"/>
        <pt x="432" y="606" on="0"/>
        <pt x="432" y="687" on="1"/>
        <pt x="432" y="694" on="0"/>
        <pt x="444" y="694" on="0"/>
        <pt x="444" y="588" on="0"/>
        <pt x="434" y="531" on="1"/>
        <pt x="506" y="518" on="0"/>
        <pt x="554" y="465" on="1"/>
        <pt x="600" y="412" on="0"/>
      </contour>
      <contour>
        <pt x="565" y="351" on="1"/>
        <pt x="565" y="414" on="0"/>
        <pt x="529" y="459" on="1"/>
        <pt x="492" y="504" on="0"/>
        <pt x="431" y="517" on="1"/>
        <pt x="407" y="388" on="0"/>
        <pt x="282" y="109" on="0"/>
        <pt x="205" y="11" on="1"/>
        <pt x="335" y="12" on="0"/>
        <pt x="448" y="117" on="1"/>
        <pt x="565" y="223" on="0"/>
      </contour>
      <contour>
        <pt x="383" y="522" on="1"/>
        <pt x="293" y="522" on="0"/>
        <pt x="137" y="438" on="0"/>
        <pt x="100" y="360" on="1"/>
        <pt x="77" y="314" on="0"/>
        <pt x="77" y="264" on="1"/>
        <pt x="77" y="254" on="0"/>
        <pt x="78" y="249" on="1"/>
        <pt x="111" y="334" on="0"/>
        <pt x="279" y="473" on="0"/>
        <pt x="364" y="473" on="1"/>
        <pt x="376" y="473" on="0"/>
        <pt x="376" y="460" on="0"/>
        <pt x="363" y="460" on="1"/>
        <pt x="294" y="460" on="0"/>
        <pt x="201" y="369" on="1"/>
        <pt x="119" y="286" on="0"/>
        <pt x="88" y="213" on="1"/>
        <pt x="96" y="198" on="0"/>
        <pt x="136" y="178" on="0"/>
        <pt x="136" y="176" on="1"/>
        <pt x="136" y="169" on="0"/>
        <pt x="127" y="169" on="1"/>
        <pt x="106" y="169" on="0"/>
        <pt x="83" y="199" on="1"/>
        <pt x="70" y="167" on="0"/>
        <pt x="70" y="141" on="1"/>
        <pt x="70" y="18" on="0"/>
        <pt x="192" y="12" on="1"/>
        <pt x="273" y="111" on="0"/>
        <pt x="395" y="388" on="0"/>
        <pt x="419" y="520" on="1"/>
        <pt x="407" y="522" on="0"/>
      </contour>
    </TTGlyph>
    <TTGlyph name="OE" xMin="34" yMin="-75" xMax="999" yMax="633">
      <contour>
        <pt x="886" y="270" on="1"/>
        <pt x="814" y="272" on="1"/>
        <pt x="668" y="272" on="0"/>
        <pt x="618" y="230" on="1"/>
        <pt x="573" y="22" on="0"/>
        <pt x="505" y="-49" on="1"/>
        <pt x="980" y="-42" on="0"/>
        <pt x="980" y="75" on="1"/>
        <pt x="980" y="94" on="0"/>
        <pt x="947" y="147" on="0"/>
        <pt x="947" y="159" on="0"/>
        <pt x="954" y="159" on="1"/>
        <pt x="972" y="159" on="0"/>
        <pt x="999" y="95" on="0"/>
        <pt x="999" y="72" on="1"/>
        <pt x="999" y="-10" on="0"/>
        <pt x="904" y="-48" on="1"/>
        <pt x="836" y="-75" on="0"/>
        <pt x="710" y="-75" on="1"/>
        <pt x="462" y="-65" on="1"/>
        <pt x="459" y="-65" on="0"/>
        <pt x="455" y="-63" on="1"/>
        <pt x="441" y="-65" on="0"/>
        <pt x="441" y="-55" on="1"/>
        <pt x="441" y="-50" on="0"/>
        <pt x="476" y="-50" on="1"/>
        <pt x="515" y="-19" on="0"/>
        <pt x="543" y="142" on="1"/>
        <pt x="495" y="60" on="0"/>
        <pt x="311" y="-54" on="0"/>
        <pt x="133" y="-54" on="0"/>
        <pt x="39" y="39" on="0"/>
        <pt x="39" y="120" on="1"/>
        <pt x="39" y="163" on="0"/>
        <pt x="51" y="205" on="1"/>
        <pt x="34" y="244" on="0"/>
        <pt x="34" y="290" on="1"/>
        <pt x="34" y="363" on="0"/>
        <pt x="92" y="424" on="1"/>
        <pt x="203" y="540" on="0"/>
        <pt x="385" y="540" on="1"/>
        <pt x="451" y="540" on="0"/>
        <pt x="566" y="469" on="0"/>
        <pt x="585" y="410" on="1"/>
        <pt x="601" y="504" on="0"/>
        <pt x="617" y="554" on="1"/>
        <pt x="474" y="554" on="0"/>
        <pt x="474" y="563" on="1"/>
        <pt x="474" y="567" on="0"/>
        <pt x="566" y="583" on="0"/>
        <pt x="629" y="585" on="1"/>
        <pt x="650" y="633" on="0"/>
        <pt x="669" y="633" on="1"/>
        <pt x="685" y="633" on="0"/>
        <pt x="685" y="617" on="1"/>
        <pt x="685" y="615" on="0"/>
        <pt x="674" y="585" on="1"/>
        <pt x="832" y="580" on="0"/>
        <pt x="949" y="546" on="1"/>
        <pt x="986" y="536" on="0"/>
        <pt x="986" y="507" on="0"/>
        <pt x="937" y="507" on="0"/>
        <pt x="913" y="514" on="1"/>
        <pt x="810" y="545" on="0"/>
        <pt x="665" y="553" on="1"/>
        <pt x="651" y="497" on="0"/>
        <pt x="620" y="290" on="0"/>
        <pt x="620" y="285" on="1"/>
        <pt x="656" y="301" on="0"/>
        <pt x="845" y="301" on="0"/>
        <pt x="889" y="287" on="1"/>
        <pt x="895" y="286" on="0"/>
        <pt x="895" y="280" on="1"/>
        <pt x="895" y="270" on="0"/>
      </contour>
      <contour>
        <pt x="579" y="365" on="0"/>
        <pt x="581" y="380" on="0"/>
        <pt x="581" y="395" on="0"/>
        <pt x="568" y="420" on="1"/>
        <pt x="544" y="466" on="0"/>
        <pt x="440" y="519" on="0"/>
        <pt x="385" y="519" on="1"/>
        <pt x="289" y="519" on="0"/>
        <pt x="210" y="477" on="1"/>
        <pt x="123" y="432" on="0"/>
        <pt x="84" y="350" on="1"/>
        <pt x="65" y="311" on="0"/>
        <pt x="65" y="266" on="1"/>
        <pt x="65" y="256" on="0"/>
        <pt x="67" y="250" on="1"/>
        <pt x="121" y="351" on="0"/>
        <pt x="219" y="418" on="1"/>
        <pt x="324" y="492" on="0"/>
        <pt x="430" y="492" on="1"/>
        <pt x="450" y="492" on="0"/>
        <pt x="450" y="480" on="0"/>
        <pt x="429" y="480" on="1"/>
        <pt x="338" y="480" on="0"/>
        <pt x="121" y="294" on="0"/>
        <pt x="80" y="201" on="1"/>
        <pt x="100" y="161" on="0"/>
        <pt x="220" y="104" on="0"/>
        <pt x="270" y="104" on="1"/>
        <pt x="281" y="104" on="1"/>
        <pt x="292" y="104" on="0"/>
        <pt x="292" y="100" on="1"/>
        <pt x="292" y="90" on="0"/>
        <pt x="197" y="90" on="0"/>
        <pt x="98" y="135" on="0"/>
        <pt x="70" y="174" on="1"/>
        <pt x="55" y="132" on="0"/>
        <pt x="55" y="118" on="1"/>
        <pt x="55" y="54" on="0"/>
        <pt x="130" y="-12" on="0"/>
        <pt x="264" y="-12" on="0"/>
        <pt x="340" y="24" on="1"/>
        <pt x="471" y="86" on="0"/>
        <pt x="539" y="194" on="1"/>
        <pt x="544" y="202" on="0"/>
        <pt x="558" y="230" on="1"/>
        <pt x="560" y="233" on="0"/>
        <pt x="573" y="325" on="0"/>
      </contour>
    </TTGlyph>
</ttFont>
